<?xml version="1.0" encoding="utf-8"?>
<!-- Generator: Adobe Illustrator 21.0.2, SVG Export Plug-In . SVG Version: 6.00 Build 0)  -->
<svg version="1.1" xmlns="http://www.w3.org/2000/svg" xmlns:xlink="http://www.w3.org/1999/xlink" x="0px" y="0px"
	 viewBox="0 0 166 166" style="enable-background:new 0 0 166 166;" xml:space="preserve">
<style type="text/css">
	.st0{fill:#FFFFFF;}
	.st1{fill:#F2F2F2;}
	.st2{fill:#CCCCCC;}
	.st3{opacity:0.2;}
	.st4{fill:#3FA9F5;}
	.st5{fill:none;stroke:#000000;stroke-width:0.4499;stroke-miterlimit:10;}
	.st6{fill:#333333;}
</style>
<g id="Layer_5">
	<path class="st0" d="M152.3,19.2c2.7-2.3,1.8-8-2.8-8c-1.1,0-2,0.3-2.7,0.9c-1.6-0.9-3.3-1.3-5.2-1.2c-6.5,0.4-13.1-0.9-19.5-1.7
		c-5.8-2.5-13.5-2.9-19.5-2.9c-3.6,0-7.3,0.4-10.9,1c-2.8,0.5-5.6,1.9-8.4,1.8c-1.9-0.1-3.7,0.4-5.3,1.3c-1.3-0.3-2.6-0.4-4-0.3
		c-14.1,0.6-14.2,22.6,0,22c0,0-0.4-0.3-0.1-0.1c0.9,0.5,2,1.6,2.7,2.2c0.5,0.5,1.1,0.9,1.6,1.4c-1,3.2-0.4,6.7,1.4,9.5
		c-3.3,3.2-8.9,3.5-13,4.9c-4.4,1.5-7.9,3.9-10.5,7.1c-0.3-0.6-0.6-1.1-1-1.7c-3.5-5.8-10.4-6.5-15.2-3.6c0.1-0.8,0.1-1.7,0.2-2.5
		c0.2-1.6-0.2-3.1-0.8-4.5c0.8-2.2,0.9-4.7,0.4-7.1c-0.1-0.4-0.2-1-0.4-1.7c0.4-0.1,0.8-0.1,1.2-0.2c1.4-0.3,2.7-1,3.7-2
		c1.2-0.8,2.1-1.8,2.8-3.1c0.8-1.3,1.2-2.6,1.3-4.1c0.3-1.5,0.3-2.9-0.2-4.4c-0.9-2.7-2.5-5.2-5.1-6.6c-0.9-0.4-1.8-0.7-2.6-1.1
		c-1.9-0.5-3.9-0.5-5.8,0c-1.3,0.2-2.5,0.4-3.8,0.6c-0.5,0.1-1.1,0.3-1.6,0.5c-2.6-0.9-5.6-0.7-8.1,0.7c-0.6-0.4-1.3-0.6-2.2-0.6
		c-4.4,0-5.4,5.1-3.2,7.6c-0.8,2.7-0.6,5.7,1.1,8.3c0.1,0.2,0.2,0.3,0.3,0.5c0,0,0,0,0,0.1c0,0.9,0,1.8,0,2.8
		c-0.1,1.8,0,3.4,0.4,5.2c-0.4,2.3,0,4.8,1,6.8c-0.2,0.7-0.3,1.4-0.4,2.2C16.7,63,19,76.8,19.8,90.6c0.8,13.8,1,27.5,0.5,41.3
		c0,0.4,0,0.9,0,1.3c0,0.8,0.1,1.6,0.2,2.4c-1.7,2.6-0.5,7.1,3.6,7.1c0.5,0,1-0.1,1.4-0.2c0.2,0.1,0.4,0.2,0.6,0.3
		c1.5,1.4,3.6,2.4,5.6,3c1.2,0.3,2.5,0.5,3.8,0.4c0.4,0.3,0.8,0.6,1.2,0.8c4.3,2.2,8.8,4.4,13.5,5.8c4,1.2,8.4,1,12.2,1.7
		c4.8,0.9,9,2.6,14,2.9c3.3,0.2,7.7-0.5,10.8,0.9c4.9,2.2,10.7,1.7,14.1-2.6c0.8,0,1.6-0.1,2.4-0.2c3.4-0.5,6.6-3,8.4-5.9
		c0.4-0.6,0.9-1.4,1.2-2.1c1.1,0,2.1-0.2,3.2-0.6c2.7-1.1,5.5-2.2,8-3.8c0.9-0.6,1.8-1.2,2.6-1.8c0.8-0.6,1.5-1.1,2.3-1.7
		c0.1,0,0.2-0.1,0.3-0.1c0.1,0,0.1-0.1,0.2-0.1c0.7-0.1,1.5-0.2,2.2-0.3c1-0.3,1.9-0.7,2.7-1.2c0.2,0,0.5,0.1,0.7,0.1
		c3.6,0,4.9-3.4,4.1-6c0.4-1.1,0.6-2.3,0.6-3.5c0.2-0.5,0.4-1.1,0.5-1.7c5.7-29.4,8-59.1,10.3-89c0.1-0.8,0-1.5-0.1-2.2
		c0.4-1.7,0.8-3.3,1.1-5c0.3-1.7,0.3-3.4,0-5.1c0.4-1.1,0.6-2.3,0.6-3.6C152.7,20.9,152.5,20,152.3,19.2z"/>
</g>
<g id="Layer_3">
	<g>
		<g>
			<path class="st1" d="M76.8,18.9C70.6,12.2,61,8.9,52,10.3s-17.2,7.3-21.5,15.4S26,43.8,29.7,52.2c1.1,2.5,2.6,4.9,4.5,6.9
				c2.6,2.5,5.9,4.2,9.3,5.3c5.7,1.8,11.9,2.1,17.8,0.8c4.2-0.9,8.3-2.6,11.6-5.2c7-5.6,10-14.9,10.2-23.9c0.1-7.3-2-15.5-8.4-19.2"
				/>
			<g>
				<path d="M78,17.8c-19.5-20-53.2-4.8-52.6,22.7c0.3,14.2,9,24.8,23.1,26.8c13.5,2,27.6-3.5,33.2-16.4c4.8-11.1,5.1-28.1-6.2-35.4
					c-1.8-1.2-3.5,1.7-1.7,2.9c11,7.1,8.9,25.8,2.5,35.3c-8.5,12.6-31.8,14.9-41.9,3.1c-9.4-11-6.7-29.1,3.9-38.3
					c11-9.5,27.2-8.7,37.3,1.7C77.1,21.7,79.5,19.3,78,17.8L78,17.8z"/>
			</g>
		</g>
		<g>
			<path class="st2" d="M23,58.8c-4.5,5.7-8.3,11.8-11.4,18.4c-0.1,0.2-0.2,0.5-0.2,0.7c0,0.3,0.3,0.6,0.5,0.8
				c1.7,1.6,4.2,2.1,6.5,2.5c0.2,0,0.5,0.1,0.7,0c0.2-0.1,0.3-0.2,0.5-0.4c3-3.2,5.9-6.3,8.9-9.5c2.8-2.9,5.6-6,6.8-9.9"/>
			<g>
				<path d="M22.7,58.5c-4.1,5.2-8,10.9-10.7,16.9c-1.4,3.1-0.7,4.1,2.9,5.3c5.5,1.9,6.3-1,10.1-5c4.1-4.3,8.6-8.4,10.7-14.1
					c0.2-0.5-0.6-0.7-0.8-0.2c-1.6,4.4-4.8,7.7-8,11.1c-2.3,2.4-6.3,8.5-9.8,8.1c-7.1-0.9-3.6-6.6-1.3-10.5
					c2.2-3.8,4.7-7.4,7.4-10.9C23.6,58.6,23,58,22.7,58.5L22.7,58.5z"/>
			</g>
		</g>
		<g>
			<path class="st2" d="M22.7,59.1c0.8-0.8,3.3-3.4,4.1-4.3c0.3-0.3,0.6-0.6,1-0.6c0.3,0,0.6,0.2,0.9,0.4c2.1,1.8,4.7,4.2,6.7,6
				c0,0,0.2,0.4-0.2,1.3"/>
			<g>
				<path d="M23,59.4c0.7-0.7,1.4-1.4,2-2.1c0.5-0.5,1.4-1.9,2-2.1c1.5-0.6,3.4,1.7,4.3,2.6c1,0.9,3.8,2.7,3.4,4.2
					c-0.1,0.5,0.7,0.8,0.8,0.2c0.5-1.8-0.3-2.1-1.7-3.3c-1.6-1.5-3.3-3.5-5.3-4.6c-1.1-0.6-1.6-0.2-2.4,0.6c-1.3,1.3-2.5,2.7-3.8,4
					C22,59.2,22.6,59.8,23,59.4L23,59.4z"/>
			</g>
		</g>
		<g>
			<g>
				<path d="M15.1,20.6c5.3,0.2,10.2,1.7,14.8,4.3c0.9,0.5,1.7-0.9,0.8-1.4c-4.8-2.8-10.1-4.3-15.6-4.5
					C14.1,18.9,14.1,20.5,15.1,20.6L15.1,20.6z"/>
			</g>
		</g>
		<g>
			<g>
				<path d="M84.1,37.1c5.9,1.9,11.7,4.1,17.3,6.6c0.9,0.4,1.7-0.9,0.8-1.4c-5.8-2.6-11.7-4.8-17.7-6.7
					C83.6,35.3,83.2,36.8,84.1,37.1L84.1,37.1z"/>
			</g>
		</g>
		<g>
			<g>
				<path d="M103.1,43.8c8.3-6.7,16.6-13.4,25.9-18.6c7.6-4.2,15.8-7.2,22.6-12.8c0.6-0.5,0-1.3-0.6-1.3
					c-11.2-1.4-22.4-2.7-33.5-4.1c-5.2-0.6-10.4-1.5-15.7-1.6c-4.9,0-9.6,1.1-14.4,1.9c-23.1,4.2-46.7,5.7-70.1,7.9
					c-1,0.1-1,1.7,0,1.6c22.2-2.1,44.6-3.6,66.7-7.3C89.7,8.6,95.3,7.1,101,7c5.2-0.1,10.4,0.8,15.6,1.4c11.5,1.4,23,2.8,34.5,4.2
					c-0.2-0.4-0.4-0.9-0.6-1.3c-7.5,6.3-17,9.4-25.4,14.4c-8.2,4.9-15.7,11-23.1,17.1C101.2,43.3,102.3,44.4,103.1,43.8L103.1,43.8z
					"/>
			</g>
		</g>
		<g>
			<g>
				<path d="M13.5,21.6c3.7,13.7,4.7,27.8,2.8,41.9c-0.1,1,1.4,1,1.6,0c1.9-14.2,0.9-28.5-2.9-42.3C14.8,20.2,13.3,20.6,13.5,21.6
					L13.5,21.6z"/>
			</g>
		</g>
		<g>
			<g>
				<path d="M18.5,82.2c0.9,19.3,1,38.6,0.5,58c0,1,1.5,1,1.6,0c0.5-19.3,0.3-38.7-0.5-58C20.1,81.2,18.5,81.1,18.5,82.2L18.5,82.2z
					"/>
			</g>
		</g>
		<g>
			<g>
				<path d="M103,44.4c-2.4,27.4-4.8,54.9-7.2,82.3c-0.1,1,1.5,1,1.6,0c2.4-27.4,4.8-54.9,7.2-82.3C104.7,43.4,103.1,43.4,103,44.4
					L103,44.4z"/>
			</g>
		</g>
		<g>
			<g>
				<path d="M153.2,11.9c-3.1,19.5-3.4,39.3-5.3,58.9c-2.1,21-5,41.9-8.8,62.6c-0.2,1,1.3,1.4,1.5,0.4c3.6-19.6,6.4-39.3,8.5-59.1
					c2.1-20.8,2.4-41.8,5.6-62.4C154.9,11.3,153.4,10.9,153.2,11.9L153.2,11.9z"/>
			</g>
		</g>
		<g>
			<g>
				<path d="M95.9,127.6c0,10.9-1,21.6-3,32.3c-0.1,0.5,0.4,1.2,1,1c3.6-1.5,6.6-3.9,9.8-6c4-2.7,8.3-4.8,12.6-6.8
					c8.8-3.9,17.8-7.2,25.9-12.4c0.9-0.5,0.1-1.9-0.8-1.4c-7.6,4.9-16.1,8.1-24.3,11.7c-4.1,1.8-8.2,3.7-12,6.1
					c-3.9,2.4-7.3,5.5-11.6,7.2c0.3,0.3,0.6,0.6,1,1c2.1-10.8,3.1-21.7,3.1-32.7C97.5,126.5,95.9,126.5,95.9,127.6L95.9,127.6z"/>
			</g>
		</g>
		<g>
			<g>
				<path d="M92,159.3c-12.7-0.2-25.1-2.9-37.4-6c-5.6-1.4-11.3-2.7-16.8-4.6c-5.5-1.9-10.4-5.6-16.1-6.9c-1-0.2-1.4,1.3-0.4,1.5
					c5.7,1.4,10.6,5,16.1,6.9c6.1,2.1,12.4,3.5,18.6,5.1c11.8,3,23.8,5.4,36,5.6C93,160.8,93,159.3,92,159.3L92,159.3z"/>
			</g>
		</g>
		<g>
			<g>
				<g>
					<path d="M25,36.3c-0.9-0.8-2-1.7-3.3-1.4c-0.1,0-0.1,0.1-0.1,0.1c-0.6,2.1-0.2,4.9-0.2,7c-0.1,3.2-0.1,6.4-0.2,9.5
						c-0.1,3.6,1.4,2.5,4.8,2.1c0.2,0,0.3-0.4,0-0.4c-2.3,0.2-3.8,1.3-4.4-1.7c-0.3-1.6,0.1-3.5,0.1-5.1c0-1.7,0.1-3.4,0.1-5.1
						c0-0.9-0.6-8.1,3-4.8C24.9,36.8,25.2,36.5,25,36.3L25,36.3z"/>
				</g>
			</g>
			<g>
				<g>
					<path d="M83.1,48.4c2.1,0.1,4.3,0.2,6.4,0.5c2.5,0.4,3.2,0.4,3.2,3c0,3.3-0.8,6.9-1.1,10.2c-0.1,1-0.2,2-0.2,2.9
						c-0.9,1.3-1.9,1.6-3,0.9c-1.2-0.1-2.6-0.7-3.8-0.9c-1-0.2-3-0.1-3.9-0.5c-3.3-1.6-2-4-1.5-6.6c0.1-0.2-0.3-0.4-0.4-0.1
						c-0.4,1.7-2,5.5-0.2,6.8C79,65,80.8,65,80.8,65c1.7,0.2,3.4,0.4,5,0.8c1.8,0.4,3.8,1.5,5.6,1.4c0.1,0,0.2-0.1,0.2-0.1
						c0.7-2.4,0.5-5.3,0.7-7.8c0.2-2,0.4-3.9,0.6-5.8c0.1-0.8,0.8-3,0.3-3.8c-1.4-2-8.1-1.6-10.1-1.6C82.8,48,82.8,48.4,83.1,48.4
						L83.1,48.4z"/>
				</g>
			</g>
			<g>
				<g>
					<path d="M76.4,73.9c1.7,0.3,3.5,0.6,5.2,0.8c1.6,0.2,5.2-0.1,6.5,0.7c1.7,1.1,0.5,5,0.3,6.7c-0.2,1.5,0,5.6-0.9,6.8
						c-1.5,2.2-3.9,1.3-6.1,1.1c-0.8-0.1-1.6-0.1-2.4-0.2c-1.8-0.1-2.1,0.4-3.3-1.2c-1.1-1.5-0.6-2.2-0.3-3.8
						c0.2-1.1,0.5-2.2,0.7-3.3c0.5-2.4,1.1-4.8,1.6-7.2c0.1-0.2-0.3-0.4-0.4-0.1c-0.6,2.8-1.3,5.7-1.9,8.5c-0.4,1.6-1.7,4.7-1.4,6.3
						c0.4,2.3,4.2,1.2,6,1.3c1.6,0.1,3.1,0.3,4.7,0.6c-0.1,0,1.7,0.4,1.9,0.3c0.3-0.1,0.5-0.2,0.7-0.4c1-1,0.7-4.6,0.8-5.9
						c0.4-3.2,0.8-6.3,1.1-9.5c0-0.1-0.1-0.2-0.2-0.2c-4.3-0.3-8.7-0.8-13-1.6C76.3,73.5,76.2,73.8,76.4,73.9L76.4,73.9z"/>
				</g>
			</g>
			<g>
				<g>
					<path d="M53.2,70.2c1.7,0.3,3.5,0.6,5.2,0.8c1.6,0.2,5.2-0.1,6.5,0.7c1.7,1.1,0.5,5,0.3,6.7c-0.2,1.5,0,5.6-0.9,6.8
						c-1.5,2.2-3.9,1.3-6.1,1.1c-0.8-0.1-1.6-0.1-2.4-0.2c-1.8-0.1-2.1,0.4-3.3-1.2c-1.1-1.5-0.6-2.2-0.3-3.8
						c0.2-1.1,0.5-2.2,0.7-3.3c0.5-2.4,1.1-4.8,1.6-7.2c0.1-0.2-0.3-0.4-0.4-0.1c-0.6,2.8-1.3,5.7-1.9,8.5c-0.4,1.6-1.7,4.7-1.4,6.3
						c0.4,2.3,4.2,1.2,6,1.3c1.6,0.1,3.1,0.3,4.7,0.6c-0.1,0,1.7,0.4,1.9,0.3c0.3-0.1,0.5-0.2,0.7-0.4c1-1,0.7-4.6,0.8-5.9
						c0.4-3.2,0.8-6.3,1.1-9.5c0-0.1-0.1-0.2-0.2-0.2c-4.3-0.3-8.7-0.8-13-1.6C53.1,69.8,53,70.1,53.2,70.2L53.2,70.2z"/>
				</g>
			</g>
			<g>
				<g>
					<path d="M32.3,68c1.7,0.3,3.5,0.6,5.2,0.8c1.6,0.2,5.2-0.1,6.5,0.7c1.7,1.1,0.5,5,0.3,6.7c-0.2,1.5,0,5.6-0.9,6.8
						c-1.5,2.2-3.9,1.3-6.1,1.1C36.6,84.1,35.8,84,35,84c-1.8-0.1-2.1,0.4-3.3-1.2c-1.1-1.5-0.6-2.2-0.3-3.8
						c0.2-1.1,0.5-2.2,0.7-3.3c0.5-2.4,1.1-4.8,1.6-7.2c0.1-0.2-0.3-0.4-0.4-0.1c-0.6,2.8-1.3,5.7-1.9,8.5c-0.4,1.6-1.7,4.7-1.4,6.3
						c0.4,2.3,4.2,1.2,6,1.3c1.6,0.1,3.1,0.3,4.7,0.6c-0.1,0,1.7,0.4,1.9,0.3c0.3-0.1,0.5-0.2,0.7-0.4c1-1,0.7-4.6,0.8-5.9
						c0.4-3.2,0.8-6.3,1.1-9.5c0-0.1-0.1-0.2-0.2-0.2c-4.3-0.3-8.7-0.8-13-1.6C32.1,67.6,32,67.9,32.3,68L32.3,68z"/>
				</g>
			</g>
			<g>
				<g>
					<path d="M74.9,98.3c1.7,0.3,3.5,0.6,5.2,0.8c1.6,0.2,5.2-0.1,6.5,0.7c1.7,1.1,0.5,5,0.3,6.7c-0.2,1.5,0,5.6-0.9,6.8
						c-1.5,2.2-3.9,1.3-6.1,1.1c-0.8-0.1-1.6-0.1-2.4-0.2c-1.8-0.1-2.1,0.4-3.3-1.2c-1.1-1.5-0.6-2.2-0.3-3.8
						c0.2-1.1,0.5-2.2,0.7-3.3c0.5-2.4,1.1-4.8,1.6-7.2c0.1-0.2-0.3-0.4-0.4-0.1c-0.6,2.8-1.3,5.7-1.9,8.5c-0.4,1.6-1.7,4.7-1.4,6.3
						c0.4,2.3,4.2,1.2,6,1.3c1.6,0.1,3.1,0.3,4.7,0.6c-0.1,0,1.7,0.4,1.9,0.3c0.3-0.1,0.5-0.2,0.7-0.4c1-1,0.7-4.6,0.8-5.9
						c0.4-3.2,0.8-6.3,1.1-9.5c0-0.1-0.1-0.2-0.2-0.2c-4.3-0.3-8.7-0.8-13-1.6C74.7,97.9,74.6,98.3,74.9,98.3L74.9,98.3z"/>
				</g>
			</g>
			<g>
				<g>
					<path d="M51.7,94.6c1.7,0.3,3.5,0.6,5.2,0.8c1.6,0.2,5.2-0.1,6.5,0.7c1.7,1.1,0.5,5,0.3,6.7c-0.2,1.5,0,5.6-0.9,6.8
						c-1.5,2.2-3.9,1.3-6.1,1.1c-0.8-0.1-1.6-0.1-2.4-0.2c-1.8-0.1-2.1,0.4-3.3-1.2c-1.1-1.5-0.6-2.2-0.3-3.8
						c0.2-1.1,0.5-2.2,0.7-3.3c0.5-2.4,1.1-4.8,1.6-7.2c0.1-0.2-0.3-0.4-0.4-0.1c-0.6,2.8-1.3,5.7-1.9,8.5c-0.4,1.6-1.7,4.7-1.4,6.3
						c0.4,2.3,4.2,1.2,6,1.3c1.6,0.1,3.1,0.3,4.7,0.6c-0.1,0,1.7,0.4,1.9,0.3c0.3-0.1,0.5-0.2,0.7-0.4c1-1,0.7-4.6,0.8-5.9
						c0.4-3.2,0.8-6.3,1.1-9.5c0-0.1-0.1-0.2-0.2-0.2c-4.3-0.3-8.7-0.8-13-1.6C51.6,94.2,51.4,94.6,51.7,94.6L51.7,94.6z"/>
				</g>
			</g>
			<g>
				<g>
					<path d="M30.7,92.4c1.7,0.3,3.5,0.6,5.2,0.8c1.6,0.2,5.2-0.1,6.5,0.7c1.7,1.1,0.5,5,0.3,6.7c-0.2,1.5,0,5.6-0.9,6.8
						c-1.5,2.2-3.9,1.3-6.1,1.1c-0.8-0.1-1.6-0.1-2.4-0.2c-1.8-0.1-2.1,0.4-3.3-1.2c-1.1-1.5-0.6-2.2-0.3-3.8
						c0.2-1.1,0.5-2.2,0.7-3.3c0.5-2.4,1.1-4.8,1.6-7.2c0.1-0.2-0.3-0.4-0.4-0.1c-0.6,2.8-1.3,5.7-1.9,8.5c-0.4,1.6-1.7,4.7-1.4,6.3
						c0.4,2.3,4.2,1.2,6,1.3c1.6,0.1,3.1,0.3,4.7,0.6c-0.1,0,1.7,0.4,1.9,0.3c0.3-0.1,0.5-0.2,0.7-0.4c1-1,0.7-4.6,0.8-5.9
						c0.4-3.2,0.8-6.3,1.1-9.5c0-0.1-0.1-0.2-0.2-0.2c-4.3-0.3-8.7-0.8-13-1.6C30.6,92,30.5,92.4,30.7,92.4L30.7,92.4z"/>
				</g>
			</g>
			<g>
				<g>
					<path d="M71.3,122c1.7,0.3,3.5,0.6,5.2,0.8c1.6,0.2,5.2-0.1,6.5,0.7c1.7,1.1,0.5,5,0.3,6.7c-0.2,1.5,0,5.6-0.9,6.8
						c-1.5,2.2-3.9,1.3-6.1,1.1c-0.8-0.1-1.6-0.1-2.4-0.2c-1.8-0.1-2.1,0.4-3.3-1.2c-1.1-1.5-0.6-2.2-0.3-3.8
						c0.2-1.1,0.5-2.2,0.7-3.3c0.5-2.4,1.1-4.8,1.6-7.2c0.1-0.2-0.3-0.4-0.4-0.1c-0.6,2.8-1.3,5.7-1.9,8.5c-0.4,1.6-1.7,4.7-1.4,6.3
						c0.4,2.3,4.2,1.2,6,1.3c1.6,0.1,3.1,0.3,4.7,0.6c-0.1,0,1.7,0.4,1.9,0.3c0.3-0.1,0.5-0.2,0.7-0.4c1-1,0.7-4.6,0.8-5.9
						c0.4-3.2,0.8-6.3,1.1-9.5c0-0.1-0.1-0.2-0.2-0.2c-4.3-0.3-8.7-0.8-13-1.6C71.2,121.6,71,122,71.3,122L71.3,122z"/>
				</g>
			</g>
			<g>
				<g>
					<path d="M48.1,118.4c1.7,0.3,3.5,0.6,5.2,0.8c1.6,0.2,5.2-0.1,6.5,0.7c1.7,1.1,0.5,5,0.3,6.7c-0.2,1.5,0,5.6-0.9,6.8
						c-1.5,2.2-3.9,1.3-6.1,1.1c-0.8-0.1-1.6-0.1-2.4-0.2c-1.8-0.1-2.1,0.4-3.3-1.2c-1.1-1.5-0.6-2.2-0.3-3.8
						c0.2-1.1,0.5-2.2,0.7-3.3c0.5-2.4,1.1-4.8,1.6-7.2c0.1-0.2-0.3-0.4-0.4-0.1c-0.6,2.8-1.3,5.7-1.9,8.5c-0.4,1.6-1.7,4.7-1.4,6.3
						c0.4,2.3,4.2,1.2,6,1.3c1.6,0.1,3.1,0.3,4.7,0.6c-0.1,0,1.7,0.4,1.9,0.3c0.3-0.1,0.5-0.2,0.7-0.4c1-1,0.7-4.6,0.8-5.9
						c0.4-3.2,0.8-6.3,1.1-9.5c0-0.1-0.1-0.2-0.2-0.2c-4.3-0.3-8.7-0.8-13-1.6C48,117.9,47.9,118.3,48.1,118.4L48.1,118.4z"/>
				</g>
			</g>
			<g>
				<g>
					<path d="M27.2,116.1c1.7,0.3,3.5,0.6,5.2,0.8c1.6,0.2,5.2-0.1,6.5,0.7c1.7,1.1,0.5,5,0.3,6.7c-0.2,1.5,0,5.6-0.9,6.8
						c-1.5,2.2-3.9,1.3-6.1,1.1c-0.8-0.1-1.6-0.1-2.4-0.2c-1.8-0.1-2.1,0.4-3.3-1.2c-1.1-1.5-0.6-2.2-0.3-3.8
						c0.2-1.1,0.5-2.2,0.7-3.3c0.5-2.4,1.1-4.8,1.6-7.2c0.1-0.2-0.3-0.4-0.4-0.1c-0.6,2.8-1.3,5.7-1.9,8.5c-0.4,1.6-1.7,4.7-1.4,6.3
						c0.4,2.3,4.2,1.2,6,1.3c1.6,0.1,3.1,0.3,4.7,0.6c-0.1,0,1.7,0.4,1.9,0.3c0.3-0.1,0.5-0.2,0.7-0.4c1-1,0.7-4.6,0.8-5.9
						c0.4-3.2,0.8-6.3,1.1-9.5c0-0.1-0.1-0.2-0.2-0.2c-4.3-0.3-8.7-0.8-13-1.6C27,115.7,26.9,116.1,27.2,116.1L27.2,116.1z"/>
				</g>
			</g>
		</g>
		<g>
			<g>
				<path d="M108.1,47.7c0.3,6.9-0.2,13.6-1.3,20.4c0,0.2,0.1,0.3,0.3,0.2c2.9-1.9,8.3-3,9.5-6.5c0.8-2.5,0.5-5.7,0.8-8.3
					c0.3-3.9,0.7-7.8,1-11.7c0-0.2-0.2-0.2-0.3-0.1c-2.9,2.8-5.8,4.6-9.5,6c-0.2,0.1-0.1,0.5,0.1,0.4c1.8-0.7,8.1-5,8.8-4.6
					c1.2,0.7-0.5,14.2-1,16c-1.1,3.8-3.2,5.4-6.7,6.8c-2.3,0.9-2,0.8-2-1.7c0.1-5.6,0.9-11.1,0.7-16.8
					C108.5,47.5,108.1,47.5,108.1,47.7L108.1,47.7z"/>
			</g>
		</g>
		<g>
			<g>
				<path d="M131.8,35.7c0.3,6.9-0.2,13.6-1.3,20.4c0,0.2,0.1,0.3,0.3,0.2c2.9-1.9,8.3-3,9.5-6.5c0.8-2.5,0.5-5.7,0.8-8.3
					c0.3-3.9,0.7-7.8,1-11.7c0-0.2-0.2-0.2-0.3-0.1c-2.9,2.8-5.8,4.6-9.5,6c-0.2,0.1-0.1,0.5,0.1,0.4c1.8-0.7,8.1-5,8.8-4.6
					c1.2,0.7-0.5,14.2-1,16c-1.1,3.8-3.2,5.4-6.7,6.8c-2.3,0.9-2,0.8-2-1.7c0.1-5.6,0.9-11.1,0.7-16.8
					C132.2,35.5,131.8,35.5,131.8,35.7L131.8,35.7z"/>
			</g>
		</g>
		<g>
			<g>
				<path d="M106.2,84.5c0.3,6.9-0.2,13.6-1.3,20.4c0,0.2,0.1,0.3,0.3,0.2c2.9-1.9,8.3-3,9.5-6.5c0.8-2.5,0.5-5.7,0.8-8.3
					c0.3-3.9,0.7-7.8,1-11.7c0-0.2-0.2-0.2-0.3-0.1c-2.9,2.8-5.8,4.6-9.5,6c-0.2,0.1-0.1,0.5,0.1,0.4c1.8-0.7,8.1-5,8.8-4.6
					c1.2,0.7-0.5,14.2-1,16c-1.1,3.8-3.2,5.4-6.7,6.8c-2.3,0.9-2,0.8-2-1.7c0.1-5.6,0.9-11.1,0.7-16.8
					C106.6,84.3,106.2,84.3,106.2,84.5L106.2,84.5z"/>
			</g>
		</g>
		<g>
			<g>
				<path d="M129.9,72.5c0.3,6.9-0.2,13.6-1.3,20.4c0,0.2,0.1,0.3,0.3,0.2c2.9-1.9,8.3-3,9.5-6.5c0.8-2.5,0.5-5.7,0.8-8.3
					c0.3-3.9,0.7-7.8,1-11.7c0-0.2-0.2-0.2-0.3-0.1c-2.9,2.8-5.8,4.6-9.5,6c-0.2,0.1-0.1,0.5,0.1,0.4c1.8-0.7,8.1-5,8.8-4.6
					c1.2,0.7-0.5,14.2-1,16c-1.1,3.8-3.2,5.4-6.7,6.8c-2.3,0.9-2,0.8-2-1.7c0.1-5.6,0.9-11.1,0.7-16.8
					C130.2,72.3,129.9,72.3,129.9,72.5L129.9,72.5z"/>
			</g>
		</g>
		<g>
			<g>
				<path d="M104.9,116.9c0.3,6.9-0.2,13.6-1.3,20.4c0,0.2,0.1,0.3,0.3,0.2c2.9-1.9,8.3-3,9.5-6.5c0.8-2.5,0.5-5.7,0.8-8.3
					c0.3-3.9,0.7-7.8,1-11.7c0-0.2-0.2-0.2-0.3-0.1c-2.9,2.8-5.8,4.6-9.5,6c-0.2,0.1-0.1,0.5,0.1,0.4c1.8-0.7,8.1-5,8.8-4.6
					c1.2,0.7-0.5,14.2-1,16c-1.1,3.8-3.2,5.4-6.7,6.8c-2.3,0.9-2,0.8-2-1.7c0.1-5.6,0.9-11.1,0.7-16.8
					C105.3,116.6,104.9,116.6,104.9,116.9L104.9,116.9z"/>
			</g>
		</g>
		<g>
			<g>
				<path d="M128.5,104.9c0.3,6.9-0.2,13.6-1.3,20.4c0,0.2,0.1,0.3,0.3,0.2c2.9-1.9,8.3-3,9.5-6.5c0.8-2.5,0.5-5.7,0.8-8.3
					c0.3-3.9,0.7-7.8,1-11.7c0-0.2-0.2-0.2-0.3-0.1c-2.9,2.8-5.8,4.6-9.5,6c-0.2,0.1-0.1,0.5,0.1,0.4c1.8-0.7,8.1-5,8.8-4.6
					c1.2,0.7-0.5,14.2-1,16c-1.1,3.8-3.2,5.4-6.7,6.8c-2.3,0.9-2,0.8-2-1.7c0.1-5.6,0.9-11.1,0.7-16.8
					C128.9,104.6,128.5,104.6,128.5,104.9L128.5,104.9z"/>
			</g>
		</g>
		<g>
			<g>
				<path d="M21.1,144.2c10.4,3.8,20.7,8,31.3,11.3c10.7,3.3,22.4,4.6,33.5,6.2c3.9,0.6,7.7,0.9,11.4-0.6c4.6-1.9,8.8-5.2,13.1-7.6
					c9.9-5.7,20.2-10.4,30.9-14.4c2.7-1,1.5-5.3-1.2-4.3c-9,3.3-17.9,7.2-26.4,11.7c-4.6,2.4-9,5.1-13.4,7.8
					c-1.9,1.2-3.9,2.6-6.1,3.1c-3.5,0.9-7.4-0.1-10.8-0.7c-10.2-1.7-20.7-2.7-30.6-5.9c-10.3-3.3-20.4-7.3-30.5-11
					C19.5,138.9,18.4,143.3,21.1,144.2L21.1,144.2z"/>
			</g>
		</g>
		<g>
			<path d="M64.5,48.5c0.9,1.4,1,3,1.1,4.6c0,0.7-0.5,1-1.1,0.7c-1.4-0.7-2.8-1.4-3.7-2.9 M60.7,50.9c-3.7-5.7-7.4-11.4-11.1-17.1
				c-0.4-0.7-0.9-1.4-1.5-1.8c-0.7-0.4-1.6-0.7-2.4-0.7c-1.2,0-2.3,0-3-1.1C42.1,29.1,42.4,28,43,27c1.8-2.8,4.3-4.6,7.6-4.7
				c1.6-0.1,2.6,1.2,2.3,3c-0.1,0.2-0.1,0.5-0.3,0.8c-1,1.6-0.7,3.1,0.2,4.5c1.2,1.9,2.4,3.7,3.6,5.6c2.7,4.1,5.3,8.2,8,12.3
				 M48.7,30.2c1,1.4,2.1,2.8,3,4.2c3.4,5.2,6.8,10.5,10.2,15.7c0.5,0.7,1.2,1.2,1.8,1.8c0.1-0.1,0.3-0.2,0.4-0.3
				c-0.3-0.8-0.6-1.7-1-2.4c-4.2-6.7-8.8-13.2-12.8-20.1C49.9,29.4,49.3,29.8,48.7,30.2z M46,26c1.4,0.1,2.8,0.2,4.3,0.2
				c0.8,0,1.4-0.7,1.3-1.6c-0.1-0.9-0.7-0.9-1.4-0.9C48.6,23.8,47.3,24.7,46,26z M49.7,27.6c-1.7-0.1-3.2-0.1-4.6-0.2
				c-1.1-0.1-1.2,0.8-1.3,1.5c-0.1,0.9,0.6,1,1.3,1C46.8,29.7,48.3,28.9,49.7,27.6z"/>
			<path class="st0" d="M63.2,49.2c0.5,0.7,0.7,1.6,1,2.4c-0.1,0.1-0.3,0.2-0.4,0.3c-0.6-0.6-1.3-1.1-1.8-1.8"/>
			<path class="st0" d="M62,50.1c-3.4-5.2-6.8-10.5-10.2-15.7c-0.9-1.4-2-2.8-3-4.2c0.5-0.4,1.2-0.8,1.7-1.1
				c4,6.8,8.6,13.3,12.8,20.1"/>
			<path class="st0" d="M46,26c1.2-1.3,2.6-2.1,4.2-2.2c0.7,0,1.3,0,1.4,0.9c0.1,0.8-0.6,1.6-1.3,1.6C48.9,26.1,47.5,26,46,26z"/>
			<path class="st0" d="M49.7,27.6c-1.5,1.3-2.9,2.1-4.7,2.3c-0.7,0.1-1.4-0.1-1.3-1c0.1-0.7,0.2-1.6,1.3-1.5
				C46.6,27.5,48,27.5,49.7,27.6z"/>
		</g>
		<g class="st3">
			<path class="st4" d="M77.1,18.9c-6.2-6.7-15.8-10-24.9-8.7S35,17.6,30.8,25.7S26.3,43.8,30,52.2c1.1,2.5,2.6,4.9,4.5,6.9
				c2.6,2.5,5.9,4.2,9.3,5.3c5.7,1.8,11.9,2.1,17.8,0.8c4.2-0.9,8.3-2.6,11.6-5.2c7-5.6,10-14.9,10.2-23.9c0.1-7.3-2-15.5-8.4-19.2"
				/>
		</g>
		<path class="st5" d="M69.3,60.8c-4.5,0-39.8-13.1-39.8-13.1"/>
		<g>
			<g>
				<path class="st6" d="M78,17.8c-19.5-20-53.2-4.8-52.6,22.7c0.3,14.2,9,24.8,23.1,26.8c13.5,2,27.6-3.5,33.2-16.4
					c4.8-11.1,5.1-28.1-6.2-35.4c-1.8-1.2-3.5,1.7-1.7,2.9c11,7.1,8.9,25.8,2.5,35.3c-8.5,12.6-31.8,14.9-41.9,3.1
					c-9.4-11-6.7-29.1,3.9-38.3c11-9.5,27.2-8.7,37.3,1.7C77.1,21.7,79.5,19.3,78,17.8L78,17.8z"/>
			</g>
		</g>
	</g>
</g>
</svg>
