<?xml version="1.0" encoding="utf-8"?>
<!-- Generator: Adobe Illustrator 21.0.2, SVG Export Plug-In . SVG Version: 6.00 Build 0)  -->
<svg version="1.1" xmlns="http://www.w3.org/2000/svg" xmlns:xlink="http://www.w3.org/1999/xlink" x="0px" y="0px"
	 viewBox="0 0 166 166" style="enable-background:new 0 0 166 166;" xml:space="preserve">
<style type="text/css">
	.st0{fill:#FFFFFF;}
	.st1{fill:#1A1A1A;}
	.st2{fill:none;stroke:#1A1A1A;stroke-width:0.8085;stroke-miterlimit:10;}
	.st3{fill:#0071BC;}
	.st4{fill:#0000FF;}
	.st5{fill:none;stroke:#000000;stroke-width:3.2338;stroke-linecap:round;stroke-miterlimit:10;}
	.st6{fill:none;stroke:#000000;stroke-width:3.0012;stroke-linecap:round;stroke-miterlimit:10;}
	.st7{fill:none;stroke:#000000;stroke-width:3.1187;stroke-linecap:round;stroke-miterlimit:10;}
	.st8{fill:none;stroke:#000000;stroke-width:3.1463;stroke-linecap:round;stroke-miterlimit:10;}
</style>
<g id="Layer_3">
	<path class="st0" d="M83.9,119.8c-5.8,0-5.8,9,0,9C89.7,128.8,89.7,119.8,83.9,119.8z"/>
	<path class="st0" d="M97.6,119.8c-5.8,0-5.8,9,0,9C103.4,128.8,103.4,119.8,97.6,119.8z"/>
	<path class="st0" d="M70.8,119.8c-5.8,0-5.8,9,0,9C76.5,128.8,76.6,119.8,70.8,119.8z"/>
	<path class="st0" d="M104.1,29.1c-0.1-0.1-0.2-0.2-0.2-0.3c-0.1-2.2-1.5-4.3-4.3-4.3c-0.6,0-1.1,0.1-1.5,0.3
		c-2.3-1.5-6-1.2-7.2,2.3c-4.9,14.8-11.3,29.2-17.1,43.7C67.9,85,62.1,99.4,56,113.6c-2.3,5.3,5.5,9.8,7.8,4.5
		c0.6-1.4,1.2-2.8,1.8-4.2c0.8-0.3,1.6-1,2.1-2c5.8-10.8,10.2-22.2,13.2-34c0,0,0-0.1,0-0.1c1.1-1,1.5-2.6,1.3-4.1
		c1.6-3.9,3.2-7.8,4.8-11.7c1.8-0.7,2.7-2.4,2.7-4.2c0.3-0.3,0.5-0.7,0.7-1.1c1.7-3.8,4.1-7.2,6.5-10.6c1.1-1.6,2.1-3.3,3-5
		c0.7-1.4,1.3-4.9,2.6-5.8C104.3,34,105.6,31.2,104.1,29.1z"/>
	<path class="st0" d="M32.3,74.3c0.2-4.5,0.7-7.9-0.7-11.9c0.9-5,1.2-10,0.6-15.2c-0.1-0.8-0.4-1.6-0.9-2.3c0.2-2.2,0.4-4.5,0.6-6.7
		c0.1-0.7,0-1.3-0.2-1.8c0.1-0.2,0.1-0.4,0.2-0.6c0.5-2,0.4-4.2,0.5-6.3c0.1-1.5,0.4-3.1-0.2-4.6c-1.7-3.9-5.8-3-9-2.6
		c-1.7,0.2-3.6-0.3-5.4-0.5c-2.4-0.2-4.8-0.1-7.2,0c-0.6,0-1.2,0.2-1.7,0.4C6,20.8,1.8,22,2.2,26c1.2,12.3,1.1,24.6,1.1,37
		c0,6.3,0.1,12.6,0.2,18.9c0.1,3.3-0.5,7.9,0.8,11.2c-0.3,0.6-0.4,1.2-0.4,2c0.7,16.8,2.1,33.6,1,50.4c-0.3,4.1,4.2,5.3,6.9,3.6
		c0.5,0.1,1,0.2,1.6,0.2c6-0.4,16.7,1.2,18.3-6.6c0.9-4.5,0.6-9.7,0.6-14.3c0-3.4,0.4-7.2-0.7-10.5c0.1-6.3,0.2-12.6,0.3-18.9
		c0-2.4,0.2-5,0-7.5c0.2-0.3,0.3-0.6,0.3-0.9C33.1,85,32,79.8,32.3,74.3z"/>
</g>
<g id="Layer_2">
	<g>
		<g>
			<circle class="st1" cx="57.8" cy="124.2" r="4.3"/>
			<circle class="st2" cx="70.9" cy="124.2" r="4.3"/>
			<circle class="st2" cx="83.9" cy="124.2" r="4.3"/>
			<circle class="st2" cx="97.5" cy="124.2" r="4.3"/>
		</g>
		<g>
			<g>
				<path d="M2.4,22.8c8.4,0.5,16.8,0.6,25.2-0.1c2.3-0.2,3.2-0.6,3.8,1.7c0.5,1.9,0,4.9,0,6.9c0,4.6,0,9.2,0,13.8
					c0,17.5,0.1,34.9,0.1,52.4c0,8.9,0,17.8,0,26.7c0,4,0,7.9,0,11.9c0,2,0.5,4.9,0,6.9c-1,4-4,4.8-7.5,4.9
					c-4.2,0.2-8.4,0.3-12.5,0.5c-1.3,0-5,0.7-5.6-0.2c-0.4-0.6-0.1-2.6-0.1-3.3c-0.7-29.7-1.3-59.4-2-89.1
					C3.7,45.5,3.4,35.3,3.2,25.1c0-1.1-1.7-1.1-1.7,0c0.6,25.8,1.2,51.6,1.7,77.5c0.3,13.6,0.6,27.2,0.9,40.7c0,2-0.6,4.9,1,6.2
					c1.8,1.4,5.3,0.5,7.3,0.5c4.5-0.2,9-0.3,13.5-0.5c5.1-0.2,7.2-1.1,7.3-6.5c0.4-40.5-0.1-81-0.2-121.5c0-0.4-0.4-0.9-0.8-0.8
					c-10,1-19.9,1.2-29.9,0.6C1.3,21.1,1.3,22.8,2.4,22.8L2.4,22.8z"/>
			</g>
		</g>
		<g>
			<g>
				<path d="M8.5,46.6c3.6-0.4,7.2-0.5,10.8-0.4c1.1,0.1,1.1-1.6,0-1.7c-3.6-0.2-7.2-0.1-10.8,0.4C7.4,45,7.4,46.7,8.5,46.6
					L8.5,46.6z"/>
			</g>
		</g>
		<g>
			<g>
				<path d="M8.9,64.8c3.4-0.7,6.8-0.8,10.2-0.6c1.1,0.1,1.1-1.6,0-1.7c-3.6-0.3-7.1,0-10.6,0.6C7.4,63.4,7.8,65,8.9,64.8L8.9,64.8z
					"/>
			</g>
		</g>
		<g>
			<g>
				<path d="M9.4,83.9C13,84.1,16.5,84,20,83.4c1.1-0.2,0.6-1.8-0.4-1.6c-3.4,0.5-6.8,0.6-10.2,0.4C8.4,82.1,8.4,83.8,9.4,83.9
					L9.4,83.9z"/>
			</g>
		</g>
		<g>
			<g>
				<path d="M11.3,101c3.6,0.3,7.2,0.4,10.8,0.2c1.1-0.1,1.1-1.7,0-1.7c-3.6,0.2-7.2,0.1-10.8-0.2C10.2,99.3,10.2,100.9,11.3,101
					L11.3,101z"/>
			</g>
		</g>
		<g>
			<g>
				<path d="M10.2,118.5c3.7-0.4,7.4-0.9,11.1-1.3c1.1-0.1,1.1-1.8,0-1.7c-3.7,0.4-7.4,0.9-11.1,1.3C9.1,117,9.1,118.6,10.2,118.5
					L10.2,118.5z"/>
			</g>
		</g>
		<g>
			<g>
				<path d="M10.3,131.4c3.2,0.6,6.3,0.8,9.5,0.7c1.1-0.1,1.1-1.7,0-1.7c-3.1,0.2-6.1,0-9.1-0.6C9.7,129.6,9.2,131.2,10.3,131.4
					L10.3,131.4z"/>
			</g>
		</g>
		<g>
			<g>
				<path d="M8.7,144.7c4,0,7.9,0,11.9,0c1.1,0,1.1-1.7,0-1.7c-4,0-7.9,0-11.9,0C7.6,143,7.6,144.7,8.7,144.7L8.7,144.7z"/>
			</g>
		</g>
		<g>
			<g>
				<path d="M90.8,25.8C83.7,43,76.6,60.2,69.4,77.5c-3.6,8.6-7.3,17.1-10.4,25.9c-1.3,3.8-6.1,12.9-2.9,16.9
					c6.4,8.2,17.6-18.7,19.1-22.3C81.4,82.8,85.5,67,93.7,52.6c2.4-4.1,4.9-8.2,7.3-12.3c1.6-2.6,5-6.8,5.4-9.9
					c0.6-5.1-10.4-7.2-13.8-7.9c-1-0.2-1.5,1.4-0.4,1.6c3.4,0.7,12.7,2.2,12.3,6.8c-0.1,1.4-1.9,3.5-2.6,4.7
					c-1.2,2.1-2.4,4.1-3.6,6.1c-4.2,7-8.5,14-11.8,21.5c-6.4,14.6-9.9,30.3-17.5,44.4c-1.4,2.7-4.3,9.1-6.9,10.6
					c-7.6,4.1-4.1-5.6-3.6-7.3c0.5-1.8,1.1-3.6,1.7-5.5c3.1-9.1,6.9-17.9,10.6-26.8c7.3-17.5,14.5-35,21.8-52.5
					C92.8,25.3,91.2,24.9,90.8,25.8L90.8,25.8z"/>
			</g>
		</g>
		<g>
			<g>
				<path d="M54.4,120.5c-0.3,3.3-0.3,6.5,0,9.7c0.1,0.6,0.7,1.1,1.3,0.7c3.4-2.5,5.7-5.9,6.9-10c0.3-1-1.3-1.5-1.6-0.4
					c-1,3.6-3.1,6.7-6.1,9c0.4,0.2,0.8,0.5,1.3,0.7c-0.3-3.3-0.3-6.5,0-9.7C56.2,119.4,54.6,119.4,54.4,120.5L54.4,120.5z"/>
			</g>
		</g>
		<g>
			<g>
				<path d="M103.6,35.9c4.5,2.5,1.8,6.6-0.3,9.7c-1.8,2.7-3.4,5.4-4.9,8.3c-2.7,5.3-4.9,10.8-6.6,16.5c-0.3,1,1.3,1.5,1.6,0.4
					c2.7-9,6.6-17.3,11.8-25.1c1.2-1.9,3.4-4.3,3.6-6.7c0.2-2.8-2.2-3.3-4.4-4.6C103.5,33.9,102.6,35.4,103.6,35.9L103.6,35.9z"/>
			</g>
		</g>
		<g>
			<path class="st3" d="M96.1,23.2c2.1-2.4,3.6-5.3,4.2-8.4c0.1-0.4,0.2-1,0.6-1.2c0.4-0.2,0.8,0,1.2,0.1c1.5,0.6,3,1.2,4.5,1.8
				c0.2,0.1,0.5,0.2,0.6,0.5c0.1,0.3,0,0.6-0.1,0.8c-1.4,2.9-3.1,5.6-5,8.2"/>
			<g>
				<path d="M96.6,23.8c1.2-1.3,2.2-2.8,3-4.4c0.3-0.7,0.7-1.5,0.9-2.2c0.4-1.1,0.3-2.5,1.7-2.4c0.7,0.1,2.4,0.8,3,1.2
					c1.2,0.9,0.4,1.9-0.2,3c-1.1,2-2.3,3.9-3.7,5.7c-0.6,0.9,0.8,1.7,1.4,0.8c1.8-2.5,4.1-5.4,5-8.4c0.7-2.1-1.3-2.4-2.9-3.1
					c-1.7-0.7-4.1-2.3-5.2-0.1c-0.5,1-0.6,2.4-1,3.5c-0.8,1.9-1.9,3.6-3.2,5.2C94.8,23.4,95.9,24.6,96.6,23.8L96.6,23.8z"/>
			</g>
		</g>
		<g>
			<g>
				<path class="st3" d="M53.5,133.3c0.1,0.5,0.2,1,0.4,1.5c0.3,1,1.9,0.6,1.6-0.4c-0.1-0.5-0.2-1-0.4-1.5
					C54.8,131.8,53.2,132.3,53.5,133.3L53.5,133.3z"/>
			</g>
		</g>
		<g>
			<path class="st4" d="M54.3,137.2"/>
			<g>
				<path class="st3" d="M54.3,138c1.1,0,1.1-1.7,0-1.7C53.2,136.4,53.2,138,54.3,138L54.3,138z"/>
			</g>
		</g>
		<g>
			<path class="st4" d="M54.7,141.6"/>
			<g>
				<path class="st3" d="M54.7,142.5c1.1,0,1.1-1.7,0-1.7C53.6,140.8,53.6,142.5,54.7,142.5L54.7,142.5z"/>
			</g>
		</g>
		<g>
			<path class="st4" d="M55.4,144.6"/>
			<g>
				<path class="st3" d="M55.4,145.4c1.1,0,1.1-1.7,0-1.7C54.4,143.8,54.4,145.4,55.4,145.4L55.4,145.4z"/>
			</g>
		</g>
		<g>
			<path class="st4" d="M61.4,143.9"/>
			<g>
				<path class="st3" d="M61.4,144.7c1.1,0,1.1-1.7,0-1.7C60.3,143,60.3,144.7,61.4,144.7L61.4,144.7z"/>
			</g>
		</g>
		<g>
			<path class="st4" d="M65.1,144.6"/>
			<g>
				<path class="st3" d="M65.1,145.4c1.1,0,1.1-1.7,0-1.7C64,143.8,64,145.4,65.1,145.4L65.1,145.4z"/>
			</g>
		</g>
		<g>
			<path class="st4" d="M69.2,144.2"/>
			<g>
				<path class="st3" d="M69.2,145.1c1.1,0,1.1-1.7,0-1.7C68.1,143.4,68.1,145.1,69.2,145.1L69.2,145.1z"/>
			</g>
		</g>
		<g>
			<path class="st4" d="M71.7,144.2"/>
			<g>
				<path class="st3" d="M71.7,145.1c1.1,0,1.1-1.7,0-1.7C70.7,143.4,70.7,145.1,71.7,145.1L71.7,145.1z"/>
			</g>
		</g>
		<g>
			<path class="st4" d="M75.5,144.2c0.1,0,0.2,0,0.4,0"/>
			<g>
				<path class="st3" d="M75.5,145.1c0.1,0,0.2,0,0.4,0c1.1,0,1.1-1.7,0-1.7c-0.1,0-0.2,0-0.4,0C74.4,143.4,74.4,145.1,75.5,145.1
					L75.5,145.1z"/>
			</g>
		</g>
		<g>
			<path class="st4" d="M79.9,144.6"/>
			<g>
				<path class="st3" d="M79.9,145.4c1.1,0,1.1-1.7,0-1.7C78.8,143.8,78.8,145.4,79.9,145.4L79.9,145.4z"/>
			</g>
		</g>
		<g>
			<path class="st4" d="M84.7,145"/>
			<g>
				<path class="st3" d="M84.7,145.8c1.1,0,1.1-1.7,0-1.7C83.7,144.1,83.7,145.8,84.7,145.8L84.7,145.8z"/>
			</g>
		</g>
		<g>
			<path class="st4" d="M92.2,144.6"/>
			<g>
				<path class="st3" d="M92.2,145.4c1.1,0,1.1-1.7,0-1.7C91.1,143.8,91.1,145.4,92.2,145.4L92.2,145.4z"/>
			</g>
		</g>
		<g>
			<path class="st4" d="M95.5,144.6"/>
			<g>
				<path class="st3" d="M95.5,145.4c1.1,0,1.1-1.7,0-1.7C94.4,143.8,94.4,145.4,95.5,145.4L95.5,145.4z"/>
			</g>
		</g>
		<g>
			<path class="st4" d="M99.6,145.3"/>
			<g>
				<path class="st3" d="M99.6,146.2c1.1,0,1.1-1.7,0-1.7C98.5,144.5,98.5,146.2,99.6,146.2L99.6,146.2z"/>
			</g>
		</g>
		<g>
			<path class="st4" d="M103.3,144.6"/>
			<g>
				<path class="st3" d="M103.3,145.4c1.1,0,1.1-1.7,0-1.7C102.2,143.8,102.2,145.4,103.3,145.4L103.3,145.4z"/>
			</g>
		</g>
		<g>
			<path class="st4" d="M106.2,145.3"/>
			<g>
				<path class="st3" d="M106.2,146.2c1.1,0,1.1-1.7,0-1.7C105.2,144.5,105.2,146.2,106.2,146.2L106.2,146.2z"/>
			</g>
		</g>
		<g>
			<path class="st4" d="M109.6,145"/>
			<g>
				<path class="st3" d="M109.6,145.8c1.1,0,1.1-1.7,0-1.7C108.5,144.1,108.5,145.8,109.6,145.8L109.6,145.8z"/>
			</g>
		</g>
		<g>
			<path class="st4" d="M112.2,145.3"/>
			<g>
				<path class="st3" d="M112.2,146.2c1.1,0,1.1-1.7,0-1.7C111.1,144.5,111.1,146.2,112.2,146.2L112.2,146.2z"/>
			</g>
		</g>
		<g>
			<path class="st4" d="M114.8,145.3"/>
			<g>
				<path class="st3" d="M114.8,146.2c1.1,0,1.1-1.7,0-1.7C113.7,144.5,113.7,146.2,114.8,146.2L114.8,146.2z"/>
			</g>
		</g>
		<g>
			<path class="st4" d="M117.7,145.7"/>
			<g>
				<path class="st3" d="M117.7,146.6c1.1,0,1.1-1.7,0-1.7C116.7,144.9,116.7,146.6,117.7,146.6L117.7,146.6z"/>
			</g>
		</g>
		<g>
			<path class="st4" d="M122.6,146.1"/>
			<g>
				<path class="st3" d="M122.6,146.9c1.1,0,1.1-1.7,0-1.7C121.5,145.3,121.5,146.9,122.6,146.9L122.6,146.9z"/>
			</g>
		</g>
		<g>
			<path class="st4" d="M129.2,147.2"/>
			<g>
				<path class="st3" d="M129.2,148c1.1,0,1.1-1.7,0-1.7C128.2,146.4,128.2,148,129.2,148L129.2,148z"/>
			</g>
		</g>
		<g>
			<path class="st4" d="M132.2,147.2"/>
			<g>
				<path class="st3" d="M132.2,148c1.1,0,1.1-1.7,0-1.7C131.1,146.4,131.1,148,132.2,148L132.2,148z"/>
			</g>
		</g>
		<g>
			<path class="st4" d="M137.8,147.2"/>
			<g>
				<path class="st3" d="M137.8,148c1.1,0,1.1-1.7,0-1.7C136.7,146.4,136.7,148,137.8,148L137.8,148z"/>
			</g>
		</g>
		<g>
			<path class="st4" d="M141.1,147.6"/>
			<g>
				<path class="st3" d="M141.1,148.4c1.1,0,1.1-1.7,0-1.7C140,146.7,140,148.4,141.1,148.4L141.1,148.4z"/>
			</g>
		</g>
		<g>
			<path class="st4" d="M145.9,147.9"/>
			<g>
				<path class="st3" d="M145.9,148.8c1.1,0,1.1-1.7,0-1.7C144.9,147.1,144.9,148.8,145.9,148.8L145.9,148.8z"/>
			</g>
		</g>
		<g>
			<path class="st4" d="M150.4,147.9"/>
			<g>
				<path class="st3" d="M150.4,148.8c1.1,0,1.1-1.7,0-1.7C149.3,147.1,149.3,148.8,150.4,148.8L150.4,148.8z"/>
			</g>
		</g>
		<g>
			<path class="st4" d="M156,147.9"/>
			<g>
				<path class="st3" d="M156,148.8c1.1,0,1.1-1.7,0-1.7C154.9,147.1,154.9,148.8,156,148.8L156,148.8z"/>
			</g>
		</g>
		<g>
			<path class="st4" d="M159.3,148.3"/>
			<g>
				<path class="st3" d="M159.3,149.1c1.1,0,1.1-1.7,0-1.7C158.2,147.5,158.2,149.1,159.3,149.1L159.3,149.1z"/>
			</g>
		</g>
		<g>
			<path class="st4" d="M159.3,145.7"/>
			<g>
				<path class="st3" d="M159.3,146.6c1.1,0,1.1-1.7,0-1.7C158.2,144.9,158.2,146.6,159.3,146.6L159.3,146.6z"/>
			</g>
		</g>
		<g>
			<path class="st4" d="M158.9,142"/>
			<g>
				<path class="st3" d="M158.9,142.8c1.1,0,1.1-1.7,0-1.7C157.8,141.2,157.8,142.8,158.9,142.8L158.9,142.8z"/>
			</g>
		</g>
		<g>
			<path class="st4" d="M158.9,138.7"/>
			<g>
				<path class="st3" d="M158.9,139.5c1.1,0,1.1-1.7,0-1.7C157.8,137.8,157.8,139.5,158.9,139.5L158.9,139.5z"/>
			</g>
		</g>
		<g>
			<path class="st4" d="M158.9,135.7"/>
			<g>
				<path class="st3" d="M158.9,136.5c1.1,0,1.1-1.7,0-1.7C157.8,134.9,157.8,136.5,158.9,136.5L158.9,136.5z"/>
			</g>
		</g>
		<g>
			<path class="st4" d="M158.5,132.4"/>
			<g>
				<path class="st3" d="M158.5,133.2c1.1,0,1.1-1.7,0-1.7C157.5,131.5,157.5,133.2,158.5,133.2L158.5,133.2z"/>
			</g>
		</g>
		<g>
			<path class="st4" d="M159.7,129.4"/>
			<g>
				<path class="st3" d="M159.7,130.2c1.1,0,1.1-1.7,0-1.7C158.6,128.6,158.6,130.2,159.7,130.2L159.7,130.2z"/>
			</g>
		</g>
		<g>
			<path class="st4" d="M159.7,126.4"/>
			<g>
				<path class="st3" d="M159.7,127.3c1.1,0,1.1-1.7,0-1.7C158.6,125.6,158.6,127.3,159.7,127.3L159.7,127.3z"/>
			</g>
		</g>
		<g>
			<path class="st4" d="M160,123.5"/>
			<g>
				<path class="st3" d="M160,124.3c1.1,0,1.1-1.7,0-1.7C159,122.6,159,124.3,160,124.3L160,124.3z"/>
			</g>
		</g>
		<g>
			<path class="st4" d="M160.4,120.1"/>
			<g>
				<path class="st3" d="M160.4,121c1.1,0,1.1-1.7,0-1.7C159.3,119.3,159.3,121,160.4,121L160.4,121z"/>
			</g>
		</g>
		<g>
			<path class="st4" d="M160.4,116.4"/>
			<g>
				<path class="st3" d="M160.4,117.2c1.1,0,1.1-1.7,0-1.7C159.3,115.6,159.3,117.2,160.4,117.2L160.4,117.2z"/>
			</g>
		</g>
		<g>
			<path class="st4" d="M160.8,113.4"/>
			<g>
				<path class="st3" d="M160.8,114.3c1.1,0,1.1-1.7,0-1.7C159.7,112.6,159.7,114.3,160.8,114.3L160.8,114.3z"/>
			</g>
		</g>
		<g>
			<path class="st4" d="M160.8,110.8"/>
			<g>
				<path class="st3" d="M160.8,111.7c1.1,0,1.1-1.7,0-1.7C159.7,110,159.7,111.7,160.8,111.7L160.8,111.7z"/>
			</g>
		</g>
		<g>
			<path class="st4" d="M161.9,105.3"/>
			<g>
				<path class="st3" d="M161.9,106.1c1.1,0,1.1-1.7,0-1.7C160.8,104.4,160.8,106.1,161.9,106.1L161.9,106.1z"/>
			</g>
		</g>
		<g>
			<path class="st4" d="M161.5,99.3c0-0.5,0-1,0-1.5"/>
			<g>
				<path class="st3" d="M162.4,99.3c0-0.5,0-1,0-1.5c0-1.1-1.7-1.1-1.7,0c0,0.5,0,1,0,1.5C160.7,100.4,162.4,100.4,162.4,99.3
					L162.4,99.3z"/>
			</g>
		</g>
		<g>
			<path class="st4" d="M161.5,95.6"/>
			<g>
				<path class="st3" d="M161.5,96.5c1.1,0,1.1-1.7,0-1.7C160.4,94.8,160.4,96.5,161.5,96.5L161.5,96.5z"/>
			</g>
		</g>
		<g>
			<path class="st4" d="M161.5,93.4"/>
			<g>
				<path class="st3" d="M161.5,94.2c1.1,0,1.1-1.7,0-1.7C160.4,92.6,160.4,94.2,161.5,94.2L161.5,94.2z"/>
			</g>
		</g>
		<g>
			<path class="st4" d="M161.1,91.9"/>
			<g>
				<path class="st3" d="M161.1,92.8c1.1,0,1.1-1.7,0-1.7C160.1,91.1,160.1,92.8,161.1,92.8L161.1,92.8z"/>
			</g>
		</g>
		<g>
			<path class="st4" d="M162.3,86.7"/>
			<g>
				<path class="st3" d="M162.3,87.6c1.1,0,1.1-1.7,0-1.7C161.2,85.9,161.2,87.6,162.3,87.6L162.3,87.6z"/>
			</g>
		</g>
		<g>
			<path class="st4" d="M162.3,82.3"/>
			<g>
				<path class="st3" d="M162.3,83.1c1.1,0,1.1-1.7,0-1.7C161.2,81.5,161.2,83.1,162.3,83.1L162.3,83.1z"/>
			</g>
		</g>
		<g>
			<path class="st4" d="M162.6,78.2"/>
			<g>
				<path class="st3" d="M162.6,79c1.1,0,1.1-1.7,0-1.7C161.6,77.4,161.6,79,162.6,79L162.6,79z"/>
			</g>
		</g>
		<g>
			<path class="st4" d="M163,73.8"/>
			<g>
				<path class="st3" d="M163,74.6c1.1,0,1.1-1.7,0-1.7C161.9,72.9,161.9,74.6,163,74.6L163,74.6z"/>
			</g>
		</g>
		<g>
			<path class="st4" d="M161.9,70"/>
			<g>
				<path class="st3" d="M161.9,70.9c1.1,0,1.1-1.7,0-1.7C160.8,69.2,160.8,70.9,161.9,70.9L161.9,70.9z"/>
			</g>
		</g>
		<g>
			<path class="st4" d="M161.9,68.2"/>
			<g>
				<path class="st3" d="M161.9,69c1.1,0,1.1-1.7,0-1.7C160.8,67.4,160.8,69,161.9,69L161.9,69z"/>
			</g>
		</g>
		<g>
			<path class="st4" d="M161.9,64.9"/>
			<g>
				<path class="st3" d="M161.9,65.7c1.1,0,1.1-1.7,0-1.7C160.8,64,160.8,65.7,161.9,65.7L161.9,65.7z"/>
			</g>
		</g>
		<g>
			<path class="st4" d="M161.9,61.1"/>
			<g>
				<path class="st3" d="M161.9,62c1.1,0,1.1-1.7,0-1.7C160.8,60.3,160.8,62,161.9,62L161.9,62z"/>
			</g>
		</g>
		<g>
			<path class="st4" d="M161.9,59.3"/>
			<g>
				<path class="st3" d="M161.9,60.1c1.1,0,1.1-1.7,0-1.7C160.8,58.5,160.8,60.1,161.9,60.1L161.9,60.1z"/>
			</g>
		</g>
		<g>
			<path class="st4" d="M161.5,55.9"/>
			<g>
				<path class="st3" d="M161.5,56.8c1.1,0,1.1-1.7,0-1.7C160.4,55.1,160.4,56.8,161.5,56.8L161.5,56.8z"/>
			</g>
		</g>
		<g>
			<path class="st4" d="M161.1,53"/>
			<g>
				<path class="st3" d="M161.1,53.8c1.1,0,1.1-1.7,0-1.7C160.1,52.1,160.1,53.8,161.1,53.8L161.1,53.8z"/>
			</g>
		</g>
		<g>
			<path class="st4" d="M160.8,49.3"/>
			<g>
				<path class="st3" d="M160.8,50.1c1.1,0,1.1-1.7,0-1.7C159.7,48.4,159.7,50.1,160.8,50.1L160.8,50.1z"/>
			</g>
		</g>
		<g>
			<path class="st4" d="M160.8,46.3"/>
			<g>
				<path class="st3" d="M160.8,47.1c1.1,0,1.1-1.7,0-1.7C159.7,45.5,159.7,47.1,160.8,47.1L160.8,47.1z"/>
			</g>
		</g>
		<g>
			<path class="st4" d="M161.5,41.5"/>
			<g>
				<path class="st3" d="M161.5,42.3c1.1,0,1.1-1.7,0-1.7C160.4,40.6,160.4,42.3,161.5,42.3L161.5,42.3z"/>
			</g>
		</g>
		<g>
			<path class="st4" d="M161.1,36.3"/>
			<g>
				<path class="st3" d="M161.1,37.1c1.1,0,1.1-1.7,0-1.7C160.1,35.5,160.1,37.1,161.1,37.1L161.1,37.1z"/>
			</g>
		</g>
		<g>
			<path class="st4" d="M161.1,31.8"/>
			<g>
				<path class="st3" d="M161.1,32.7c1.1,0,1.1-1.7,0-1.7C160.1,31,160.1,32.7,161.1,32.7L161.1,32.7z"/>
			</g>
		</g>
		<g>
			<path class="st4" d="M160.8,28.9"/>
			<g>
				<path class="st3" d="M160.8,29.7c1.1,0,1.1-1.7,0-1.7C159.7,28,159.7,29.7,160.8,29.7L160.8,29.7z"/>
			</g>
		</g>
		<g>
			<path class="st4" d="M161.5,22.9"/>
			<g>
				<path class="st3" d="M161.5,23.8c1.1,0,1.1-1.7,0-1.7C160.4,22.1,160.4,23.8,161.5,23.8L161.5,23.8z"/>
			</g>
		</g>
		<g>
			<g>
				<path d="M115.5,71.6c1.1,0,1.1-1.7,0-1.7C114.4,70,114.4,71.6,115.5,71.6L115.5,71.6z"/>
			</g>
		</g>
		<g>
			<g>
				<path d="M110.7,72.7c1.1,0,1.1-1.7,0-1.7C109.6,71.1,109.6,72.7,110.7,72.7L110.7,72.7z"/>
			</g>
		</g>
		<g>
			<g>
				<path d="M105.1,75c1.1,0,1.1-1.7,0-1.7C104.1,73.3,104.1,75,105.1,75L105.1,75z"/>
			</g>
		</g>
		<g>
			<g>
				<path d="M102.2,79.4c1.1,0,1.1-1.7,0-1.7C101.1,77.7,101.1,79.4,102.2,79.4L102.2,79.4z"/>
			</g>
		</g>
		<g>
			<g>
				<path d="M101.8,86.5c1.1,0,1.1-1.7,0-1.7C100.7,84.8,100.7,86.5,101.8,86.5L101.8,86.5z"/>
			</g>
		</g>
		<g>
			<g>
				<path d="M104,92.8c1.1,0,1.1-1.7,0-1.7C102.9,91.1,102.9,92.8,104,92.8L104,92.8z"/>
			</g>
		</g>
		<g>
			<g>
				<path d="M108.8,95.4c1.1,0,1.1-1.7,0-1.7C107.8,93.7,107.8,95.4,108.8,95.4L108.8,95.4z"/>
			</g>
		</g>
		<g>
			<g>
				<path d="M115.5,96.8c1.1,0,1.1-1.7,0-1.7C114.4,95.2,114.4,96.8,115.5,96.8L115.5,96.8z"/>
			</g>
		</g>
		<g>
			<g>
				<path d="M120.3,96.8c1.1,0,1.1-1.7,0-1.7C119.3,95.2,119.3,96.8,120.3,96.8L120.3,96.8z"/>
			</g>
		</g>
		<g>
			<g>
				<path d="M125.9,94.2c1.1,0,1.1-1.7,0-1.7C124.8,92.6,124.8,94.2,125.9,94.2L125.9,94.2z"/>
			</g>
		</g>
		<g>
			<g>
				<path d="M128.5,89.8c1.1,0,1.1-1.7,0-1.7C127.4,88.1,127.4,89.8,128.5,89.8L128.5,89.8z"/>
			</g>
		</g>
		<g>
			<g>
				<path d="M128.5,83.5c1.1,0,1.1-1.7,0-1.7C127.4,81.8,127.4,83.5,128.5,83.5L128.5,83.5z"/>
			</g>
		</g>
		<g>
			<g>
				<path d="M124.8,76.8c1.1,0,1.1-1.7,0-1.7C123.7,75.1,123.7,76.8,124.8,76.8L124.8,76.8z"/>
			</g>
		</g>
		<g>
			<g>
				<path d="M123.7,74.2c1.1,0,1.1-1.7,0-1.7C122.6,72.5,122.6,74.2,123.7,74.2L123.7,74.2z"/>
			</g>
		</g>
		<g>
			<g>
				<path d="M120.7,72.4c1.1,0,1.1-1.7,0-1.7C119.6,70.7,119.6,72.4,120.7,72.4L120.7,72.4z"/>
			</g>
		</g>
		<g>
			<g>
				<path d="M116.1,52.7c3.6,21.7-4.9,43.3-1.4,65c0,0.3,0.4,0.2,0.4-0.1c-3.5-21.7,5-43.3,1.4-65C116.4,52.3,116,52.4,116.1,52.7
					L116.1,52.7z"/>
			</g>
		</g>
		<g>
			<g>
				<path d="M90.7,83.8c17.6-3.1,35.3-1.9,53-0.5c0.3,0,0.3-0.4,0-0.4c-17.7-1.4-35.5-2.6-53.1,0.5C90.3,83.4,90.4,83.8,90.7,83.8
					L90.7,83.8z"/>
			</g>
		</g>
		<line class="st5" x1="6.8" y1="35.2" x2="23" y2="35.2"/>
		<line class="st5" x1="6.8" y1="54.5" x2="23" y2="54.5"/>
		<line class="st5" x1="6.8" y1="73.4" x2="23" y2="73.4"/>
		<line class="st5" x1="7.9" y1="91.7" x2="24.1" y2="91.7"/>
		<line class="st6" x1="9.1" y1="108.5" x2="23" y2="108.5"/>
		<line class="st7" x1="8.5" y1="123.5" x2="23.6" y2="123.5"/>
		<line class="st8" x1="9" y1="137.6" x2="24.3" y2="137.6"/>
	</g>
</g>
</svg>
