<?xml version="1.0" encoding="utf-8"?>
<!-- Generator: Adobe Illustrator 21.0.2, SVG Export Plug-In . SVG Version: 6.00 Build 0)  -->
<svg version="1.1" xmlns="http://www.w3.org/2000/svg" xmlns:xlink="http://www.w3.org/1999/xlink" x="0px" y="0px"
	 viewBox="0 0 166 166" style="enable-background:new 0 0 166 166;" xml:space="preserve">
<style type="text/css">
	.st0{fill:#FFFFFF;}
	.st1{fill:#666666;}
</style>
<g id="Layer_4">
	<path class="st0" d="M123.4,37.3c-3.2-0.6-5.9-0.2-8.1,1c-5-0.2-10-0.1-15.1,0c-7-1.1-14.3-1-21.3-1.3c-8.5-0.4-17-0.8-25.5-1.2
		c-0.6,0-1.2,0-1.8,0.1c-1-0.4-2-0.5-3.1-0.4c-0.7-0.8-1.8-1.3-3.1-1.3c-4.2,0-5.3,4.7-3.4,7.3c-0.1,0.7-0.1,1.4,0,2.2
		c-0.4,0.8-0.5,1.7-0.5,2.7c0.2,4.2,0.2,8.4,0.1,12.5c-0.6,1-1,2.2-1,3.6c0,3.7,0,7.4-0.2,11.2c-0.1,1.7-0.1,3.4-0.2,5.1
		c0,0.4,0,0.8-0.1,1.2c-0.2,0.4-0.4,0.8-0.5,1.3c-0.5,1.9-0.6,3.4-0.3,5.2c-0.2,0.6-0.4,1.2-0.4,1.8c-0.9,8.5-1.8,17-2.6,25.5
		c-2.3,8.2-3.5,16.8-5.1,25.2c-0.2,1-0.2,1.9,0,2.7c-0.9,1.4-1.3,3.2-1.2,5c-0.5,2.4,0.7,5.3,3.7,5.6c0.9,0.4,1.9,0.6,3,0.6
		c0.7,0,1.4-0.1,2-0.3c3.6,1.8,8.6,1.6,13.2,0.9c0.1,0,0.1,0,0.1,0c1.6,0,3.3,0,4.9-0.2c1.4,0.6,2.8,0.8,4.2,0.5
		c2.2-0.4,4.6,0.2,6.8-0.1c0.4,0,0.7-0.1,1.1-0.1c0.3,0.1,0.6,0.1,0.9,0.1c11.1,1,22.2-1.2,33.2,0.2c0.8,0.1,1.6,0,2.4-0.3
		c0.2,0,0.3,0.1,0.5,0.1c3.7,0,5-3.6,4-6.3c0-0.2,0-0.3,0-0.5c0-0.6-0.1-1.2-0.2-1.8c0.2-0.7,0.3-1.4,0.3-2.1
		c0-3.3,0.3-7.6-0.6-11.1c0.4-0.9,0.6-1.9,0.6-3.1c-0.1-4.8-0.1-9.7,0.4-14.5c0.5-4.9,1.8-9.6,1.8-14.5c0.4-0.9,0.6-1.9,0.6-3
		c-0.1-5.1,1.7-9.9,2.8-14.9c1.1-5.1,1.8-10.4,2.1-15.6c0.2-2.7-1-4.6-2.7-5.7c0.1-0.2,0.2-0.3,0.3-0.5c1.3-2,2.5-4,3.7-6
		c0.6-1,1.1-2,1.7-3c0.1-0.1,0.2-0.3,0.3-0.4C129,50.7,131.7,38.9,123.4,37.3z"/>
</g>
<g id="Layer_3">
	<g>
		<g>
			<path class="st1" d="M40.8,30.7C40.9,69.1,37,107.4,29.1,145c-0.2,0.9,1.2,1.3,1.4,0.4c7.9-37.7,11.9-76.2,11.8-114.8
				C42.3,29.7,40.8,29.7,40.8,30.7L40.8,30.7z"/>
		</g>
	</g>
	<g>
		<g>
			<path class="st1" d="M42.2,35.4c27.9,2.5,55.9,3.4,83.9,2.9c1,0,1-1.5,0-1.5c-28,0.5-56-0.4-83.9-2.9
				C41.2,33.8,41.2,35.3,42.2,35.4L42.2,35.4z"/>
		</g>
	</g>
	<g>
		<g>
			<path class="st1" d="M126.7,38.9c-10,29.8-15.8,60.9-17,92.4c-0.1,3.8-0.2,7.5-0.3,11.3c0,1.9,0,3.8,0,5.6c0,2.6,0.7,4.2-2.1,5
				c-3.6,1-9,0.2-12.7,0.3c-3.9,0.1-7.8,0.1-11.8,0.1c-17,0-34-0.5-51-1.5c-1-0.1-1,1.4,0,1.5c26.1,1.6,52.3,1.9,78.4,1
				c0.4,0,0.8-0.3,0.8-0.8c-1-38.9,4.8-77.6,17.1-114.5C128.5,38.4,127.1,38,126.7,38.9L126.7,38.9z"/>
		</g>
	</g>
	<g>
		<g>
			<path class="st1" d="M52,51.5c1.1-1.5,6.3,1.4,8,1.5c3,0.2,8.1-2.7,9.7,1.5c0.2,0.6,1,0.8,1.4,0.2c1.9-2.4,3.9-2.9,6.2-1.3
				c0.3,0.2,0.9,0.1,1-0.3c3.4-7.8,14.1,1.5,19.5,2.1c1,0.1,0.9-1.4,0-1.5c-7.3-0.9-12.1-7.9-19.4-3.5c-0.5,0.3-0.6,1.1-1.2,1.2
				c-0.4,0.1-1.9-0.5-2.4-0.5c-2.2,0-3.8,1.2-4.9,3c0.5,0.1,0.9,0.1,1.4,0.2c-1.4-3.6-4.7-3.3-7.9-3c-4,0.4-4,0.3-6.9-0.8
				c-0.8-0.3-1.7-0.8-2.5-0.9c-1.6-0.1-2.1,0.1-3.1,1.3C50.1,51.6,51.4,52.3,52,51.5L52,51.5z"/>
		</g>
	</g>
	<g>
		<g>
			<path class="st1" d="M52.3,64.8c0.6-1.9,4.9,1.4,6,1.9c1.2,0.6,2.2,0.6,3.5,0.3c2.7-0.6,5-1.8,7.9-1.9c3.4-0.1,5.9,1.5,9,1.8
				c1,0.1,1.9-0.3,2.8-0.6c1.9-0.7,2.1-0.9,4.3-0.6c4.1,0.6,7.5,0.3,11.3-1.5c0.9-0.4,0.1-1.7-0.8-1.3c-4.3,2.1-8.7,2.1-13.1,0.3
				c-0.2-0.1-0.6,0-0.7,0.2c-2.5,3-9.2,0.1-12.8,0.2c-1.4,0.1-2.7,0.3-4.1,0.6c-3.8,0.9-3.7,1.9-8.5-0.4c-2.2-1-5-2.9-6.2,0.6
				C50.6,65.3,52,65.7,52.3,64.8L52.3,64.8z"/>
		</g>
	</g>
	<g>
		<g>
			<path class="st1" d="M46.2,80.3c3.1-2.3,7.2-5.4,11.3-2.2c1.2,1,1.8,2.5,3.2,3.4c2,1.2,4.1,0.6,6.3,0.2
				c9.9-1.7,19.8-3.6,29.7-5.4c0.9-0.2,0.5-1.6-0.4-1.4c-5.4,1-10.9,2-16.3,3c-5.1,0.9-12.1,3.4-17.1,2.3c-3.4-0.7-4.4-4.6-8.2-5
				c-3.4-0.3-6.6,1.9-9.1,3.8C44.7,79.6,45.5,80.9,46.2,80.3L46.2,80.3z"/>
		</g>
	</g>
	<g>
		<g>
			<path class="st1" d="M48.8,96.6c-0.1-2.3,7.4-1.1,9.1-1.7c2.9-1.1,7.5-6.7,10.7-2.7c0.2,0.2,0.7,0.3,0.9,0.1c2-1.5,3.5-1.1,4.9,1
				c0.2,0.3,0.5,0.4,0.8,0.3c6.4-1.6,13.1-2.9,19.1,0.4c0.8,0.5,1.6-0.8,0.8-1.3c-3.9-2.2-7.9-2.6-12.4-2.1c-2,0.2-5.2,1.6-7.1,1
				c-1.3-0.4-2.4-1.9-3.7-2.6c-0.2-0.1-0.5-0.2-0.8,0c-2.5,1.9-3,0.1-5.7,0.3c-2.5,0.2-4.1,1.8-6.2,3c-3.5,2.1-4.9,0.4-8.3,0.6
				c-0.6,0-0.8-0.1-1.6,0.2c-1.6,0.6-2.2,1.7-2.2,3.4C47.3,97.5,48.8,97.5,48.8,96.6L48.8,96.6z"/>
		</g>
	</g>
	<g>
		<g>
			<path class="st0" d="M91.3,94.4c16.2-24.6,31.1-50,44.7-76.1c0.9,1.6,3.9,0.6,4.7,2.2c0.2,0.4,0.1,1,0.1,1.4
				c-3.8,29.4-30.5,50.6-39.8,78.6c-0.4,1.1-0.8,2.3-1.7,3c-2.8,2.1-6.2-2.2-9.7-2.6"/>
			<g>
				<path class="st1" d="M92,94.8c10.3-15.7,20.1-31.7,29.4-48.1c4.6-8.1,9.5-16.3,13.5-24.7c0.1-0.2,1.1-2.4,1.3-2.5
					c0.1,0,2.8,0.7,2.9,0.8c2.3,2.3-0.7,9.6-1.5,12.1c-4.6,14.3-13.8,26.6-22,38.9c-4.1,6.2-8.1,12.5-11.4,19.3
					c-1.3,2.7-2.2,5.7-3.5,8.4c-0.4,2.1-1.9,3.6-4.3,4.2c-1.1-0.5-2.1-1-3.1-1.6c-1.2-0.6-2.3-1.1-3.6-1.4c-0.9-0.2-1.3,1.2-0.4,1.4
					c3,0.7,6.6,4.4,9.8,2.8c3.2-1.6,4.1-8.2,5.5-11.1c4.6-10.2,11.1-19.5,17.3-28.8c5.8-8.6,11.5-17.4,15.4-27.1
					c1.9-4.7,4-10.3,4.1-15.4c0.1-4.1-2.7-2.1-5-4.4c-0.3-0.3-1-0.3-1.2,0.2C121.7,44,106.8,69.4,90.7,94
					C90.2,94.8,91.5,95.6,92,94.8L92,94.8z"/>
			</g>
		</g>
		<g>
			<path class="st0" d="M88.8,103.4c0.3,3.9,0.1,7.8-0.6,11.6c1.7-1.3,2-3.8,3.2-5.6c1.8-2.7,5.7-3.9,6.6-7"/>
			<g>
				<path class="st1" d="M88.1,103.4c0.3,3.9,0.1,7.6-0.6,11.4c-0.1,0.7,0.7,1.3,1.3,0.7c2.3-2.1,2.6-5.4,5-7.6c2-1.7,4-2.9,5-5.5
					c0.3-0.9-1.1-1.3-1.4-0.4c-1,2.6-3.8,3.7-5.6,5.7c-1.8,2-2.1,4.8-4,6.7c0.4,0.2,0.8,0.5,1.3,0.7c0.7-3.9,0.9-7.9,0.7-11.8
					C89.5,102.5,88,102.5,88.1,103.4L88.1,103.4z"/>
			</g>
		</g>
		<g>
			<path class="st0" d="M137.4,17.8c1.1-2.1,1.8-4.4,2.1-6.8c0.9,0.2,1.8,0.4,2.8,0.6c0.5,0.1,1.2,0.3,1.3,0.8
				c0.2,0.4-0.1,0.9-0.3,1.3c-1.1,1.8-2.2,3.7-3.4,5.5"/>
			<g>
				<path class="st1" d="M138.1,18.2c1.2-2.3,1.9-4.6,2.2-7.2c-0.3,0.2-0.6,0.5-0.9,0.7c0.7,0.2,1.5,0.3,2.2,0.5
					c0.2,0,0.8,0.1,1,0.2c0.5,0.5-0.1,1.4-0.4,1.8c-0.9,1.6-1.9,3.1-2.8,4.7c-0.5,0.8,0.8,1.6,1.3,0.8c0.8-1.3,1.6-2.6,2.3-3.8
					c0.5-0.9,1.5-2,1.5-3.1c-0.1-2-3.2-2.1-4.7-2.4c-0.5-0.1-0.9,0.2-0.9,0.7c-0.3,2.3-0.9,4.4-2,6.4
					C136.4,18.3,137.6,19,138.1,18.2L138.1,18.2z"/>
			</g>
		</g>
		<g>
			<path class="st0" d="M141,21.6c1.7,0.3,3.4,0.6,5.1,0.9c0.5,0.1,1,0.2,1.4,0.5c1.3,0.9,0.7,3,0,4.4c-4.8,10.1-7.7,20.9-10.6,31.7
				"/>
			<g>
				<path class="st1" d="M140.8,22.3c1,0.2,4.2,0.3,5.1,0.9c2.9,2,0.4,5.1-0.5,7.2c-1.1,2.6-2.1,5.3-3.1,8c-2.4,6.7-4.2,13.6-6,20.5
					c-0.2,0.9,1.2,1.3,1.4,0.4c2.7-10.1,5.4-20.3,9.7-29.8c0.7-1.7,2.3-4.1,1.4-6c-1.2-2.5-5.3-2.2-7.6-2.6
					C140.2,20.7,139.8,22.2,140.8,22.3L140.8,22.3z"/>
			</g>
		</g>
	</g>
</g>
</svg>
