<?xml version="1.0" encoding="utf-8"?>
<!-- Generator: Adobe Illustrator 21.0.2, SVG Export Plug-In . SVG Version: 6.00 Build 0)  -->
<svg version="1.1" id="Layer_3" xmlns="http://www.w3.org/2000/svg" xmlns:xlink="http://www.w3.org/1999/xlink" x="0px" y="0px"
	 viewBox="0 0 166 166" style="enable-background:new 0 0 166 166;" xml:space="preserve">
<style type="text/css">
	.st0{fill:#FFFFFF;stroke:#666666;stroke-width:0.4444;stroke-miterlimit:10;}
	.st1{fill:#FFFFFF;stroke:#666666;stroke-width:0.4687;stroke-miterlimit:10;}
	.st2{fill:none;stroke:#000000;stroke-width:1.0699;stroke-miterlimit:10;}
</style>
<g>
	<path class="st0" d="M78.7,115.5C79.7,109,92.8,28,92.6,22.7c0-0.2,0.1-0.3,0.2-0.4c1.6-1.3,12-9.4,13.4-9.4c0,0,3.1-2.6-2-3.5
		c0,0-14.8-3.3-20.1-2c-4.9,1.2,2.9,12.8,3.9,14.3c0.1,0.1,0.1,0.2,0.1,0.3c-0.6,4.2-10.3,78.9-13.8,92.9c-0.1,0.2-0.3,0.4-0.5,0.4
		l-15-1.6c-0.3,0-0.6,0.2-0.6,0.5c0.2,34.6,11,38.3,12.3,38.6c0.1,0,0.2,0,0.2,0c15.2-3.2,24.3-29.3,25.7-33.5
		c0.1-0.3-0.1-0.6-0.4-0.7c-2.8-0.3-14.3-1.7-17-2.5C78.8,116,78.7,115.8,78.7,115.5z M86.3,12.7c0,0-3.6-3.5,6-2.9
		c8.2,0.5,8.1,2.2,7.9,2.7c0,0.1-0.1,0.1-0.2,0.2l-8.8,6.5c-0.2,0.2-0.6,0.1-0.7-0.1L86.3,12.7z"/>
	<path class="st0" d="M8.1,160.7c0,0,59.4-51.1,125.6,0"/>
	<path class="st1" d="M32.5,160.7c0,0,59.4-56.8,125.6,0"/>
</g>
<rect x="-513.5" y="-608.5" class="st2" width="1277.1" height="1324.8"/>
</svg>
