<?xml version="1.0" encoding="utf-8"?>
<!-- Generator: Adobe Illustrator 21.0.2, SVG Export Plug-In . SVG Version: 6.00 Build 0)  -->
<svg version="1.1" xmlns="http://www.w3.org/2000/svg" xmlns:xlink="http://www.w3.org/1999/xlink" x="0px" y="0px"
	 viewBox="0 0 166 166" style="enable-background:new 0 0 166 166;" xml:space="preserve">
<style type="text/css">
	.st0{fill:#FFFFFF;}
	.st1{fill:#666666;}
</style>
<g id="Layer_3">
	<path class="st0" d="M123.6,77.5c0.1-1.5-0.2-2.8-0.7-3.9c0-0.4-0.1-0.7-0.1-1.1c0.2-0.2,0.4-0.4,0.5-0.7c0.4-1.4,0-3-1.1-3.9
		c-0.6-0.4-1.3-0.6-1.9-0.2c-1.1-1.2-2.5-2.1-4-2.5c-5.1-1.4-9.3,1.7-11.1,6.3c-0.2,0.6-0.7,1.2-1.2,1.8c-2.2-0.4-4.6-0.3-6.5,1
		c-2.7,1.8-5.1,4.1-6.5,7c-0.5,1-0.8,1.9-1,2.9c-2.5,0.9-5,2-7.1,3.5c-1.4-1.7-2.8-3.3-4.2-5c-7.7-8.9-15.2-18-24.3-25.6
		c-3.7-3.1-9.1-3.7-12.7,0c-3.2,3.2-3.8,9.6,0,12.7c7.8,6.5,15.2,14.2,22,22.3c-0.4,0-0.7,0-1.1,0c-2.3,0-5.2,0.8-7.5,0.3
		c-1.6-0.3-3.3-1.5-5-1.9c-2.5-0.6-5.2-0.8-7.7-1.2c-5.7-1-11.3-2.7-16.7-4.8C21.5,83,18,84.9,16,88c-0.4,0.1-0.8,0.3-1.1,0.7
		c-0.2,0.3-0.5,0.7-0.7,1c-0.4,0.6-0.2,1.4,0.3,1.9c-0.3,1.3-0.4,2.7-0.1,4c3.5,17.9,7.1,35.7,10.6,53.6c0.2,1.2,0.7,2.3,1.2,3.1
		c-0.2,0.2-0.3,0.5-0.3,0.9c0,0.8,0.7,1.5,1.5,1.5h1c0.1,0,0.2,0,0.2,0c1.4,0.8,3.1,1.1,4.8,1c0.3,0.1,0.5,0.2,0.8,0.2
		c9,2,18.2,3.2,27.5,3.5c0.3,0,0.6,0,0.9,0c1.6,0.3,3.2,0.6,4.8,1c1.6,0.3,3.1,0.2,4.4-0.2c0.5,0.1,0.9,0.1,1.4,0.2
		c0.3,0.4,0.7,0.6,1.2,0.6h0.9c0.7,0,1.4-0.5,1.5-1.2c0.1-0.1,0.2-0.1,0.4-0.2c1.1-0.4,2.1-1,2.9-1.9c0.7-0.6,1.2-1.3,1.5-2.1
		c1.2-0.4,2.5-1,3.6-2c4.1-3.7,9-6.5,13.5-9.8c4.5-3.4,8.8-7,12.9-11c1.1-0.6,2.1-1.4,2.8-2.3c0.4,0.1,0.9,0,1.3-0.4
		c1.9-2,2.9-4.6,3-7.4c0-0.5-0.2-0.8-0.4-1.1c1.6-3.5,2.5-7.6,3-11.5C123.1,99.4,123.1,88.4,123.6,77.5z"/>
	<path class="st0" d="M143.4,24.3c-3.4-3-9.2-6-14.8-6.5c0,0,0.1-0.1,0.1-0.1c1.8-1.8,2.5-4.2,1.8-6.6c-0.6-2.2-2.8-4-5-4.3
		c-1.2-0.2-2.3-0.2-3.3,0.3c-0.1,0-0.3,0-0.4,0c-1.2,0-2.7,0.5-3.5,1.5c-0.9,1-1.5,2.2-1.5,3.5c0.1,1.4,0.6,2.5,1.5,3.5
		c0.5,0.6,0.9,1.1,1.5,1.5c0.7,0.5,1.5,0.9,2.4,1c0.1,0.1,0.2,0.2,0.3,0.2c-7.2,1-15.8,6.5-18.3,13.5c-2.4,6.8-2.3,18.1,3.1,23.7
		c11,11.4,36.1,8.3,40.9-8C150.4,39.7,149.6,29.9,143.4,24.3z"/>
</g>
<g id="Layer_1">
	<path class="st1" d="M122.4,63.8c-1.6-0.3-3.1-0.6-4.7-1c-7.4-1.7-11.9-6.9-14.2-13.6c-3-8.8-1.8-17.2,4.5-24.4
		c2.5-2.9,5.5-5.1,9.1-6.5c0.5-0.2,1-0.4,1.5-0.6c-2.7-4.2-2.7-7.8-0.2-10.3c2.7-2.7,7.4-2.9,10.8-0.6c3.1,2.2,3.7,5.4,1.8,10.1
		c1.4,0.5,2.8,1,4.2,1.5c5.7,2,10,5.6,12.8,11c1,1.9,1.7,4.1,2,6.2c0.5,4,0.5,8.1-0.4,12.1c-0.8,3.4-2.6,6.1-5.2,8.3
		c-4.7,3.9-9.8,7-16,7.7c-0.1,0-0.3,0.1-0.4,0.2C126.1,63.8,124.2,63.8,122.4,63.8z M148.5,40.3c0.3-7.3-2.2-12.3-7.8-16.8
		c-3.6-2.9-8-4.6-12.6-5c-8.6-0.8-15.5,2.8-20.3,9.7c-5.2,7.5-5.4,15.7-1.1,23.8c1.7,3.1,3.8,5.9,7.1,7.6c4.2,2,8.6,2.8,13.2,2.4
		c7-0.6,12.6-4,17.5-8.8c2.2-2.1,3.2-4.9,3.5-7.9C148.3,43.6,148.4,41.9,148.5,40.3z M123.5,12.7c-0.5,0-0.9,0.1-1.2,0
		c-0.5-0.2-0.8-0.6-1.2-0.9c0.4-0.3,0.7-0.8,1.1-0.9c1.5-0.1,3-0.1,4.5-0.1c0.4,0,0.7,0.6,1.1,0.9c-0.3,0.3-0.6,0.7-1,0.8
		c-0.4,0.2-0.9,0.1-1.5,0.1c0.1,1.3,0.2,2.5,0.3,3.7c1,0.1,1.8,0.2,2.7,0.2c0.3,0,0.8-0.1,0.8-0.3c0.5-1.2,1.2-2.5,1.2-3.7
		c0-3.7-3.6-6.1-7.6-5.3c-3.8,0.7-5.5,4.1-3.9,7.6c0.9,2,1.5,2.3,3.7,1.9c0.4-0.1,0.8-0.1,1.2-0.2C123.6,15.2,123.6,14,123.5,12.7z"
		/>
	<path class="st1" d="M152,26c-0.6,0.1-1.4,0.4-1.6,0.2c-2.2-2-4.3-4-6.3-6.1c-0.2-0.2-0.2-1,0-1.1c0.3-0.2,1-0.3,1.3-0.1
		c2.1,2,4.2,4,6.3,6.1C151.7,25.2,151.8,25.4,152,26z"/>
	<path class="st1" d="M144,40.4c0,3.9-0.4,7.7-3.5,10.6c-3.9,3.7-8.3,6.4-13.8,6.6c-1.9,0.1-3.8-0.1-5.7-0.4
		c-8.3-1.2-12.9-9.8-12.8-16.8c0.2-11.1,9.2-17.6,17.1-17.9C134.4,22.3,144.7,28.8,144,40.4z M142.3,40.9c-0.2-1.7-0.1-3.4-0.5-5.1
		c-2-8.6-12.5-12.6-18.7-11.1c-9.1,2.2-14.5,10.3-12.6,19.5c1,4.8,3.5,8.8,8.4,10.5c6,2.2,11.6,1.3,16.9-2.2
		C140,49.7,142.5,46.2,142.3,40.9z"/>
	<path class="st1" d="M129.4,37.1c1.9-1.2,3.8-2.5,5.8-3.7c0.4-0.3,1.2-0.1,1.8-0.1c-0.3,0.5-0.4,1.2-0.8,1.6
		c-1.6,1.2-3.4,2.1-5,3.3c-0.4,0.3-0.7,1-0.7,1.5c0,2.1-0.8,3.7-2.7,4.7c-1.6,0.8-3.1,0.7-4.5-0.5c-1.6-1.4-2.2-3.2-1.7-5.3
		c0.5-2.4,3.6-3.8,5.9-2.8C128.1,36.2,128.7,36.7,129.4,37.1z M125.8,40.7c0.1,0.1,0.2,0.1,0.3,0.2c-0.4,0.6-0.7,1.3-1.1,1.9
		c0.1,0.1,0.2,0.2,0.4,0.3c0.5-0.5,1-1,1.7-1.8c-0.2,0.7-0.4,1.1-0.5,1.6c1.9-1.1,2.4-2.3,1.7-3.8c-0.5-1.2-2.1-1.9-3.3-1.6
		c-1.3,0.4-1.9,1.4-1.6,2.6c0.2-0.2,0.5-0.4,1-0.8c-0.5,0.9-0.7,1.5-1,2c0.1,0.1,0.2,0.1,0.3,0.2c0.5-0.6,1-1.3,1.5-1.9
		c0.1,0,0.1,0.1,0.2,0.1c-0.5,0.8-0.9,1.7-1.4,2.5c0.1,0.1,0.2,0.1,0.3,0.2C124.9,41.9,125.4,41.3,125.8,40.7z"/>
	<path class="st1" d="M113.2,41.5c0.9,1.6,1.5,3.1,2.5,4.3c1,1.2,2.3,2,3.7,3.1C116.7,49.3,112.3,43.8,113.2,41.5z"/>
	<g>
		<g>
			<path class="st0" d="M15.9,88C23.6,77,32.1,66.5,41.5,56.8c8.1,16,20.1,30,34.6,40.5C56.6,93.5,37,90.4,17.3,88"/>
			<g>
				<path class="st1" d="M16.6,88.5c7.7-11,16.2-21.4,25.4-31.1c-0.4-0.1-0.9-0.1-1.3-0.2C49.1,73.4,61,87.2,75.6,98
					c0.2-0.5,0.4-1,0.7-1.6c-19.6-3.8-39.2-6.8-59-9.3c-1.1-0.1-1.1,1.6,0,1.7c19.6,2.4,39.1,5.5,58.5,9.2c1,0.2,1.4-1,0.7-1.6
					C62.1,85.9,50.4,72.2,42.2,56.3c-0.3-0.5-1-0.6-1.3-0.2C31.5,66,22.9,76.5,15.2,87.6C14.5,88.5,16,89.4,16.6,88.5L16.6,88.5z"/>
			</g>
		</g>
		<g>
			<path class="st0" d="M42.5,56c14.5-7.2,29.9-12.6,45.7-16c1-0.2,2.1-0.4,3.1-0.2c1.1,0.3,1.9,1.1,2.7,1.8
				c9.2,8.7,18.4,17.4,27.6,26.1c-14.7,10.2-29.5,20.5-44.2,30.7"/>
			<g>
				<path class="st1" d="M43,56.7C55.8,50.4,69.3,45.4,83.2,42c4.9-1.2,8.5-1.4,12.4,2.3c2.7,2.5,5.3,5,8,7.6
					c5.8,5.5,11.6,11,17.4,16.5c0.1-0.4,0.1-0.9,0.2-1.3c-14.7,10.2-29.5,20.5-44.2,30.7c-0.9,0.6,0,2.1,0.9,1.5
					c14.7-10.2,29.5-20.5,44.2-30.7c0.4-0.3,0.6-0.9,0.2-1.3c-6.8-6.4-13.5-12.8-20.3-19.3c-4.6-4.4-8-10-14.8-8.6
					c-15.6,3.3-30.7,8.9-45,15.9C41.1,55.7,42,57.2,43,56.7L43,56.7z"/>
			</g>
		</g>
		<g>
			<path class="st0" d="M13.6,90.1c4.1,21.3,8.3,42.7,12.4,64"/>
			<g>
				<path class="st1" d="M12.8,90.3c4.1,21.3,8.3,42.7,12.4,64c0.2,1.1,1.9,0.6,1.7-0.5c-4.1-21.3-8.3-42.7-12.4-64
					C14.3,88.8,12.6,89.2,12.8,90.3L12.8,90.3z"/>
			</g>
		</g>
		<g>
			<path class="st0" d="M76.8,100.3c-1,18-2,36.1-3,54.1"/>
			<g>
				<path class="st1" d="M75.9,100.3c-1,18-2,36.1-3,54.1c-0.1,1.1,1.7,1.1,1.7,0c1-18,2-36.1,3-54.1C77.7,99.2,76,99.2,75.9,100.3
					L75.9,100.3z"/>
			</g>
		</g>
		<g>
			<path class="st0" d="M28.7,154.9c15,2.9,30.1,4.9,45.3,5.9"/>
			<g>
				<path class="st1" d="M28.5,155.7c15.1,2.9,30.2,4.8,45.5,5.9c1.1,0.1,1.1-1.6,0-1.7c-15.1-1.1-30.2-3-45.1-5.9
					C27.9,153.9,27.4,155.5,28.5,155.7L28.5,155.7z"/>
			</g>
		</g>
		<g>
			<path class="st0" d="M123.1,70.6c0.6,17.8,1.1,36.1-4.4,53.1"/>
			<g>
				<path class="st1" d="M122.2,70.6c0.6,17.8,0.9,35.7-4.4,52.8c-0.3,1.1,1.3,1.5,1.7,0.5c5.4-17.3,5-35.4,4.5-53.3
					C123.9,69.5,122.2,69.4,122.2,70.6L122.2,70.6z"/>
			</g>
		</g>
		<g>
			<path class="st0" d="M75.7,161.1c16.3-12.5,32.5-25.1,48.6-37.8"/>
			<g>
				<path class="st1" d="M76.2,161.8c16.4-12.5,32.6-25.2,48.7-38c0.9-0.7-0.4-1.9-1.2-1.2c-16,12.7-32.1,25.3-48.4,37.7
					C74.5,161,75.3,162.5,76.2,161.8L76.2,161.8z"/>
			</g>
		</g>
		<g>
			<path class="st0" d="M38.6,154.1c-1.2-8.8-1.1-17.8,0.5-26.5c0.1-0.3,0.1-0.7,0.4-0.9c0.3-0.2,0.6-0.2,1-0.1
				c3.7,0.3,7.4,0.7,11.2,1c0.3,0,0.5,0.1,0.7,0.2c0.2,0.2,0.2,0.5,0.2,0.8c0.2,9.9,0.5,19.8,0.7,29.7"/>
			<g>
				<path class="st1" d="M39.5,154.1c-0.6-5-0.9-10.1-0.7-15.2c0.1-2.3-0.2-7.3,0.9-9.2c1.6-2.8,5.7-2.4,8.3-1.7
					c1.9-0.3,3.2,0.6,3.9,2.5c0,1.3,0.1,2.6,0.1,4c0.1,2.6,0.1,5.3,0.2,7.9c0.1,5.3,0.3,10.6,0.4,15.8c0,1.1,1.7,1.1,1.7,0
					c-0.2-8.6-0.4-17.1-0.6-25.7c-0.1-6.2-0.3-5.7-6.6-6.3c-1.9-0.2-6.1-1.4-7.9-0.3c-1.3,0.8-1.3,4.1-1.4,5.2
					c-1,7.6-0.9,15.3,0.1,23C37.9,155.2,39.6,155.2,39.5,154.1L39.5,154.1z"/>
			</g>
		</g>
		<g>
			<path class="st0" d="M82.9,105.3c0,1.8,0,3.7,0,5.5c0,6.4,0,12.9-1.1,19.2"/>
			<g>
				<path class="st1" d="M82.1,105.3c0,8.2,0.2,16.4-1.1,24.5c-0.2,1.1,1.5,1.5,1.7,0.5c1.3-8.3,1.1-16.6,1.2-25
					C83.8,104.2,82.1,104.2,82.1,105.3L82.1,105.3z"/>
			</g>
		</g>
		<g>
			<path class="st0" d="M83.9,104.9c3.3-1.9,6.6-3.8,9.9-5.6c1.1,6.9-1.3,13.8-1.7,20.8c-0.1,1.2-0.1,2.5-0.7,3.5
				c-1.4,2.4-5,2.5-6.6,4.7"/>
			<g>
				<path class="st1" d="M84.4,105.6c3.3-1.9,6.6-3.8,9.9-5.6c-0.4-0.2-0.9-0.5-1.3-0.7c0.7,5.9-0.6,11.5-1.4,17.3
					c-0.4,3,0,6.1-2.8,8.1c-1.6,1.1-3.2,1.5-4.6,2.9c-0.8,0.8,0.4,2,1.2,1.2c3.3-3.4,6.9-2.8,7.5-8.2c0.8-7.1,2.6-14.3,1.8-21.4
					c-0.1-0.6-0.7-1.1-1.3-0.7c-3.3,1.9-6.6,3.8-9.9,5.6C82.5,104.7,83.4,106.2,84.4,105.6L84.4,105.6z"/>
			</g>
		</g>
		<g>
			<path class="st0" d="M103,92.7c0.2,7.9,0.1,15.8-0.1,23.6"/>
			<g>
				<path class="st1" d="M102.1,92.7c0.1,7.9,0.1,15.8-0.1,23.6c0,1.1,1.7,1.1,1.7,0c0.2-7.9,0.3-15.8,0.1-23.6
					C103.8,91.6,102.1,91.6,102.1,92.7L102.1,92.7z"/>
			</g>
		</g>
		<g>
			<path class="st0" d="M102.7,90.8c3.7-2.2,7.4-4.2,11.3-6.1c0,7.6-0.5,15.2-1.4,22.8c-0.1,0.6-0.2,1.2-0.5,1.7
				c-0.5,0.6-1.3,0.8-2.1,0.9c-2.5,0.5-5.2,1.4-6.5,3.6"/>
			<g>
				<path class="st1" d="M103.1,91.6c3.7-2.2,7.4-4.2,11.3-6.1c-0.4-0.2-0.9-0.5-1.3-0.7c-0.1,6.3,0.5,13.8-1.1,20
					c-0.6,2.4-1.6,3.8-3.6,4.9c-0.8,0.4-1.8,0.5-2.5,0.9c-1.4,0.7-2.3,1.5-3.2,2.8c-0.7,0.9,0.8,1.7,1.5,0.9c3-3.8,8.1-1.8,9.2-6.6
					c1.7-7.2,1.3-15.5,1.4-22.8c0-0.7-0.7-1-1.3-0.7c-3.8,1.9-7.6,4-11.3,6.1C101.3,90.7,102.1,92.1,103.1,91.6L103.1,91.6z"/>
			</g>
		</g>
	</g>
</g>
</svg>
