<?xml version="1.0" encoding="utf-8"?>
<!-- Generator: Adobe Illustrator 21.0.2, SVG Export Plug-In . SVG Version: 6.00 Build 0)  -->
<svg version="1.1" id="Layer_1" xmlns="http://www.w3.org/2000/svg" xmlns:xlink="http://www.w3.org/1999/xlink" x="0px" y="0px"
	 viewBox="0 0 166 166" style="enable-background:new 0 0 166 166;" xml:space="preserve">
<style type="text/css">
	.st0{fill:#FFFFFF;}
	.st1{fill:#666666;}
	.st2{fill:#009245;}
</style>
<g>
	<path class="st0" d="M47.8,8.3C82.9,8.9,118,9.4,153,10c-1,9.3-4.2,18.2-7,27.1c-12.2,38.7-19.1,79-20.5,119.5
		c-32.9-3.3-66.3-2.1-98.9,3.4c-2.3,0.4-5.1,0.6-6.5-1.2c-0.8-1-0.9-2.4-0.9-3.7c-0.3-13.3,1.6-26.6,3.5-39.8
		c3.7-25.2,7.4-50.4,12-75.4C37,28.6,39.6,16.7,47.3,8"/>
	<g>
		<path class="st1" d="M47.8,8.7C64.7,9,81.5,9.3,98.4,9.6c8.6,0.1,17.2,0.3,25.8,0.4c4,0.1,7.9,0.1,11.9,0.2c2,0,4,0.1,6,0.1
			c2.1,0,6.1-0.7,7.9,0.1c3.6,1.5,1.1,8.1,0.2,11.4c-1,3.9-2.3,7.8-3.5,11.7c-2.5,7.8-4.9,15.7-7,23.6c-4.1,15.6-7.4,31.5-9.8,47.4
			c-2.3,15.4-3.9,30.9-4.6,46.4c-0.1,2.6,0.4,4.5-2.7,5c-1.7,0.3-4.1-0.4-5.8-0.5c-4.2-0.3-8.4-0.6-12.6-0.7
			c-8.4-0.3-16.9-0.4-25.3-0.2c-15.9,0.4-31.8,1.9-47.6,4.4c-1.9,0.3-4.2,1-6.2,0.9c-3.5-0.2-5.5-4.2-5.5-7.5
			c0-4.4,0.2-8.9,0.6-13.3c0.7-8.5,2-17,3.2-25.5c2.7-18.7,5.5-37.5,8.7-56.1C35.1,41,36.5,21.6,47.6,8.3c0.4-0.4-0.3-1.1-0.6-0.6
			C37.2,19.3,35.3,35,32.7,49.4c-3.4,19-6.2,38-9,57.1c-1.3,8.6-2.6,17.2-3.6,25.8c-0.5,4.4-0.9,8.8-1.1,13.3
			c-0.2,3.6-0.8,8,0.1,11.6c1.3,5.3,7.7,3.3,11.6,2.7c10.2-1.6,20.5-2.8,30.8-3.6c21.4-1.6,42.8-1.3,64.1,0.8c0.3,0,0.4-0.2,0.5-0.5
			c0.9-25.6,3.9-51.1,9.1-76.2c2.5-12.1,5.5-24.1,9.1-35.9c3.4-11.4,7.7-22.6,9.2-34.5c0-0.2-0.2-0.5-0.5-0.5
			C118,9,82.9,8.4,47.8,7.8C47.2,7.8,47.2,8.7,47.8,8.7L47.8,8.7z"/>
	</g>
</g>
<g>
	<g>
		<path class="st1" d="M44.3,34.7c1.5-1.5,3-3.1,4.9-4.2c5-2.8,7.3-1.4,10.5,3.3c0.8,1.2,1,2.7,2.5,3.4c1.5,0.7,2.3,0.5,3.5-0.3
			c0.6-0.4,1.4-1.6,1.8-2.1c2-2.6,1.9-3.7,5.5-3.1c3.9,0.7,2.1,0.6,4.1,3c0.6,0.7,1.1,1.3,2.1,1.7c1,0.3,2,0.2,2.9-0.2
			c1.9-0.7,3-2.7,4.7-3.5c4.8-2.2,7.6,4.4,9.8,7.7c0.2,0.3,0.6,0.3,0.8,0c1.7-3.1,1.5-3.3,5.3-2.2c7.3,2,1.6-0.2,3.7,2
			c0.5,0.5,0.7,1.3,1.4,1.6c4.6,2,5.6-9.1,11.8-3.6c0.4,0.4,1.1-0.3,0.6-0.6c-3.4-3-5.7-0.4-8.7,1.5c-2.4,1.5-3.8,1.5-5.2-1.2
			c-0.2-0.4-0.3-0.8-0.6-1.2c-0.9-1.1-1.8-1.8-3.3-1.8c-1.5,0-2.8,0.8-3.8,1.8c0,0-1.6,2.2-1.6,2.2c-1.3,0.1-2.6-2.7-3.2-3.6
			c-1.6-2.3-3-5-6.2-4.1c-1.6,0.4-2.7,1.9-3.9,2.8c-5.6,3.9-6.2-2.3-9.4-4.3c-4-2.5-5.4,2.6-7.8,4.7c-0.3,0.4-0.6,0.8-0.9,1.2
			c-3.5,1.1-5.5,0-5.9-3.2c-0.3-0.5-0.5-1.1-0.9-1.6c-1.2-1.4-2.6-2.1-4.4-2.3c-4.6-0.5-8.1,2.8-11.1,5.8
			C43.2,34.4,43.8,35.1,44.3,34.7L44.3,34.7z"/>
	</g>
</g>
<g>
	<g>
		<path class="st1" d="M42.7,58.1c1.7-2.2,3.6-4.4,5.6-6.3c0.9-0.9,2.7-2.9,3.9-3.2c2-0.4,4.1,0.9,5.5,1.9c1.5,1.1,1.8,1.7,3.6,1.8
			c0.3,0,0.7-0.6,1-0.6c0,0,0.1,0,0.1-0.1c0.5-0.6,1.2-0.4,2.1,0.6c3,0.9,2.3,2.2,4,4.3c1.4,1.8,2.8,2.4,4.9,2.2
			c0.4,0,0.8-0.6,1.2-0.7c0.3-0.1,5-0.1,5.3,0c1,0.4,1.7,1.6,2.9,2c1.8,0.6,3,0,4.6-1c2.3-1.5,3.6-1.6,6.3-0.8
			c1.3,0.4,1.7,0.8,3,0.8c3.2-0.1,6-2.6,8.2-4.6c0.4-0.4-0.2-1-0.6-0.6c-1.1,1-2.3,2.2-3.6,2.9c-2.6,1.6-4.5,0.9-7.4,0.1
			c-1-0.3-1.1-0.8-2.2-0.7c-4.1,0.1-4.6,4.8-9.5,2c-2.1-1.2-2.6-2.3-5-2.3c-0.2,0-0.6,0.3-0.7,0.4c-0.2,0.1-0.4,0.2-0.6,0.3
			c-0.9,0.7-2,0.5-3.3-0.8c-4.5-1.1-2.9-1.6-5.2-4.5c-1.1-1.5-1.9-1.8-3.6-2c-0.3,0-0.5,0.8-0.8,0.8c-0.3,0-4.1-0.9-4.4-1.1
			c-0.7-0.4-0.9-1.5-1.8-1.9c-4.6-2.5-11.8,7.5-14.1,10.5C41.5,58.1,42.3,58.6,42.7,58.1L42.7,58.1z"/>
	</g>
</g>
<g>
	<g>
		<path class="st1" d="M41.5,78.1c1.4-2,2.9-4.6,5.2-5.7c5.9-3.2,4.6,0.5,8.4,1.9c0.5,0.2,0.9,0.3,1.4,0.4c1.3,0.3,3.1-0.9,4.7-0.3
			c1.1,0.4,1.9,1.5,3,1.9c1.3,0.5,2,0.2,3.3,0.2c2.8,0,4.5,1.8,7,1.9c1.5,0.1,3.6-1,5-1.4c3.3-0.9,6.3,0.6,9.7,0.8
			c2.9,0.2,5.7-0.3,8.5-1c0.6-0.2,0.3-1-0.2-0.9c-5.5,1.5-9,0.6-14.4-0.1c-1.8-0.2-3-0.1-4.6,0.4c-4.4,1.4-1.1,1.6-6.8-0.1
			c-1.4-0.4-0.6-0.5-1.8-0.7c-2.4-0.4-3.3,0.9-6.3-0.5c-1-0.5-1.8-1.5-2.9-1.9c-1.1-0.4-1.3-0.1-2.5-0.1c-4.5-0.1-2.2-0.1-4.5-1.3
			c-1.1-0.5-1.8-1-3.1-1.1c-4.6-0.3-7.5,3.8-9.7,7.1C40.4,78.2,41.2,78.6,41.5,78.1L41.5,78.1z"/>
	</g>
</g>
<g>
	<g>
		<path class="st2" d="M89.2,127.7c2.4,4.7,4.8,9.5,7.2,14.2c1.2,2.4,5.1,2.4,6.3,0c5-10.1,11.4-19.2,19.3-27.2
			c3.3-3.4-1.9-8.5-5.2-5.2c-8.3,8.4-15.2,18-20.4,28.7c2.1,0,4.2,0,6.3,0c-2.4-4.7-4.8-9.5-7.2-14.2
			C93.4,119.8,87.1,123.5,89.2,127.7L89.2,127.7z"/>
	</g>
</g>
</svg>
