<?xml version="1.0" encoding="utf-8"?>
<!-- Generator: Adobe Illustrator 21.0.2, SVG Export Plug-In . SVG Version: 6.00 Build 0)  -->
<svg version="1.1" xmlns="http://www.w3.org/2000/svg" xmlns:xlink="http://www.w3.org/1999/xlink" x="0px" y="0px"
	 viewBox="0 0 166 166" style="enable-background:new 0 0 166 166;" xml:space="preserve">
<style type="text/css">
	.st0{fill:#FFFFFF;}
	.st1{fill:#4D4D4D;}
	.st2{fill:#006837;}
</style>
<g id="Layer_3">
	<path class="st0" d="M34.6,103.1c-0.1-1.7-0.2-3.5-0.4-5.2c0-0.5,0-1,0-1.5c-0.1-1.9-0.6-3.8-0.5-5.7c0.1-1-0.1-1.7-0.5-2.4
		c0.3-1.4-0.4-3.1-2.3-3.1c-0.3,0-0.5,0-0.7,0.1c-2.4-1.1-5.6-1.3-8.2-1.4c-0.4,0-0.7,0-1,0.1c-3.1-0.4-6.2,0.8-9.3,0.8
		c-1,0-1.8,0.3-2.5,0.8c0,0,0,0,0,0c-2.4,0-3,2.8-1.8,4.2c-0.2,0.9-0.1,1.8,0.1,2.6c0.1,0.2,0.1,0.3,0.2,0.5c-0.1,0.7,0,1.4,0.2,2.2
		c0.8,3.1,0.7,6.4,1,9.7c-0.1,0.4-0.2,0.8-0.2,1.2v2.5c0,0.3,0,0.6,0.1,0.9c-0.7,1.5,0,3.7,2.2,3.7c0.4,0,0.8-0.1,1.1-0.2
		c0.4,0.1,0.8,0.2,1.2,0.2c0.3,0,0.6-0.1,1-0.1c4.4-0.4,8.8,0.2,13.2,0.6c0,0,0,0,0,0c0.7,0.4,1.6,0.7,2.3,0.7c0.3,0,0.5,0,0.8-0.1
		c0.3,0.2,0.7,0.3,1.2,0.3c2,0,2.8-1.9,2.3-3.4c0-0.1,0-0.2,0.1-0.3c0.2-0.5,0.3-1.1,0.3-1.7c0.1-0.4,0.1-0.7,0.1-1.1
		c0-0.5,0.1-0.9,0.1-1.3c0.1-0.4,0.2-0.8,0.2-1.3c0-0.1,0-0.1,0-0.2c0-0.1,0-0.2,0-0.3v-0.3c0-0.2,0-0.3,0-0.5
		C34.6,103.7,34.7,103.4,34.6,103.1z"/>
	<path class="st0" d="M160,103c0-0.2,0-0.3-0.1-0.4c0.2-3.9-0.2-7.9-0.7-11.8c0-0.4-0.1-0.7-0.2-1.1c0.2-1,0.1-2-0.4-2.8
		c0-0.1,0.1-0.1,0.1-0.2c0.2-0.9-0.7-1.4-1.4-1.2c-0.4-0.3-0.9-0.5-1.4-0.6c-2.8-0.6-5.7-0.9-8.6-1c-3-0.1-5.8,0.5-8.7,0.7
		c-0.6,0-1.1,0.2-1.5,0.4c-0.2-0.1-0.4-0.1-0.7-0.1c-0.3,0.1-0.5,0.2-0.7,0.4c0,0,0,0,0,0c-0.4,0-0.9,0.1-1.3,0.2
		c-0.3,0.1-0.6,0.3-1,0.3c-0.5,0.1-1,0.4-1,1c0,0.3,0.2,0.7,0.5,0.9c-0.2,0.4-0.1,0.9,0.3,1.2c-0.1,0.6-0.2,1.2-0.1,1.9
		c0.9,5.2,1,10.4,1.2,15.6c0,0.3,0.1,0.5,0.1,0.8c-0.1,0.5-0.2,1-0.1,1.6c0,0.1,0,0.3,0,0.4c0,0,0,0.1,0,0.1c0.1,0.5,0.2,1,0.4,1.4
		c-0.4,0.3-0.5,0.8-0.3,1.3c0.4,0.9,1.3,0.8,2.1,0.8c0.2,0,0.3-0.1,0.4-0.1c0.5,0.2,1,0.3,1.6,0.3c0.9,0,1.7-0.3,2.3-0.6
		c0.3,0.1,0.7,0.2,1.1,0.2c0.3,0.1,0.7,0.1,1.1,0.1h1.3c0.3,0,0.6,0,0.9-0.1c0.5,0.3,0.9,0.5,1.5,0.6c0.5,0.2,1.1,0.2,1.7,0.2
		c0.3,0,1.1,0,1.4,0c0.5,0.2,1.2,0.2,1.7,0.2c0.4,0,0.7,0,1.1,0c0,0,1.4-0.1,0.9-0.1c0.3,0,0.7,0.1,1.1,0.1c0.2,0.2,0.4,0.3,0.7,0.4
		c1,0.1,2.1,0.3,3.1,0c1.1-0.3,1.2-1.4,1.5-2.3c0.1-0.3,0-0.6-0.1-0.8C160,108.2,160,105.6,160,103z"/>
	<path class="st0" d="M90.4,44.4c0.1-0.3,0.1-0.7,0.1-1.1c0-0.2-0.1-0.4-0.2-0.5c0-0.4,0-0.8,0.1-1.2c0-0.2-0.1-0.4-0.2-0.6
		c0-0.3,0.1-0.7,0-1.1c-0.1-3.5-0.4-7-0.6-10.5c0,0,0,0,0,0c0-0.5-0.1-1.1-0.3-1.6c0-0.1,0-0.1,0-0.2c-0.2-1.2-0.3-2.4-0.5-3.6
		c-0.1-0.5-0.7-0.8-1.2-0.7c-0.1-0.1-0.3-0.3-0.5-0.3c-0.7-0.3-1.4-0.3-2.2-0.1c0,0,0,0-0.1,0c0,0,0,0-0.1-0.1
		c-1.4-0.7-3.1-0.6-4.6-0.8c-3.9-0.4-8-0.1-11.9,0.4c-0.8,0.1-1.5,0.4-2,0.8c-0.3-0.1-0.6,0-0.9,0.2c-0.2-0.1-0.3-0.2-0.6-0.2
		c-0.5,0-0.9,0.4-1.4,0.4c-0.5,0-1,0.4-1,1c0,0.3,0.1,0.5,0.3,0.7c-0.2,0.3-0.1,0.7,0,1c0,0,0.1,0.1,0.1,0.1c0,0.1,0,0.2,0,0.2
		c0,0.2,0,0.4,0,0.6c0,0.3,0.1,0.5,0.3,0.7c-0.1,0.5-0.1,1.1,0,1.7c0.7,5,1,9.9,1.3,15c0,0.6,0.1,1.2,0.3,1.8c0,0,0,0,0,0
		c-0.1,0.8-0.1,1.5-0.2,2.3c0,0.2,0.1,0.4,0.2,0.6c-0.2,0.5,0,1.1,0.6,1.3c0.6,0.2,1.1,0.1,1.6,0c0.6-0.1,1.2-0.1,1.8,0
		c0.2,0,0.3,0,0.5-0.1c0.5,0.1,1.1,0,1.7-0.1c0.4,0.1,0.9,0.2,1.4,0.3c1.8,0.1,3.6,0,5.4,0c0.4,0.2,0.9,0.3,1.4,0.3
		c1,0.1,1.9,0.2,2.9,0.2c0.1,0,0.1,0,0.2,0c0.7,0.4,1.6,0.6,2.4,0.5c0.2,0.2,0.4,0.4,0.8,0.4c0.8,0,1.5,0,2.3,0
		c0.6,0,1.1-0.1,1.5-0.6c0.7-0.9,0.8-2.6,0.9-3.7c0-0.2,0-0.4-0.1-0.5c0-0.1,0.1-0.2,0.1-0.4l0-0.3c0.1-0.1,0.2-0.3,0.1-0.5
		c0-0.1,0-0.3,0-0.4c0.1-0.2,0.1-0.5,0.1-0.7c0,0,0-0.1-0.1-0.1c0-0.1,0-0.1,0-0.2C90.4,44.5,90.4,44.5,90.4,44.4z"/>
	<path class="st0" d="M107.3,142.1c0-0.6-0.3-1.1-0.8-1.4c0.1-0.7-0.2-1.5-0.7-2c0.1-1.3-0.2-2.6-1.1-3.6c0,0,0-0.1,0-0.1
		c-0.1-1.7-0.6-3.2-1.3-4.8c-0.6-1.6-1.6-2.9-2.2-4.5c-0.2-0.4-0.4-0.7-0.7-0.9c-0.2-0.3-0.3-0.6-0.6-0.8c-0.6-1.4-1.5-2.6-2.6-3.6
		c-0.3-0.3-0.7-0.5-1.1-0.7c-0.3-0.5-0.8-0.9-1.3-1.3c-0.2-0.1-0.4-0.2-0.6-0.3c-0.8-0.8-1.8-1.2-2.8-1.4c-0.8-0.6-1.6-1-2.6-1.4
		c-0.5-0.2-1.1-0.2-1.6-0.2c-3.2-1.3-6.7-1.2-10-0.4c-0.4,0.1-0.7,0.3-1,0.4c-0.4,0-0.8,0-1.3,0.2c-1.4,0.4-2.5,1.2-3.4,2.3
		c-0.4,0.5-0.7,1-1,1.5c-0.1,0.2-0.3,0.3-0.4,0.5c-0.8,0.8-1.2,1.9-1.3,3c-0.7,1.4-0.9,3.1-1.1,4.8c-0.3,2.6-0.7,5.3-1.1,7.9
		c-0.1,0.5-0.1,1,0,1.4c-0.3,0.6-0.6,1.3-0.6,2.1c0,0.3,0.1,0.7,0.1,1c-0.3,0.5-0.4,1.2-0.3,1.8c-0.1,0.2-0.1,0.4-0.1,0.6
		c-0.5,0.6-0.3,1.7,0.7,1.7c0.4,0,0.7-0.2,0.8-0.5c0.3,0.1,0.6,0.2,0.9,0.2c0.6,0,1-0.2,1.4-0.4c0.3,0.1,0.6,0.1,0.9,0.1
		c0.7,0,1.3-0.2,2-0.5c4-0.2,7.9-0.6,11.9-0.9c0.4,0.1,0.8,0.2,1.3,0.1c2.9-0.1,5.9,0.4,8.7,0c0.8,0.3,1.6,0.3,2.4,0
		c0.4,0.1,0.7,0.2,1.1,0.2c0.4,0.1,0.8,0.2,1.3,0.2c0.2,0,0.4,0,0.5-0.1c0.5,0.2,1,0.3,1.7,0.3c0.4,0,0.8-0.1,1.2-0.2
		c0.4,0.2,0.8,0.4,1.4,0.4c0.2,0,0.4,0,0.6-0.1c0.2,0.2,0.4,0.4,0.8,0.4c0.2,0,0.3,0,0.4-0.1c0.1,0.1,0.3,0.2,0.5,0.2
		C107.1,143.4,107.4,142.7,107.3,142.1z"/>
	<path class="st0" d="M89.9,101.5c0.2-0.4,0.3-0.9,0.3-1.4c0-0.7-0.1-1.6-0.3-2.3c0-0.2-0.1-0.3-0.1-0.3c0-0.1,0-0.3,0-0.4
		c-0.1-1.1-0.3-2.1-0.6-3.1c0-0.8-0.2-1.5-0.6-2.2c0-0.7-0.1-1.3-0.3-1.9c-0.4-1.2-1.3-2.3-3-2.7c-4.4-1-10.5-1.2-14,2.2
		c-3.8,3.8-2.2,10.4,0.4,14.4c0.1,0.1,0.2,0.2,0.3,0.4c0.3,0.9,0.8,1.7,1.5,2.3c0.4,1,1.2,1.8,2.4,2.2c0.6,1,1.5,1.7,2.8,1.9
		c0.6,0.3,1.3,0.5,2.1,0.5c0,0,0,0,0,0c0.6,0.2,1.2,0.4,1.7,0.4c0.9,0,1.9-0.3,2.7-0.9c0,0,0.1,0,0.1,0c1.1-0.4,2.1-1,2.7-2.1
		c0-0.1,0.1-0.1,0.1-0.2c0.4-0.5,0.8-1,1-1.6c0.6-0.8,1-1.7,1-2.7v-0.1c0,0,0-0.1,0-0.1c0-0.4,0-0.8,0-1.2
		C89.9,102.2,89.9,101.8,89.9,101.5z"/>
</g>
<g id="Layer_4">
	<g>
		<g>
			<g>
				<path class="st1" d="M65.9,143.2c0.8-5.9,1.4-11.8,2.4-17.6c1.5-8.3,8.4-12.4,16.5-11.1c6.9,1.1,13.2,5.1,16.4,11.4
					c2.9,5.8,4.5,12.6,6.5,18.8c0.1,0.2,0.5,0.1,0.4-0.1c-2.3-7-3.9-15.5-8.2-21.7c-3.6-5-9.8-8.2-15.9-9
					c-5.2-0.6-11.1,0.9-14.1,5.5c-1.8,2.8-2.1,6.2-2.5,9.4c-0.7,4.7-1.3,9.5-2,14.2C65.4,143.3,65.8,143.4,65.9,143.2L65.9,143.2z"
					/>
			</g>
		</g>
		<g>
			<g>
				<path class="st1" d="M66.5,144c14.4-2.3,28.9-2.3,43.3,0c0.3,0,0.4-0.4,0.1-0.4c-14.5-2.3-29-2.3-43.5,0
					C66.2,143.7,66.3,144.1,66.5,144L66.5,144z"/>
			</g>
		</g>
		<g>
			<g>
				<path class="st1" d="M88.5,89.5c-1.8-4.3-11.4-3.7-14.9-2.2c-6.8,3-5.7,11.1-2.6,16.5c2.8,4.9,8.3,9.7,14.2,7.1
					c7.1-3,5-14.4,3.4-20.1c-0.1-0.3-0.5-0.1-0.4,0.1c1.4,5.1,3.5,15.5-2.2,19.1c-5.3,3.4-11.2-0.9-14.1-5.3
					C69,99.9,66.6,92,72.7,88.2c3-1.9,13.6-3,15.4,1.4C88.2,89.8,88.6,89.7,88.5,89.5L88.5,89.5z"/>
			</g>
		</g>
		<g>
			<g>
				<path class="st2" d="M77.8,74.4c2.2-0.4,4.4-0.8,6.6-1.2c-0.8-2.8-1.7-5.5-2.5-8.3c0-0.2-0.1-0.4,0-0.5c0.1-0.2,0.3-0.2,0.5-0.2
					c0.9-0.1,1.7-0.1,2.6-0.2c0.2-1.3-1-2.4-2-3.3c-1.5-1.4-2.8-3.2-3.7-5c-2.4,3.2-4.7,6.3-7.1,9.5c0.9-0.1,1.7-0.1,2.6-0.2
					c0.1,0,0.2,0,0.3,0.1c0.1,0.1,0.1,0.3,0.1,0.4c0.1,2.9,0.2,5.8,0.4,8.8"/>
			</g>
		</g>
		<g>
			<g>
				<path class="st2" d="M108.8,96.4c0.4,2.2,0.8,4.4,1.2,6.6c2.8-0.8,5.5-1.7,8.3-2.5c0.2,0,0.4-0.1,0.5,0c0.2,0.1,0.2,0.3,0.2,0.5
					c0.1,0.9,0.1,1.7,0.2,2.6c1.3,0.2,2.4-1,3.3-2c1.4-1.5,3.2-2.8,5-3.7c-3.2-2.4-6.3-4.7-9.5-7.1c0.1,0.9,0.1,1.7,0.2,2.6
					c0,0.1,0,0.2-0.1,0.3c-0.1,0.1-0.3,0.1-0.4,0.1c-2.9,0.1-5.8,0.2-8.8,0.4"/>
			</g>
		</g>
		<g>
			<g>
				<path class="st2" d="M56.1,100.8c-0.4-2.2-0.8-4.4-1.2-6.6c-2.8,0.8-5.5,1.7-8.3,2.5c-0.2,0-0.4,0.1-0.5,0
					c-0.2-0.1-0.2-0.3-0.2-0.5c-0.1-0.9-0.1-1.7-0.2-2.6c-1.3-0.2-2.4,1-3.3,2c-1.4,1.5-3.2,2.8-5,3.7c3.2,2.4,6.3,4.7,9.5,7.1
					c-0.1-0.9-0.1-1.7-0.2-2.6c0-0.1,0-0.2,0.1-0.3c0.1-0.1,0.3-0.1,0.4-0.1c2.9-0.1,5.8-0.2,8.8-0.4"/>
			</g>
		</g>
		<g>
			<g>
				<path class="st1" d="M62.3,24.2c1.3,8.6,1.9,17.1,1.9,25.8c0,0.3,0.5,0.3,0.5,0c0-8.7-0.7-17.3-2-25.9
					C62.8,23.7,62.3,23.8,62.3,24.2L62.3,24.2z"/>
			</g>
		</g>
		<g>
			<g>
				<path class="st1" d="M64.6,23.7c7.9-2.2,15.7-2.1,23.6,0c0.3,0.1,0.5-0.4,0.1-0.5c-7.9-2.2-15.9-2.2-23.9,0
					C64.2,23.3,64.3,23.8,64.6,23.7L64.6,23.7z"/>
			</g>
		</g>
		<g>
			<g>
				<path class="st1" d="M88.5,23.5c0.8,4.3,1.4,8.6,1.6,12.9c0.1,3.7,0.9,9.7-0.6,13c0.3,2-0.6,2.8-2.9,2.3
					c-0.9-0.1-1.8-0.2-2.8-0.3c-1.8-0.2-3.7-0.4-5.5-0.6c-4-0.4-8-0.5-12-0.2c-0.3,0-0.3,0.5,0,0.5c5.6-0.4,11,0.1,16.6,0.6
					c1.6,0.2,5.3,1.3,6.6,0.2c0.7-0.6,0.6-3.5,0.7-4.4c0.3-2.8,0.4-5.6,0.4-8.4c0-5.3-0.6-10.6-1.6-15.9C89,23,88.5,23.2,88.5,23.5
					L88.5,23.5z"/>
			</g>
		</g>
		<g>
			<g>
				<path class="st1" d="M68.7,27.9c2.3-2.5,4-0.1,6.3,0.3c2,0.3,4.3-0.1,6.3-0.1c0.3,0,0.3-0.5,0-0.5c-1.5,0-3.1,0.1-4.6,0.1
					c-1.3,0-2.3-0.2-3.5-0.8c-0.3-0.2-0.6-0.4-1-0.5c-1.5-0.5-2.9,0-4,1.2C68.1,27.8,68.5,28.1,68.7,27.9L68.7,27.9z"/>
			</g>
		</g>
		<g>
			<g>
				<path class="st1" d="M69.5,32.6c4.2-1.3,6.8,0,10.5,1.7c1.9,0.8,3.2,0.1,5.1-0.3c0.3-0.1,0.2-0.6-0.1-0.5
					c-2,0.4-3.7,0.6-5.7-0.2c-1.2-0.5-2.1-1.1-3.3-1.4c-2.2-0.6-4.5-0.4-6.7,0.3C69,32.2,69.2,32.7,69.5,32.6L69.5,32.6z"/>
			</g>
		</g>
		<g>
			<g>
				<path class="st1" d="M69.8,36c1.4,1.4,3,0.5,4.8,0.5c3.6,0,7.3,1.3,10.8,2.1c0.3,0.1,0.5-0.4,0.1-0.5c-2.7-0.6-5.4-1.2-8.1-1.8
					c-0.7-0.1-1.6-0.4-2.3-0.5c-1.4-0.1-4,0.8-5-0.2C70,35.4,69.6,35.7,69.8,36L69.8,36z"/>
			</g>
		</g>
		<g>
			<g>
				<path class="st1" d="M131.9,86.2c1.3,8.6,1.9,17.1,1.9,25.8c0,0.3,0.5,0.3,0.5,0c0-8.7-0.7-17.3-2-25.9
					C132.4,85.7,131.9,85.9,131.9,86.2L131.9,86.2z"/>
			</g>
		</g>
		<g>
			<g>
				<path class="st1" d="M134.3,85.8c7.9-2.2,15.7-2.1,23.6,0c0.3,0.1,0.5-0.4,0.1-0.5c-7.9-2.2-15.9-2.2-23.9,0
					C133.8,85.4,133.9,85.9,134.3,85.8L134.3,85.8z"/>
			</g>
		</g>
		<g>
			<g>
				<path class="st1" d="M158.1,85.5c0.8,4.3,1.4,8.6,1.6,12.9c0.1,3.7,0.9,9.7-0.6,13c0.3,2-0.6,2.8-2.9,2.3
					c-0.9-0.1-1.8-0.2-2.8-0.3c-1.8-0.2-3.7-0.4-5.5-0.6c-4-0.4-8-0.5-12-0.2c-0.3,0-0.3,0.5,0,0.5c5.6-0.4,11,0.1,16.6,0.6
					c1.6,0.2,5.3,1.3,6.6,0.2c0.7-0.6,0.6-3.5,0.7-4.4c0.3-2.8,0.4-5.6,0.4-8.4c0-5.3-0.6-10.6-1.6-15.9
					C158.6,85.1,158.1,85.2,158.1,85.5L158.1,85.5z"/>
			</g>
		</g>
		<g>
			<g>
				<path class="st1" d="M138.3,89.9c2.3-2.5,4-0.1,6.3,0.3c2,0.3,4.3-0.1,6.3-0.1c0.3,0,0.3-0.5,0-0.5c-1.5,0-3.1,0.1-4.6,0.1
					c-1.3,0-2.3-0.2-3.5-0.8c-0.3-0.2-0.6-0.4-1-0.5c-1.5-0.5-2.9,0-4,1.2C137.7,89.8,138.1,90.2,138.3,89.9L138.3,89.9z"/>
			</g>
		</g>
		<g>
			<g>
				<path class="st1" d="M139.1,94.7c4.2-1.3,6.8,0,10.5,1.7c1.9,0.8,3.2,0.1,5.1-0.3c0.3-0.1,0.2-0.6-0.1-0.5
					c-2,0.4-3.7,0.6-5.7-0.2c-1.2-0.5-2.1-1.1-3.3-1.4c-2.2-0.6-4.5-0.4-6.7,0.3C138.6,94.3,138.8,94.8,139.1,94.7L139.1,94.7z"/>
			</g>
		</g>
		<g>
			<g>
				<path class="st1" d="M139.5,98c1.4,1.4,3,0.5,4.8,0.5c3.6,0,7.3,1.3,10.8,2.1c0.3,0.1,0.5-0.4,0.1-0.5c-2.7-0.6-5.4-1.2-8.1-1.8
					c-0.7-0.1-1.6-0.4-2.3-0.5c-1.4-0.1-4,0.8-5-0.2C139.6,97.4,139.2,97.8,139.5,98L139.5,98z"/>
			</g>
		</g>
		<g>
			<g>
				<path class="st1" d="M6.5,86.2c1.3,8.6,1.9,17.1,1.9,25.8c0,0.3,0.5,0.3,0.5,0c0-8.7-0.7-17.3-2-25.9
					C6.9,85.7,6.4,85.9,6.5,86.2L6.5,86.2z"/>
			</g>
		</g>
		<g>
			<g>
				<path class="st1" d="M8.8,85.8c7.9-2.2,15.7-2.1,23.6,0c0.3,0.1,0.5-0.4,0.1-0.5c-7.9-2.2-15.9-2.2-23.9,0
					C8.4,85.4,8.5,85.9,8.8,85.8L8.8,85.8z"/>
			</g>
		</g>
		<g>
			<g>
				<path class="st1" d="M32.7,85.5c0.8,4.3,1.4,8.6,1.6,12.9c0.1,3.7,0.9,9.7-0.6,13c0.3,2-0.6,2.8-2.9,2.3
					c-0.9-0.1-1.8-0.2-2.8-0.3c-1.8-0.2-3.7-0.4-5.5-0.6c-4-0.4-8-0.5-12-0.2c-0.3,0-0.3,0.5,0,0.5c5.6-0.4,11,0.1,16.6,0.6
					c1.6,0.2,5.3,1.3,6.6,0.2c0.7-0.6,0.6-3.5,0.7-4.4c0.3-2.8,0.4-5.6,0.4-8.4c0-5.3-0.6-10.6-1.6-15.9
					C33.1,85.1,32.6,85.2,32.7,85.5L32.7,85.5z"/>
			</g>
		</g>
		<g>
			<g>
				<path class="st1" d="M12.9,89.9c2.3-2.5,4-0.1,6.3,0.3c2,0.3,4.3-0.1,6.3-0.1c0.3,0,0.3-0.5,0-0.5c-1.5,0-3.1,0.1-4.6,0.1
					c-1.3,0-2.3-0.2-3.5-0.8c-0.3-0.2-0.6-0.4-1-0.5c-1.5-0.5-2.9,0-4,1.2C12.3,89.8,12.7,90.2,12.9,89.9L12.9,89.9z"/>
			</g>
		</g>
		<g>
			<g>
				<path class="st1" d="M13.6,94.7c4.2-1.3,6.8,0,10.5,1.7c1.9,0.8,3.2,0.1,5.1-0.3c0.3-0.1,0.2-0.6-0.1-0.5
					c-2,0.4-3.7,0.6-5.7-0.2c-1.2-0.5-2.1-1.1-3.3-1.4c-2.2-0.6-4.5-0.4-6.7,0.3C13.2,94.3,13.3,94.8,13.6,94.7L13.6,94.7z"/>
			</g>
		</g>
		<g>
			<g>
				<path class="st1" d="M14,98c1.4,1.4,3,0.5,4.8,0.5c3.6,0,7.3,1.3,10.8,2.1c0.3,0.1,0.5-0.4,0.1-0.5c-2.7-0.6-5.4-1.2-8.1-1.8
					c-0.7-0.1-1.6-0.4-2.3-0.5c-1.4-0.1-4,0.8-5-0.2C14.2,97.4,13.8,97.8,14,98L14,98z"/>
			</g>
		</g>
	</g>
</g>
</svg>
