<?xml version="1.0" encoding="utf-8"?>
<!-- Generator: Adobe Illustrator 21.0.2, SVG Export Plug-In . SVG Version: 6.00 Build 0)  -->
<svg version="1.1" xmlns="http://www.w3.org/2000/svg" xmlns:xlink="http://www.w3.org/1999/xlink" x="0px" y="0px"
	 viewBox="0 0 166 166" style="enable-background:new 0 0 166 166;" xml:space="preserve">
<style type="text/css">
	.st0{fill:#FFFFFF;}
	.st1{fill:#006837;}
	.st2{fill:#1A1A1A;}
	.st3{fill:#666666;}
</style>
<g id="Layer_4">
	<path class="st0" d="M99.8,53.8v-0.3c0-1.2-0.2-2.3-0.7-3.3c-0.3-1.1-0.9-2-1.8-2.7c-0.8-0.8-1.7-1.4-2.7-1.8
		c-1-0.5-2.1-0.8-3.3-0.7c-2.2,0.1-4.5,0.8-6,2.5c-0.3,0.4-0.7,0.8-0.9,1.2c-2.7,0.2-5.4,1.4-7.3,3.5c-1,1.1-1.7,2.4-2.2,3.8
		c-4.8-1-10.5,1.6-10.5,8c0,0.6,0,1.2,0,1.7C60.8,62,56.3,59,53.3,54.8c-4.5-6.3-8.8-12.7-15.8-16.5c-9.6-5.2-18.2,9.4-8.6,14.7
		c4.6,2.5,7.2,6.8,10.1,11c0.7,1,1.5,2,2.2,2.9c-0.4-0.1-0.9-0.2-1.3-0.2c-7-1.4-14.2-2.9-21.2-1.2c-1.4-1.9-3.5-3.2-6.5-3.2
		c-8.6,0-10.4,10.4-5.6,14.9c-0.2,3.7,1.2,7.7,1.8,11.2c1.7,8.8,4.4,18,4.6,26.9c0,1,0.2,2,0.5,2.8c0.8,3.4,3.4,6.4,8,6.4
		c0.7,0,1.4-0.1,2-0.2c8.3,1.2,16.6,2.4,24.9,3.8c1.2,0.2,2.5,0.2,3.7,0c1,0.5,2.2,0.7,3.6,0.7c3.8,0,6.3-2.1,7.4-4.7
		c0.5-0.2,1.1-0.4,1.6-0.7c2.7-1.3,4.8-3.5,6.8-5.6c0.4-0.4,0.7-0.7,1.1-1.1c0,0,0.6-0.5,0.9-0.8c0.3-0.2,1-0.7,1.1-0.8
		c0.7-0.4,1.3-0.8,2-1.2c0.6-0.4,1.2-0.8,1.7-1.3c0.7-0.1,1.3-0.3,1.9-0.6c1.1-0.3,2-0.9,2.7-1.8c0.8-0.7,1.3-1.6,1.7-2.6
		c1.9-0.6,3.7-2,4.8-3.8c0.8-0.3,1.5-0.8,2.1-1.4c2.7-1.8,3.9-5.1,3.6-8.3c1-1.4,1.6-3.1,1.6-4.9V88c0-1-0.1-1.9-0.5-2.7
		c1.7-9.4,2.9-19,3.7-28.5C100.1,55.7,100,54.7,99.8,53.8z"/>
</g>
<g id="Layer_3">
	<g>
		<path class="st0" d="M120.5,70.8c-4.4-1.3-7-5.7-9.2-9.8c-2.4,4.7-6.3,8.5-11.1,10.8c2.3,0.2,4.5,0.6,6.7,1.3
			c-2.9,2.1-5.8,3.9-8.9,5.6c2.3,0.6,4.7,0.9,7.1,1.1c-2.8,2-5.8,3.9-8.8,5.6c3.5,0.8,7.2,1.1,10.8,0.7c0.4,0,0.8-0.1,1.2,0.1
			c1.9,0.8-0.8,4.8,1.2,5.5c1,0.4,1.9-1,1.9-2.1c0-1.1-0.5-2.3,0-3.3c4.1,1,8.4,1,12.5,0c-1.4-1.4-3.6-1.3-5.6-1.5
			c-1.9-0.3-4.2-1.7-3.7-3.7c2.5,0.7,5.1,1.2,7.7,1.6c-0.7-2.1-3.5-2.1-5.6-2.8c-1.8-0.6-3.3-2-4.1-3.7c-0.1-0.3-0.2-0.6-0.1-0.9
			c0.2-0.4,0.7-0.4,1.1-0.4c2,0,4,0,6,0c0.9,0,2,0,2.6-0.8c0.6-0.7,0-2.2-0.9-1.8"/>
		<g>
			<path class="st1" d="M120.6,70.5c-4.5-1.7-6.9-5.6-9.1-9.7c-0.1-0.2-0.4-0.2-0.5,0c-2.6,4.7-6.2,8.3-11,10.7
				c-0.3,0.1-0.1,0.5,0.1,0.5c1.7,0.1,3.3,0.4,4.9,0.8c0.4,1,0,1.7-1.3,1.9c-1.5,1.5-4.2,2.6-6,3.6c-0.2,0.1-0.2,0.5,0.1,0.5
				c0.8,0.2,5.6,0.6,5.6,1.6c0,1-6.5,4.1-7.4,4.6c-0.2,0.1-0.2,0.5,0.1,0.5c2.4,0.5,4.8,0.9,7.3,0.9c0.8,0,3-0.5,3.6-0.2
				c1.1,0.6,1.1,2.6,1.4,3.4c0.3,0.9-0.2,1.8,1,2.1c1.6,0.4,1.8-1.4,2.2-2.4c0.7-1.9-0.7-1.7,1.4-2.6c0.4-0.2,3.4,0.4,3.6,0.4
				c2.5,0.1,4.8-0.3,7.2-0.8c0.2-0.1,0.3-0.4,0.1-0.5c-1.5-1-2.7-0.8-4.2-1.4c-1.3-1-2.5-1.9-3.8-2.9c0.5,0.1,1,0.2,1.5,0.4
				c1.5,0.1,3.2,0.6,4.7,0.8c0.2,0,0.4-0.2,0.3-0.4c-1.1-2-2.7-2-4.7-2.7c-1.9-0.1-3-1-3.3-2.8c-1.6-1.8-1.4-2.4,0.5-1.9
				c1.7-0.6,4.2,0.7,5.9-0.1c1.5-0.7,2.6-2.5,0.3-3c-0.3-0.1-0.5,0.5-0.1,0.5c-0.5,1.8-1.6,2.4-3.1,2c-1,0-2,0-3,0
				c0,0-1.9-0.2-2.3,0.1c-0.8,0.6-0.5,0.4-0.5,1.5c0,1.7,3.1,3.4,4.2,3.9c0.9,0.3,4.4,0.7,4.2,2.1c0,0.1-5.7-1.2-6.2-1.3
				c-0.2,0-0.4,0.1-0.4,0.3c0,1.8,0.9,2.9,2.7,3.6c1.3,0.5,2.6,0.3,3.9,1.1c2.5,1.5-2.1,0.9-3.3,1c-2.1,0-4.1-0.3-6.2-0.7
				c-0.2,0-0.3,0.1-0.4,0.3c0.3,1.5-0.4,2.4-1.9,2.7c0-0.3,0.1-0.6,0.1-0.9c-0.1-0.1,0.2-0.9,0-1c0,0-0.7-1.2-0.9-1.3
				c-1.3-1-9.8,1.6-10.2-0.4c-0.3-1.5,5.8-4.6,7.1-5.5c0.2-0.2,0.1-0.5-0.1-0.5c-1.8-0.1-3.5-0.3-5.3-0.7c-0.5-0.9,0-1.5,1.3-1.7
				c1.6-1.5,4-2.6,5.9-3.9c0.2-0.1,0.2-0.4-0.1-0.5c-0.4-0.1-5-1-5-1.1c-0.2-0.8,1.3-1.3,2.1-1.8c2.2-1.6,4.1-3.5,5.6-5.7
				c2.5-3.5,2.9,0,4.8,2.4c1.7,2.1,3.5,3.5,6,4.5C120.7,71.1,120.9,70.6,120.6,70.5L120.6,70.5z"/>
		</g>
	</g>
	<g>
		<path class="st0" d="M5.7,65.6c6.7-9.7,14.2-18.8,22.3-27.3c7.1,13.9,17.5,26.2,30.2,35.3c-17-3.3-34.1-6-51.3-8.1"/>
		<g>
			<path class="st2" d="M6.4,65.9C11,59.4,15.8,53.1,21.1,47c1.2-1.4,5.3-7.5,7.1-7c0.4,0.1,2.1,3.8,2.4,4.2
				c0.8,1.4,1.7,2.8,2.6,4.1c6.6,10,15.1,18.7,24.7,25.8c0.2-0.5,0.4-0.9,0.6-1.4c-17.1-3.3-34.2-6-51.5-8.1c-1-0.1-0.9,1.4,0,1.5
				c17.1,2.1,34.1,4.8,51.1,8c0.9,0.2,1.3-0.9,0.6-1.4C46,63.7,35.9,51.8,28.7,37.9c-0.2-0.4-0.9-0.5-1.2-0.2
				c-8.1,8.6-15.6,17.7-22.4,27.4C4.5,66,5.8,66.7,6.4,65.9L6.4,65.9z"/>
		</g>
	</g>
	<g>
		<path class="st0" d="M29,37.6c12.6-6.3,26-11,39.8-14c0.9-0.2,1.8-0.4,2.7-0.1c0.9,0.3,1.7,0.9,2.3,1.6c8,7.6,16,15.2,24,22.8
			C85,56.8,72.2,65.7,59.3,74.6"/>
		<g>
			<path class="st2" d="M29.3,38.2c9.3-4.6,19-8.4,28.9-11.2c5.8-1.7,11.2-4.1,16.5-0.1c3.8,2.9,7.1,6.8,10.6,10.1
				c1.6,1.6,3.3,3.1,4.9,4.7c0.9,0.9,5.6,4.2,5.7,5.4c0.2,2.9-8.9,7.4-11.3,9.1C76.1,62.1,67.5,68,58.9,73.9c-0.8,0.5,0,1.8,0.8,1.3
				c12.9-8.9,25.7-17.8,38.6-26.8c0.4-0.3,0.5-0.8,0.2-1.2c-5.7-5.4-11.3-10.7-17-16.1c-3.3-3.2-7.1-9-12.2-8.5
				c-7,0.8-14.4,3.6-21,5.9C41.5,31,35,33.8,28.6,36.9C27.7,37.4,28.5,38.7,29.3,38.2L29.3,38.2z"/>
		</g>
	</g>
	<g>
		<path class="st0" d="M3.8,67.3c3.6,18.6,7.2,37.2,10.8,55.8"/>
		<g>
			<path class="st2" d="M3,67.5c3.6,18.6,7.2,37.2,10.8,55.8c0.2,0.9,1.6,0.5,1.4-0.4c-3.6-18.6-7.2-37.2-10.8-55.8
				C4.3,66.2,2.9,66.6,3,67.5L3,67.5z"/>
		</g>
	</g>
	<g>
		<path class="st0" d="M58.8,76.3c-0.9,15.7-1.7,31.5-2.6,47.2"/>
		<g>
			<path class="st2" d="M58.1,76.3c-0.9,15.7-1.7,31.5-2.6,47.2c-0.1,1,1.4,1,1.5,0c0.9-15.7,1.7-31.5,2.6-47.2
				C59.6,75.3,58.1,75.3,58.1,76.3L58.1,76.3z"/>
		</g>
	</g>
	<g>
		<path class="st0" d="M16.9,123.9c13,2.5,26.3,4.2,39.5,5.1"/>
		<g>
			<path class="st2" d="M16.7,124.6c13.1,2.5,26.4,4.2,39.7,5.2c1,0.1,1-1.4,0-1.5c-13.2-0.9-26.3-2.7-39.3-5.1
				C16.2,123,15.8,124.4,16.7,124.6L16.7,124.6z"/>
		</g>
	</g>
	<g>
		<path class="st0" d="M99.2,50.3c0.5,15.6,0.9,31.5-3.9,46.3"/>
		<g>
			<path class="st3" d="M98.5,50.3c0.5,15.5,0.8,31.1-3.9,46.1c-0.3,0.9,1.2,1.3,1.4,0.4c4.7-15.1,4.4-30.8,3.9-46.5
				C99.9,49.3,98.4,49.3,98.5,50.3L98.5,50.3z"/>
		</g>
	</g>
	<g>
		<path class="st0" d="M57.9,129.3c14.2-10.9,28.3-21.9,42.4-33"/>
		<g>
			<path class="st2" d="M58.3,129.9c14.3-10.9,28.4-22,42.5-33.1c0.8-0.6-0.3-1.7-1.1-1.1c-14,11.1-28,22.1-42.2,32.9
				C56.8,129.2,57.5,130.5,58.3,129.9L58.3,129.9z"/>
		</g>
	</g>
	<g>
		<path class="st0" d="M25.5,123.2c-1.1-7.7-0.9-15.5,0.4-23.1c0.1-0.3,0.1-0.6,0.4-0.8c0.2-0.2,0.5-0.1,0.8-0.1
			c3.2,0.3,6.5,0.6,9.7,0.9c0.2,0,0.5,0,0.6,0.2c0.2,0.2,0.2,0.5,0.2,0.7c0.2,8.6,0.4,17.3,0.6,25.9"/>
		<g>
			<path class="st2" d="M26.3,123.2c-0.6-4.5-0.8-9-0.6-13.5c0.1-1.7,0-6.3,0.7-7.5c1.5-2.6,5.2-2.5,7.6-1.7
				c4.5,1.5,3.2,8.3,3.3,12.4c0.1,4.6,0.2,9.3,0.3,13.9c0,1,1.5,1,1.5,0c-0.2-7.6-0.4-15.3-0.6-22.9c-0.1-5.1-0.5-4.6-5.6-5
				c-4.6-0.4-7.3-2.1-8.1,2.9c-1.1,7.1-1,14.3-0.1,21.4C24.9,124.1,26.4,124.1,26.3,123.2L26.3,123.2z"/>
		</g>
	</g>
	<g>
		<path class="st0" d="M64.2,80.6c0,1.6,0,3.2,0,4.8c0,5.6,0,11.2-1,16.7"/>
		<g>
			<path class="st2" d="M63.4,80.6c0,7.1,0.1,14.3-1,21.4c-0.1,0.9,1.3,1.3,1.4,0.4c1.1-7.2,1-14.5,1-21.8
				C64.9,79.6,63.4,79.6,63.4,80.6L63.4,80.6z"/>
		</g>
	</g>
	<g>
		<path class="st0" d="M65.1,80.2c2.9-1.6,5.7-3.3,8.6-4.9c1,6-1.1,12.1-1.5,18.2c-0.1,1-0.1,2.1-0.6,3.1c-1.2,2.1-4.3,2.2-5.7,4.1"
			/>
		<g>
			<path class="st2" d="M65.4,80.9c2.9-1.6,5.7-3.3,8.6-4.9c-0.4-0.2-0.8-0.4-1.1-0.6c0.5,4.9-0.5,9.6-1.1,14.5
				c-0.4,3.2-0.5,6.1-3.4,8.1c-1.1,0.8-2.1,1.1-3.1,2.1c-0.7,0.7,0.4,1.7,1.1,1.1c2.9-2.9,5.8-2.4,6.5-6.9c1-6.1,2.3-12.8,1.6-19
				c-0.1-0.5-0.6-1-1.1-0.6c-2.9,1.6-5.7,3.3-8.6,4.9C63.8,80.1,64.6,81.4,65.4,80.9L65.4,80.9z"/>
		</g>
	</g>
	<g>
		<path class="st0" d="M81.7,69.6c0.1,6.9,0.1,13.8-0.1,20.6"/>
		<g>
			<path class="st2" d="M80.9,69.6c0.1,6.9,0.1,13.8-0.1,20.6c0,1,1.5,1,1.5,0c0.2-6.9,0.2-13.7,0.1-20.6
				C82.4,68.7,80.9,68.7,80.9,69.6L80.9,69.6z"/>
		</g>
	</g>
	<g>
		<path class="st0" d="M81.4,68c3.2-1.9,6.5-3.7,9.8-5.4c0,6.6-0.4,13.3-1.2,19.9c-0.1,0.5-0.1,1.1-0.5,1.5
			c-0.4,0.5-1.2,0.7-1.8,0.8c-2.2,0.4-4.5,1.2-5.7,3.1"/>
		<g>
			<path class="st2" d="M81.8,68.6c3.2-1.9,6.5-3.7,9.8-5.4c-0.4-0.2-0.8-0.4-1.1-0.6c-0.1,5.3,0.1,11-0.8,16.3
				c-0.3,1.6-0.6,4.2-2.1,5.1c-0.6,0.4-1.9,0.4-2.6,0.7c-1.5,0.6-2.4,1.4-3.4,2.6c-0.6,0.7,0.5,1.8,1.1,1.1c2.6-3.2,7.2-1.7,8.2-5.9
				c1.5-6.2,1.1-13.5,1.2-19.9c0-0.6-0.6-0.9-1.1-0.6c-3.3,1.7-6.6,3.5-9.8,5.4C80.2,67.8,80.9,69.1,81.8,68.6L81.8,68.6z"/>
		</g>
	</g>
	<g>
		<path class="st0" d="M123.1,64.3c6.9-2.1,11-9,14.4-15.3c3.7,7.3,10,13.4,17.4,16.9c-3.5,0.3-7,1-10.4,2c4.5,3.2,9.1,6.2,14,8.8
			c-3.7,0.9-7.4,1.5-11.2,1.7c4.4,3.2,9.1,6.1,13.8,8.8c-5.5,1.3-11.3,1.7-17,1c-0.6-0.1-1.3-0.1-1.9,0.1c-2.9,1.3,1.2,7.5-1.8,8.6
			c-1.6,0.6-3-1.5-2.9-3.3c0-1.7,0.7-3.5,0-5.1c-6.4,1.5-13.2,1.5-19.6,0c2.2-2.2,5.7-2,8.7-2.4c3.1-0.4,6.6-2.7,5.8-5.7
			c-4,1.1-8,1.9-12.1,2.5c1-3.3,5.5-3.4,8.8-4.4c2.8-0.9,5.2-3.1,6.5-5.8c0.2-0.4,0.4-0.9,0.1-1.4c-0.3-0.6-1.1-0.7-1.7-0.7
			c-3.2,0-6.3,0-9.5,0c-1.4,0-3.1-0.1-4-1.2c-0.9-1.1,0-3.4,1.4-2.9"/>
		<g>
			<path class="st1" d="M123.2,64.7c3.8-1.3,6.7-3.6,9.2-6.7c1.3-1.6,2.3-3.3,3.4-5c0.6-0.9,1-2.6,2.1-2.5c0.4,0,1.8,2.9,2.1,3.3
				c2.4,3.4,5.4,6.4,8.8,8.9c0.8,0.6,4.5,2.8,4.4,2.9c-0.4,0.6-7.9,1.6-8.7,1.8c-0.4,0.1-0.4,0.6-0.1,0.8c3.3,2.3,6.6,4.5,10,6.6
				c0.8,0.5,1.6,0.9,2.4,1.4c0,0.6-0.3,0.9-1.1,0.7c-1,1.2-6.5,0.9-8.3,1c-0.4,0-0.6,0.6-0.2,0.8c1.8,1.3,12.2,6.9,12.1,8.4
				c-0.1,0.9-9.9,0.9-11.2,0.9c-1.6-0.1-3.8-0.8-5.3-0.2c-1.4,0.5-1.7,1.2-1.9,2.7c-0.1,0.9,0.8,3.5,0.4,4c-1.1-0.3-2.2-0.6-3.2-0.8
				c0.1-0.6,0.1-1.2,0.2-1.7c1.3,4.5-0.9-7.8-0.2-3.5c0-0.2-0.3-0.3-0.5-0.3c-4.1,0.9-8.2,1.3-12.4,1c-1.8-0.1-7.7-0.1-3.6-2
				c1.5-0.7,3.7-0.4,5.3-0.7c3.3-0.7,6.4-2.4,6.2-6.2c0-0.3-0.3-0.5-0.5-0.4c-2.4,0.6-6.2,2.3-8.6,1.9c-0.6,0.1-1.2,0.2-1.7,0.3
				c0.1-1,0.6-1.6,1.6-1.7c0.9-0.6,2.3-0.7,3.4-1c3.2-0.8,5.9-2,7.9-4.7c0.7-1,2-2.7,1.1-3.9c-0.8-1.1-2.9-0.7-3.9-0.7
				c-1.3,0-2.5,0-3.8,0c-0.9,0-1.9,0-2.8,0c-1.8,0.3-3-0.8-3.6-3.2c0.6,0,0.6-0.9,0-0.9c-1.3,0.1-2.4,0.9-2.2,2.4
				c0.3,2.6,3.9,2.5,5.7,2.5c1.6,0,7.3-1,8.5,0c3.9,3.2-5.4,7.1-7.3,7.6c-2.8,0.7-5.4,1.2-6.7,4c-0.2,0.4,0.1,0.7,0.5,0.6
				c2.3-0.3,4.7-0.7,7-1.2c0.3-0.1,3.4-0.9,3.4-0.8c-1,1.4-2,2.8-3,4.1c-1.1,0.2-2.1,0.4-3.2,0.5c-2.7,0.3-4.9,0.6-7,2.3
				c-0.3,0.2-0.1,0.7,0.2,0.7c3.3,0.7,6.5,1.2,9.9,1.2c1.8,0,3.6-0.1,5.4-0.3c1.9-0.2,2.2-0.8,3.5,0.9c0.9,1.3,0,7.8,3.9,6.7
				c1.8-0.5,1.6-2.4,1.5-3.9c-0.1-2.1-0.4-3.9,2.2-4.8c1.4-0.5,4.1,0.3,5.7,0.3c3.9,0,7.6-0.5,11.4-1.4c0.4-0.1,0.4-0.6,0.1-0.8
				c-2.1-1.2-4.2-2.4-6.3-3.7c-1.3-0.8-4.5-2.2-5.3-3.5c-0.7-0.1-0.9-0.4-0.6-0.9c1.3-0.1,2.5-0.2,3.7-0.4c1.9-0.3,3.8-0.7,5.7-1.1
				c0.4-0.1,0.4-0.6,0.1-0.8c-3.5-2-6.9-4-10.2-6.2c-1.7-1.1-3-1.3-1.3-2.5c1.5-1.1,6.3-1.1,7.8-1.3c0.4,0,0.6-0.6,0.2-0.8
				c-7.5-3.7-13.3-9.4-17.2-16.8c-0.2-0.3-0.6-0.3-0.7,0C133.8,55,130,61.4,123,63.9C122.5,64.1,122.7,64.9,123.2,64.7L123.2,64.7z"
				/>
		</g>
	</g>
	<g>
		<path class="st0" d="M120.5,70.8c-4.4-1.3-7-5.7-9.2-9.8c-2.4,4.7-6.3,8.5-11.1,10.8c2.3,0.2,4.5,0.6,6.7,1.3
			c-2.9,2.1-5.8,3.9-8.9,5.6c2.3,0.6,4.7,0.9,7.1,1.1c-2.8,2-5.8,3.9-8.8,5.6c3.5,0.8,7.2,1.1,10.8,0.7c0.4,0,0.8-0.1,1.2,0.1
			c1.9,0.8-0.8,4.8,1.2,5.5c1,0.4,1.9-1,1.9-2.1c0-1.1-0.5-2.3,0-3.3c4.1,1,8.4,1,12.5,0c-1.4-1.4-3.6-1.3-5.6-1.5
			c-1.9-0.3-4.2-1.7-3.7-3.7c2.5,0.7,5.1,1.2,7.7,1.6c-0.7-2.1-3.5-2.1-5.6-2.8c-1.8-0.6-3.3-2-4.1-3.7c-0.1-0.3-0.2-0.6-0.1-0.9
			c0.2-0.4,0.7-0.4,1.1-0.4c2,0,4,0,6,0c0.9,0,2,0,2.6-0.8c0.6-0.7,0-2.2-0.9-1.8"/>
		<g>
			<path class="st1" d="M120.6,70.5c-4.5-1.7-6.9-5.6-9.1-9.7c-0.1-0.2-0.4-0.2-0.5,0c-2.6,4.7-6.2,8.3-11,10.7
				c-0.3,0.1-0.1,0.5,0.1,0.5c1.7,0.1,3.3,0.4,4.9,0.8c0.4,1,0,1.7-1.3,1.9c-1.5,1.5-4.2,2.6-6,3.6c-0.2,0.1-0.2,0.5,0.1,0.5
				c0.8,0.2,5.6,0.6,5.6,1.6c0,1-6.5,4.1-7.4,4.6c-0.2,0.1-0.2,0.5,0.1,0.5c2.4,0.5,4.8,0.9,7.3,0.9c0.8,0,3-0.5,3.6-0.2
				c1.1,0.6,1.1,2.6,1.4,3.4c0.3,0.9-0.2,1.8,1,2.1c1.6,0.4,1.8-1.4,2.2-2.4c0.7-1.9-0.7-1.7,1.4-2.6c0.4-0.2,3.4,0.4,3.6,0.4
				c2.5,0.1,4.8-0.3,7.2-0.8c0.2-0.1,0.3-0.4,0.1-0.5c-1.5-1-2.7-0.8-4.2-1.4c-1.3-1-2.5-1.9-3.8-2.9c0.5,0.1,1,0.2,1.5,0.4
				c1.5,0.1,3.2,0.6,4.7,0.8c0.2,0,0.4-0.2,0.3-0.4c-1.1-2-2.7-2-4.7-2.7c-1.9-0.1-3-1-3.3-2.8c-1.6-1.8-1.4-2.4,0.5-1.9
				c1.7-0.6,4.2,0.7,5.9-0.1c1.5-0.7,2.6-2.5,0.3-3c-0.3-0.1-0.5,0.5-0.1,0.5c-0.5,1.8-1.6,2.4-3.1,2c-1,0-2,0-3,0
				c0,0-1.9-0.2-2.3,0.1c-0.8,0.6-0.5,0.4-0.5,1.5c0,1.7,3.1,3.4,4.2,3.9c0.9,0.3,4.4,0.7,4.2,2.1c0,0.1-5.7-1.2-6.2-1.3
				c-0.2,0-0.4,0.1-0.4,0.3c0,1.8,0.9,2.9,2.7,3.6c1.3,0.5,2.6,0.3,3.9,1.1c2.5,1.5-2.1,0.9-3.3,1c-2.1,0-4.1-0.3-6.2-0.7
				c-0.2,0-0.3,0.1-0.4,0.3c0.3,1.5-0.4,2.4-1.9,2.7c0-0.3,0.1-0.6,0.1-0.9c-0.1-0.1,0.2-0.9,0-1c0,0-0.7-1.2-0.9-1.3
				c-1.3-1-9.8,1.6-10.2-0.4c-0.3-1.5,5.8-4.6,7.1-5.5c0.2-0.2,0.1-0.5-0.1-0.5c-1.8-0.1-3.5-0.3-5.3-0.7c-0.5-0.9,0-1.5,1.3-1.7
				c1.6-1.5,4-2.6,5.9-3.9c0.2-0.1,0.2-0.4-0.1-0.5c-0.4-0.1-5-1-5-1.1c-0.2-0.8,1.3-1.3,2.1-1.8c2.2-1.6,4.1-3.5,5.6-5.7
				c2.5-3.5,2.9,0,4.8,2.4c1.7,2.1,3.5,3.5,6,4.5C120.7,71.1,120.9,70.6,120.6,70.5L120.6,70.5z"/>
		</g>
	</g>
	<g>
		<path class="st0" d="M5.7,65.6c6.7-9.7,14.2-18.8,22.3-27.3c7.1,13.9,17.5,26.2,30.2,35.3c-17-3.3-34.1-6-51.3-8.1"/>
		<g>
			<path class="st2" d="M6.4,65.9C11,59.4,15.8,53.1,21.1,47c1.2-1.4,5.3-7.5,7.1-7c0.4,0.1,2.1,3.8,2.4,4.2
				c0.8,1.4,1.7,2.8,2.6,4.1c6.6,10,15.1,18.7,24.7,25.8c0.2-0.5,0.4-0.9,0.6-1.4c-17.1-3.3-34.2-6-51.5-8.1c-1-0.1-0.9,1.4,0,1.5
				c17.1,2.1,34.1,4.8,51.1,8c0.9,0.2,1.3-0.9,0.6-1.4C46,63.7,35.9,51.8,28.7,37.9c-0.2-0.4-0.9-0.5-1.2-0.2
				c-8.1,8.6-15.6,17.7-22.4,27.4C4.5,66,5.8,66.7,6.4,65.9L6.4,65.9z"/>
		</g>
	</g>
	<g>
		<path class="st0" d="M29,37.6c12.6-6.3,26-11,39.8-14c0.9-0.2,1.8-0.4,2.7-0.1c0.9,0.3,1.7,0.9,2.3,1.6c8,7.6,16,15.2,24,22.8
			C85,56.8,72.2,65.7,59.3,74.6"/>
		<g>
			<path class="st2" d="M29.3,38.2c9.3-4.6,19-8.4,28.9-11.2c5.8-1.7,11.2-4.1,16.5-0.1c3.8,2.9,7.1,6.8,10.6,10.1
				c1.6,1.6,3.3,3.1,4.9,4.7c0.9,0.9,5.6,4.2,5.7,5.4c0.2,2.9-8.9,7.4-11.3,9.1C76.1,62.1,67.5,68,58.9,73.9c-0.8,0.5,0,1.8,0.8,1.3
				c12.9-8.9,25.7-17.8,38.6-26.8c0.4-0.3,0.5-0.8,0.2-1.2c-5.7-5.4-11.3-10.7-17-16.1c-3.3-3.2-7.1-9-12.2-8.5
				c-7,0.8-14.4,3.6-21,5.9C41.5,31,35,33.8,28.6,36.9C27.7,37.4,28.5,38.7,29.3,38.2L29.3,38.2z"/>
		</g>
	</g>
	<g>
		<path class="st0" d="M3.8,67.3c3.6,18.6,7.2,37.2,10.8,55.8"/>
		<g>
			<path class="st2" d="M3,67.5c3.6,18.6,7.2,37.2,10.8,55.8c0.2,0.9,1.6,0.5,1.4-0.4c-3.6-18.6-7.2-37.2-10.8-55.8
				C4.3,66.2,2.9,66.6,3,67.5L3,67.5z"/>
		</g>
	</g>
	<g>
		<path class="st0" d="M58.8,76.3c-0.9,15.7-1.7,31.5-2.6,47.2"/>
		<g>
			<path class="st2" d="M58.1,76.3c-0.9,15.7-1.7,31.5-2.6,47.2c-0.1,1,1.4,1,1.5,0c0.9-15.7,1.7-31.5,2.6-47.2
				C59.6,75.3,58.1,75.3,58.1,76.3L58.1,76.3z"/>
		</g>
	</g>
	<g>
		<path class="st0" d="M16.9,123.9c13,2.5,26.3,4.2,39.5,5.1"/>
		<g>
			<path class="st2" d="M16.7,124.6c13.1,2.5,26.4,4.2,39.7,5.2c1,0.1,1-1.4,0-1.5c-13.2-0.9-26.3-2.7-39.3-5.1
				C16.2,123,15.8,124.4,16.7,124.6L16.7,124.6z"/>
		</g>
	</g>
	<g>
		<path class="st0" d="M99.2,50.3c0.5,15.6,0.9,31.5-3.9,46.3"/>
		<g>
			<path class="st2" d="M98.5,50.3c0.5,15.5,0.8,31.1-3.9,46.1c-0.3,0.9,1.2,1.3,1.4,0.4c4.7-15.1,4.4-30.8,3.9-46.5
				C99.9,49.3,98.4,49.3,98.5,50.3L98.5,50.3z"/>
		</g>
	</g>
	<g>
		<path class="st0" d="M57.9,129.3c14.2-10.9,28.3-21.9,42.4-33"/>
		<g>
			<path class="st2" d="M58.3,129.9c14.3-10.9,28.4-22,42.5-33.1c0.8-0.6-0.3-1.7-1.1-1.1c-14,11.1-28,22.1-42.2,32.9
				C56.8,129.2,57.5,130.5,58.3,129.9L58.3,129.9z"/>
		</g>
	</g>
	<g>
		<path class="st0" d="M25.5,123.2c-1.1-7.7-0.9-15.5,0.4-23.1c0.1-0.3,0.1-0.6,0.4-0.8c0.2-0.2,0.5-0.1,0.8-0.1
			c3.2,0.3,6.5,0.6,9.7,0.9c0.2,0,0.5,0,0.6,0.2c0.2,0.2,0.2,0.5,0.2,0.7c0.2,8.6,0.4,17.3,0.6,25.9"/>
		<g>
			<path class="st2" d="M26.3,123.2c-0.6-4.5-0.8-9-0.6-13.5c0.1-1.7,0-6.3,0.7-7.5c1.5-2.6,5.2-2.5,7.6-1.7
				c4.5,1.5,3.2,8.3,3.3,12.4c0.1,4.6,0.2,9.3,0.3,13.9c0,1,1.5,1,1.5,0c-0.2-7.6-0.4-15.3-0.6-22.9c-0.1-5.1-0.5-4.6-5.6-5
				c-4.6-0.4-7.3-2.1-8.1,2.9c-1.1,7.1-1,14.3-0.1,21.4C24.9,124.1,26.4,124.1,26.3,123.2L26.3,123.2z"/>
		</g>
	</g>
	<g>
		<path class="st0" d="M64.2,80.6c0,1.6,0,3.2,0,4.8c0,5.6,0,11.2-1,16.7"/>
		<g>
			<path class="st2" d="M63.4,80.6c0,7.1,0.1,14.3-1,21.4c-0.1,0.9,1.3,1.3,1.4,0.4c1.1-7.2,1-14.5,1-21.8
				C64.9,79.6,63.4,79.6,63.4,80.6L63.4,80.6z"/>
		</g>
	</g>
	<g>
		<path class="st0" d="M65.1,80.2c2.9-1.6,5.7-3.3,8.6-4.9c1,6-1.1,12.1-1.5,18.2c-0.1,1-0.1,2.1-0.6,3.1c-1.2,2.1-4.3,2.2-5.7,4.1"
			/>
		<g>
			<path class="st2" d="M65.4,80.9c2.9-1.6,5.7-3.3,8.6-4.9c-0.4-0.2-0.8-0.4-1.1-0.6c0.5,4.9-0.5,9.6-1.1,14.5
				c-0.4,3.2-0.5,6.1-3.4,8.1c-1.1,0.8-2.1,1.1-3.1,2.1c-0.7,0.7,0.4,1.7,1.1,1.1c2.9-2.9,5.8-2.4,6.5-6.9c1-6.1,2.3-12.8,1.6-19
				c-0.1-0.5-0.6-1-1.1-0.6c-2.9,1.6-5.7,3.3-8.6,4.9C63.8,80.1,64.6,81.4,65.4,80.9L65.4,80.9z"/>
		</g>
	</g>
	<g>
		<path class="st0" d="M81.7,69.6c0.1,6.9,0.1,13.8-0.1,20.6"/>
		<g>
			<path class="st2" d="M80.9,69.6c0.1,6.9,0.1,13.8-0.1,20.6c0,1,1.5,1,1.5,0c0.2-6.9,0.2-13.7,0.1-20.6
				C82.4,68.7,80.9,68.7,80.9,69.6L80.9,69.6z"/>
		</g>
	</g>
	<g>
		<path class="st0" d="M81.4,68c3.2-1.9,6.5-3.7,9.8-5.4c0,6.6-0.4,13.3-1.2,19.9c-0.1,0.5-0.1,1.1-0.5,1.5
			c-0.4,0.5-1.2,0.7-1.8,0.8c-2.2,0.4-4.5,1.2-5.7,3.1"/>
		<g>
			<path class="st2" d="M81.8,68.6c3.2-1.9,6.5-3.7,9.8-5.4c-0.4-0.2-0.8-0.4-1.1-0.6c-0.1,5.3,0.1,11-0.8,16.3
				c-0.3,1.6-0.6,4.2-2.1,5.1c-0.6,0.4-1.9,0.4-2.6,0.7c-1.5,0.6-2.4,1.4-3.4,2.6c-0.6,0.7,0.5,1.8,1.1,1.1c2.6-3.2,7.2-1.7,8.2-5.9
				c1.5-6.2,1.1-13.5,1.2-19.9c0-0.6-0.6-0.9-1.1-0.6c-3.3,1.7-6.6,3.5-9.8,5.4C80.2,67.8,80.9,69.1,81.8,68.6L81.8,68.6z"/>
		</g>
	</g>
	<g>
		<path class="st0" d="M123.1,64.3c6.9-2.1,11-9,14.4-15.3c3.7,7.3,10,13.4,17.4,16.9c-3.5,0.3-7,1-10.4,2c4.5,3.2,9.1,6.2,14,8.8
			c-3.7,0.9-7.4,1.5-11.2,1.7c4.4,3.2,9.1,6.1,13.8,8.8c-5.5,1.3-11.3,1.7-17,1c-0.6-0.1-1.3-0.1-1.9,0.1c-2.9,1.3,1.2,7.5-1.8,8.6
			c-1.6,0.6-3-1.5-2.9-3.3c0-1.7,0.7-3.5,0-5.1c-6.4,1.5-13.2,1.5-19.6,0c2.2-2.2,5.7-2,8.7-2.4c3.1-0.4,6.6-2.7,5.8-5.7
			c-4,1.1-8,1.9-12.1,2.5c1-3.3,5.5-3.4,8.8-4.4c2.8-0.9,5.2-3.1,6.5-5.8c0.2-0.4,0.4-0.9,0.1-1.4c-0.3-0.6-1.1-0.7-1.7-0.7
			c-3.2,0-6.3,0-9.5,0c-1.4,0-3.1-0.1-4-1.2c-0.9-1.1,0-3.4,1.4-2.9"/>
		<g>
			<path class="st1" d="M123.2,64.7c3.8-1.3,6.7-3.6,9.2-6.7c1.3-1.6,2.3-3.3,3.4-5c0.6-0.9,1-2.6,2.1-2.5c0.4,0,1.8,2.9,2.1,3.3
				c2.4,3.4,5.4,6.4,8.8,8.9c0.8,0.6,4.5,2.8,4.4,2.9c-0.4,0.6-7.9,1.6-8.7,1.8c-0.4,0.1-0.4,0.6-0.1,0.8c3.3,2.3,6.6,4.5,10,6.6
				c0.8,0.5,1.6,0.9,2.4,1.4c0,0.6-0.3,0.9-1.1,0.7c-1,1.2-6.5,0.9-8.3,1c-0.4,0-0.6,0.6-0.2,0.8c1.8,1.3,12.2,6.9,12.1,8.4
				c-0.1,0.9-9.9,0.9-11.2,0.9c-1.6-0.1-3.8-0.8-5.3-0.2c-1.4,0.5-1.7,1.2-1.9,2.7c-0.1,0.9,0.8,3.5,0.4,4c-1.1-0.3-2.2-0.6-3.2-0.8
				c0.1-0.6,0.1-1.2,0.2-1.7c1.3,4.5-0.9-7.8-0.2-3.5c0-0.2-0.3-0.3-0.5-0.3c-4.1,0.9-8.2,1.3-12.4,1c-1.8-0.1-7.7-0.1-3.6-2
				c1.5-0.7,3.7-0.4,5.3-0.7c3.3-0.7,6.4-2.4,6.2-6.2c0-0.3-0.3-0.5-0.5-0.4c-2.4,0.6-6.2,2.3-8.6,1.9c-0.6,0.1-1.2,0.2-1.7,0.3
				c0.1-1,0.6-1.6,1.6-1.7c0.9-0.6,2.3-0.7,3.4-1c3.2-0.8,5.9-2,7.9-4.7c0.7-1,2-2.7,1.1-3.9c-0.8-1.1-2.9-0.7-3.9-0.7
				c-1.3,0-2.5,0-3.8,0c-0.9,0-1.9,0-2.8,0c-1.8,0.3-3-0.8-3.6-3.2c0.6,0,0.6-0.9,0-0.9c-1.3,0.1-2.4,0.9-2.2,2.4
				c0.3,2.6,3.9,2.5,5.7,2.5c1.6,0,7.3-1,8.5,0c3.9,3.2-5.4,7.1-7.3,7.6c-2.8,0.7-5.4,1.2-6.7,4c-0.2,0.4,0.1,0.7,0.5,0.6
				c2.3-0.3,4.7-0.7,7-1.2c0.3-0.1,3.4-0.9,3.4-0.8c-1,1.4-2,2.8-3,4.1c-1.1,0.2-2.1,0.4-3.2,0.5c-2.7,0.3-4.9,0.6-7,2.3
				c-0.3,0.2-0.1,0.7,0.2,0.7c3.3,0.7,6.5,1.2,9.9,1.2c1.8,0,3.6-0.1,5.4-0.3c1.9-0.2,2.2-0.8,3.5,0.9c0.9,1.3,0,7.8,3.9,6.7
				c1.8-0.5,1.6-2.4,1.5-3.9c-0.1-2.1-0.4-3.9,2.2-4.8c1.4-0.5,4.1,0.3,5.7,0.3c3.9,0,7.6-0.5,11.4-1.4c0.4-0.1,0.4-0.6,0.1-0.8
				c-2.1-1.2-4.2-2.4-6.3-3.7c-1.3-0.8-4.5-2.2-5.3-3.5c-0.7-0.1-0.9-0.4-0.6-0.9c1.3-0.1,2.5-0.2,3.7-0.4c1.9-0.3,3.8-0.7,5.7-1.1
				c0.4-0.1,0.4-0.6,0.1-0.8c-3.5-2-6.9-4-10.2-6.2c-1.7-1.1-3-1.3-1.3-2.5c1.5-1.1,6.3-1.1,7.8-1.3c0.4,0,0.6-0.6,0.2-0.8
				c-7.5-3.7-13.3-9.4-17.2-16.8c-0.2-0.3-0.6-0.3-0.7,0C133.8,55,130,61.4,123,63.9C122.5,64.1,122.7,64.9,123.2,64.7L123.2,64.7z"
				/>
		</g>
	</g>
</g>
</svg>
