<?xml version="1.0" encoding="utf-8"?>
<!-- Generator: Adobe Illustrator 21.0.2, SVG Export Plug-In . SVG Version: 6.00 Build 0)  -->
<svg version="1.1" id="Layer_1" xmlns="http://www.w3.org/2000/svg" xmlns:xlink="http://www.w3.org/1999/xlink" x="0px" y="0px"
	 viewBox="0 0 166 166" style="enable-background:new 0 0 166 166;" xml:space="preserve">
<style type="text/css">
	.st0{fill:#FFFFFF;}
	.st1{fill:#F2F2F2;}
</style>
<g id="Layer_3">
	<path class="st0" d="M148.8,22c-0.9,0-1.8,0.1-2.6,0.4c-1.1-0.6-2.5-0.9-4.2-0.9c-7.5,0.3-15-1.9-22.4-2.9
		c-8.2-1.2-15.5-0.6-23.6,0.6c-15.8,2.3-31.5,5.3-47.4,6.4c-0.9,0.1-1.7,0.2-2.4,0.5c-4-0.4-8-0.2-12.2,0.6
		c-0.7,0.1-1.3,0.4-1.9,0.6c-0.6-0.1-1.2-0.2-1.9-0.2H28c-1.2,0-2.3,0.2-3.3,0.7h-0.1c-1.1-0.6-2.5-1-4.1-1c-7.3,0-9.7,7.6-7.3,12.6
		c-0.4,1-0.6,2.1-0.5,3.2c3,24.8,4.7,49.7,5.2,74.7c0,0.1,0,0.2,0,0.3c-1.6,5,1,11.4,7.8,11.4c1.6,0,2.9-0.4,4-1
		c7.3,2.2,13.2,7.2,20.5,8.6c1.8,2.4,4.8,3.7,8.5,2.6c1.4-0.4,2.8-0.9,4.2-1.4c0.4,0.1,0.8,0.2,1.2,0.3c0.9,0.3,1.1,0.4,0.6,0.2
		c-0.4-0.2-0.3-0.1,0.5,0.2c0,0,0,0,0.1,0c1.4,1.9,3.5,3.2,6.6,3.2c3.9,0,7.8,0.1,11.7,0c1.7,0,2.1,0.3,3.7,0.8
		c1.2,0.3,2.3,0.5,3.4,0.4c1.2,0.7,2.6,1.1,4.2,1.1c3.3,0,5.6-1.6,6.9-3.8c4.4-2.1,8.6-5.3,12.9-7.4c6.3-3,12.7-5.9,19-8.8
		c0.2-0.1,0.5-0.2,0.7-0.4c0.9,0.4,2,0.6,3.2,0.6c7.1,0,9.6-7.1,7.5-12.1c3.7-8.2,3.9-18,5-26.8c1.4-12.4,2.9-24.8,4.3-37.2
		c0.1-0.9,0-1.7-0.2-2.5c0.3-2,0.6-3.9,0.9-5.9c0.2-1.2,0.2-2.4,0-3.5C159,31.5,156.9,22,148.8,22z M48.6,118.2
		c-1.7-0.8-3.4-1.6-5.1-2.4c-0.1,0-0.2-0.1-0.3-0.1c0.1-0.4,0.3-0.7,0.4-1.1c2.2,2.3,5,3,7.7,2.3c0.1,0.8,0.1,1.5,0.2,2.3
		c0,0.2,0,0.3,0.1,0.5C50.4,119.1,48.9,118.4,48.6,118.2z"/>
</g>
<g id="Layer_2">
	<g>
		<g>
			<g>
				<path d="M11.7,33c5.7,0.2,11,1.8,15.9,4.6c0.9,0.5,1.8-0.9,0.9-1.5c-5.2-3-10.8-4.6-16.7-4.9C10.6,31.2,10.6,32.9,11.7,33
					L11.7,33z"/>
			</g>
		</g>
		<g>
			<g>
				<path d="M27.7,37.7C39.3,41.1,52,42,63.8,44c7.6,1.2,15.2,2.5,22.7,3.9c4.3,0.8,9.1,1.3,13.1,3c1,0.4,1.4-1.2,0.4-1.6
					c-4-1.7-8.9-2.2-13.1-3c-7.6-1.4-15.2-2.6-22.7-3.9c-11.9-1.9-24.5-2.9-36.1-6.3C27.1,35.8,26.7,37.4,27.7,37.7L27.7,37.7z"/>
			</g>
		</g>
		<g>
			<g>
				<path d="M100.4,49.9c8.9-6.8,20.5-7.1,30.7-11c9.2-3.5,19.2-8.4,26.7-14.7c0.6-0.5,0-1.4-0.6-1.4c-12.1-1.5-24.1-2.9-36.2-4.4
					c-5.8-0.7-11.6-1.7-17.4-1.6c-5.5,0.1-10.8,1.4-16.2,2.4c-24.2,4.2-48.9,5.8-73.3,8.1c-1.1,0.1-1.1,1.8,0,1.7
					c23.3-2.2,46.8-3.8,69.9-7.5c6.1-1,12.3-2.7,18.6-2.9c5.8-0.2,11.6,0.8,17.4,1.5c12.4,1.5,24.8,3,37.2,4.5
					c-0.2-0.5-0.4-1-0.6-1.4c-4.5,3.8-9.6,6.4-14.9,9c-5,2.4-9.9,5.1-15.3,6.7c-9.2,2.7-19,3.8-26.8,9.7
					C98.7,49.1,99.5,50.6,100.4,49.9L100.4,49.9z"/>
			</g>
		</g>
		<g>
			<g>
				<path d="M11.6,32.2c1.4,30.5,5,61.2,4.3,91.8c0,1.1,1.7,1.1,1.7,0c0.7-30.6-2.9-61.2-4.3-91.8C13.2,31.1,11.6,31.1,11.6,32.2
					L11.6,32.2z"/>
			</g>
		</g>
		<g>
			<g>
				<path d="M99.1,49.2c-1.7,19.9,0.6,39.7-1.1,59.6c-0.1,1.1,1.6,1.1,1.7,0c1.7-19.9-0.6-39.7,1.1-59.6
					C100.9,48.1,99.2,48.1,99.1,49.2L99.1,49.2z"/>
			</g>
		</g>
		<g>
			<g>
				<path d="M157.8,22.8l-0.1-0.1c-0.4-0.3-0.9-0.1-1.2,0.3c-0.8,1.2-0.7,3.7-0.8,4.9c-0.3,3.9-0.6,7.8-0.9,11.7
					c-0.7,8.4-1.6,16.9-2.5,25.3c-2,17.4-4.7,34.7-7.8,51.9c-0.2,1.1,1.4,1.5,1.6,0.4c2.8-15.4,5.2-31,7.2-46.5
					c1-7.8,1.8-15.5,2.6-23.3c0.4-3.9,0.7-7.8,1-11.7c0.2-2.3,0.3-4.5,0.5-6.8c0.1-0.9,0.1-1.8,0.2-2.7c0.8-1.5,0.6-2.1-0.6-2
					C157.8,24.8,158.7,23.4,157.8,22.8L157.8,22.8z"/>
			</g>
		</g>
		<g>
			<g>
				<path d="M98.2,110.5c0,11.6-1.1,23.1-3.2,34.6c-0.1,0.6,0.4,1.3,1,1c4.1-1.7,7.4-4.5,11.2-6.9c4.2-2.7,8.7-5,13.3-7
					c9.2-4.1,18.7-7.6,27.2-13.1c0.9-0.6,0.1-2-0.9-1.5c-8.1,5.2-17,8.6-25.7,12.4c-4.1,1.8-8.2,3.7-12,5.9
					c-4.6,2.7-8.6,6.4-13.6,8.5c0.3,0.3,0.7,0.7,1,1c2.2-11.6,3.3-23.2,3.3-35C99.9,109.4,98.2,109.4,98.2,110.5L98.2,110.5z"/>
			</g>
		</g>
		<g>
			<g>
				<path d="M93.9,144.4c-14-0.3-27.7-3.3-41.2-6.7c-5.8-1.5-11.8-2.8-17.5-4.9c-5.7-2.1-10.7-5.8-16.6-7.2
					c-1.1-0.2-1.5,1.4-0.4,1.6c5.9,1.3,10.9,5.1,16.6,7.2c6.3,2.2,12.9,3.7,19.3,5.4c13.1,3.3,26.3,6,39.8,6.3
					C95,146.1,95,144.4,93.9,144.4L93.9,144.4z"/>
			</g>
		</g>
		<g>
			<g>
				<g>
					<path d="M74.9,58.6c1.9,0.3,3.7,0.6,5.6,0.9c1.7,0.2,5.6-0.1,7,0.7c1.9,1.2,0.6,5.3,0.3,7.2c-0.2,1.6,0,5.9-0.9,7.3
						c-1.7,2.3-4.2,1.4-6.5,1.2c-0.9-0.1-1.7-0.1-2.6-0.2c-2-0.1-2.3,0.4-3.5-1.3c-1.2-1.6-0.7-2.3-0.3-4.1c0.3-1.2,0.5-2.3,0.8-3.5
						c0.6-2.6,1.2-5.2,1.8-7.7c0.1-0.3-0.3-0.4-0.4-0.1c-0.7,3-1.4,6.1-2.1,9.1c-0.4,1.7-1.8,5-1.5,6.7c0.5,2.5,4.5,1.3,6.5,1.4
						c1.7,0.1,3.3,0.4,5,0.6c-0.1,0,1.8,0.4,2.1,0.3c0.3-0.1,0.6-0.3,0.8-0.5c1-1.1,0.7-4.9,0.9-6.3c0.4-3.4,0.8-6.8,1.2-10.2
						c0-0.1-0.1-0.2-0.2-0.2c-4.7-0.3-9.3-0.9-13.9-1.7C74.7,58.1,74.6,58.5,74.9,58.6L74.9,58.6z"/>
				</g>
			</g>
			<g>
				<g>
					<path d="M48.8,54.2c1.9,0.3,3.7,0.6,5.6,0.9c1.7,0.2,5.6-0.1,7,0.7c1.9,1.2,0.6,5.3,0.3,7.2c-0.2,1.6,0,5.9-0.9,7.3
						c-1.7,2.3-4.2,1.4-6.5,1.2c-0.9-0.1-1.7-0.1-2.6-0.2c-2-0.1-2.3,0.4-3.5-1.3c-1.2-1.6-0.7-2.3-0.3-4.1c0.3-1.2,0.5-2.3,0.8-3.5
						c0.6-2.6,1.2-5.2,1.8-7.7c0.1-0.3-0.3-0.4-0.4-0.1c-0.7,3-1.4,6.1-2.1,9.1c-0.4,1.7-1.8,5-1.5,6.7c0.5,2.5,4.5,1.3,6.5,1.4
						c1.7,0.1,3.3,0.4,5,0.6c-0.1,0,1.8,0.4,2.1,0.3s0.6-0.3,0.8-0.5c1-1.1,0.7-4.9,0.9-6.3c0.4-3.4,0.8-6.8,1.2-10.2
						c0-0.1-0.1-0.2-0.2-0.2c-4.7-0.3-9.3-0.9-13.9-1.7C48.7,53.8,48.5,54.2,48.8,54.2L48.8,54.2z"/>
				</g>
			</g>
			<g>
				<g>
					<path d="M24.6,49.3c1.9,0.3,3.7,0.6,5.6,0.9c1.7,0.2,5.6-0.1,7,0.7c1.9,1.2,0.6,5.3,0.3,7.2c-0.2,1.6,0,5.9-0.9,7.3
						c-1.7,2.3-4.2,1.4-6.5,1.2c-0.9-0.1-1.7-0.1-2.6-0.2c-2-0.1-2.3,0.4-3.5-1.3c-1.2-1.6-0.7-2.3-0.3-4.1c0.3-1.2,0.5-2.3,0.8-3.5
						c0.6-2.6,1.2-5.2,1.8-7.7c0.1-0.3-0.3-0.4-0.4-0.1c-0.7,3-1.4,6.1-2.1,9.1c-0.4,1.7-1.8,5-1.5,6.7c0.5,2.5,4.5,1.3,6.5,1.4
						c1.7,0.1,3.3,0.4,5,0.6c-0.1,0,1.8,0.4,2.1,0.3s0.6-0.3,0.8-0.5c1-1.1,0.7-4.9,0.9-6.3c0.4-3.4,0.8-6.8,1.2-10.2
						c0-0.1-0.1-0.2-0.2-0.2c-4.7-0.3-9.3-0.9-13.9-1.7C24.4,48.8,24.3,49.2,24.6,49.3L24.6,49.3z"/>
				</g>
			</g>
		</g>
		<g>
			<g>
				<g>
					<path d="M73.8,86.3c1.9,0.3,3.7,0.6,5.6,0.9c1.7,0.2,5.6-0.1,7,0.7c1.9,1.2,0.6,5.3,0.3,7.2c-0.2,1.6,0,5.9-0.9,7.3
						c-1.7,2.3-4.2,1.4-6.5,1.2c-0.9-0.1-1.7-0.1-2.6-0.2c-2-0.1-2.3,0.4-3.5-1.3c-1.2-1.6-0.7-2.3-0.3-4.1c0.3-1.2,0.5-2.3,0.8-3.5
						c0.6-2.6,1.2-5.2,1.8-7.7c0.1-0.3-0.3-0.4-0.4-0.1c-0.7,3-1.4,6.1-2.1,9.1c-0.4,1.7-1.8,5-1.5,6.7c0.5,2.5,4.5,1.3,6.5,1.4
						c1.7,0.1,3.3,0.4,5,0.6c-0.1,0,1.8,0.4,2.1,0.3c0.3-0.1,0.6-0.3,0.8-0.5c1-1.1,0.7-4.9,0.9-6.3c0.4-3.4,0.8-6.8,1.2-10.2
						c0-0.1-0.1-0.2-0.2-0.2c-4.7-0.3-9.3-0.9-13.9-1.7C73.7,85.8,73.6,86.2,73.8,86.3L73.8,86.3z"/>
				</g>
			</g>
			<g>
				<g>
					<path d="M47.8,82c1.9,0.3,3.7,0.6,5.6,0.9c1.7,0.2,5.6-0.1,7,0.7c1.9,1.2,0.6,5.3,0.3,7.2c-0.2,1.6,0,5.9-0.9,7.3
						c-1.7,2.3-4.2,1.4-6.5,1.2c-0.9-0.1-1.7-0.1-2.6-0.2c-2-0.1-2.3,0.4-3.5-1.3c-1.2-1.6-0.7-2.3-0.3-4.1c0.3-1.2,0.5-2.3,0.8-3.5
						c0.6-2.6,1.2-5.2,1.8-7.7c0.1-0.3-0.3-0.4-0.4-0.1c-0.7,3-1.4,6.1-2.1,9.1c-0.4,1.7-1.8,5-1.5,6.7c0.5,2.5,4.5,1.3,6.5,1.4
						c1.7,0.1,3.3,0.4,5,0.6c-0.1,0,1.8,0.4,2.1,0.3s0.6-0.3,0.8-0.5c1-1.1,0.7-4.9,0.9-6.3c0.4-3.4,0.8-6.8,1.2-10.2
						c0-0.1-0.1-0.2-0.2-0.2c-4.7-0.3-9.3-0.9-13.9-1.7C47.6,81.5,47.5,81.9,47.8,82L47.8,82z"/>
				</g>
			</g>
			<g>
				<g>
					<path d="M23.5,77c1.9,0.3,3.7,0.6,5.6,0.9c1.7,0.2,5.6-0.1,7,0.7c1.9,1.2,0.6,5.3,0.3,7.2c-0.2,1.6,0,5.9-0.9,7.3
						c-1.7,2.3-4.2,1.4-6.5,1.2c-0.9-0.1-1.7-0.1-2.6-0.2c-2-0.1-2.3,0.4-3.5-1.3c-1.2-1.6-0.7-2.3-0.3-4.1c0.3-1.2,0.5-2.3,0.8-3.5
						c0.6-2.6,1.2-5.2,1.8-7.7c0.1-0.3-0.3-0.4-0.4-0.1c-0.7,3-1.4,6.1-2.1,9.1c-0.4,1.7-1.8,5-1.5,6.7c0.5,2.5,4.5,1.3,6.5,1.4
						c1.7,0.1,3.3,0.4,5,0.6c-0.1,0,1.8,0.4,2.1,0.3s0.6-0.3,0.8-0.5c1-1.1,0.7-4.9,0.9-6.3c0.4-3.4,0.8-6.8,1.2-10.2
						c0-0.1-0.1-0.2-0.2-0.2c-4.7-0.3-9.3-0.9-13.9-1.7C23.4,76.5,23.3,76.9,23.5,77L23.5,77z"/>
				</g>
			</g>
		</g>
		<g>
			<g>
				<path d="M109.2,60.3c0.2,6.5-0.5,12.7-1.6,19c0,0.2,0.1,0.4,0.3,0.2c0.8-0.6,9.3-6.2,9.9-4.5c0,0.1,0.2,0.2,0.3,0.1
					c0.9-0.5,0.6-5,0.7-5.9c0.4-5.1,0.9-10.1,1.3-15.2c0-0.2-0.2-0.3-0.4-0.1c-3,2.9-6.2,5-10.2,6.4c-0.3,0.1-0.1,0.5,0.1,0.4
					c2.2-0.8,4.3-1.7,6.2-3c2.2-1.5,3.5-3.8,3.5,0.2c0,3.1-0.6,6.4-0.8,9.5c-0.2,1.8-0.1,3.9-0.5,5.7c-0.1,0.5,0.3,2.2-0.3,0.9
					c0-0.1-0.1-0.1-0.2-0.1c-1.1-0.1-2,1-2.9,1.4c-1.3,0.7-2.7,1.5-4,2c-2.3,1-2.2,1.4-2.1-1.2c0.1-5.3,1.3-10.4,1.1-15.7
					C109.6,60,109.2,60,109.2,60.3L109.2,60.3z"/>
			</g>
		</g>
		<g>
			<g>
				<path d="M134.5,47.6c0.2,6.5-0.5,12.7-1.6,19c0,0.2,0.1,0.4,0.3,0.2c0.8-0.6,9.3-6.2,9.9-4.5c0,0.1,0.2,0.2,0.3,0.1
					c0.9-0.5,0.6-5,0.7-5.9c0.4-5.1,0.9-10.1,1.3-15.2c0-0.2-0.2-0.3-0.4-0.1c-3,2.9-6.2,5-10.2,6.4c-0.3,0.1-0.1,0.5,0.1,0.4
					c2.2-0.8,4.3-1.7,6.2-3c2.2-1.5,3.5-3.8,3.5,0.2c0,3.1-0.6,6.4-0.8,9.5c-0.2,1.8-0.1,3.9-0.5,5.7c-0.1,0.5,0.3,2.2-0.3,0.9
					c0-0.1-0.1-0.1-0.2-0.1c-1.1-0.1-2,1-2.9,1.4c-1.3,0.7-2.7,1.5-4,2c-2.3,1-2.2,1.4-2.1-1.2c0.1-5.3,1.3-10.4,1.1-15.7
					C134.9,47.3,134.5,47.3,134.5,47.6L134.5,47.6z"/>
			</g>
		</g>
		<g>
			<g>
				<path d="M109.2,89.2c0.2,6.5-0.5,12.7-1.6,19c0,0.2,0.1,0.4,0.3,0.2c0.8-0.6,9.3-6.2,9.9-4.5c0,0.1,0.2,0.2,0.3,0.1
					c0.9-0.5,0.6-5,0.7-5.9c0.4-5.1,0.9-10.1,1.3-15.2c0-0.2-0.2-0.3-0.4-0.1c-3,2.9-6.2,5-10.2,6.4c-0.3,0.1-0.1,0.5,0.1,0.4
					c2.2-0.8,4.3-1.7,6.2-3c2.2-1.5,3.5-3.8,3.5,0.2c0,3.1-0.6,6.4-0.8,9.5c-0.2,1.8-0.1,3.9-0.5,5.7c-0.1,0.5,0.3,2.2-0.3,0.9
					c0-0.1-0.1-0.1-0.2-0.1c-1.1-0.1-2,1-2.9,1.4c-1.3,0.7-2.7,1.5-4,2c-2.3,1-2.2,1.4-2.1-1.2c0.1-5.3,1.3-10.4,1.1-15.7
					C109.6,89,109.2,89,109.2,89.2L109.2,89.2z"/>
			</g>
		</g>
		<g>
			<g>
				<path d="M134.5,76.5c0.2,6.5-0.5,12.7-1.6,19c0,0.2,0.1,0.4,0.3,0.2c0.8-0.6,9.3-6.2,9.9-4.5c0,0.1,0.2,0.2,0.3,0.1
					c0.9-0.5,0.6-5,0.7-5.9c0.4-5.1,0.9-10.1,1.3-15.2c0-0.2-0.2-0.3-0.4-0.1c-3,2.9-6.2,5-10.2,6.4c-0.3,0.1-0.1,0.5,0.1,0.4
					c2.2-0.8,4.3-1.7,6.2-3c2.2-1.5,3.5-3.8,3.5,0.2c0,3.1-0.6,6.4-0.8,9.5c-0.2,1.8-0.1,3.9-0.5,5.7c-0.1,0.5,0.3,2.2-0.3,0.9
					c0-0.1-0.1-0.1-0.2-0.1c-1.1-0.1-2,1-2.9,1.4c-1.3,0.7-2.7,1.5-4,2c-2.3,1-2.2,1.4-2.1-1.2c0.1-5.3,1.3-10.4,1.1-15.7
					C134.9,76.3,134.5,76.3,134.5,76.5L134.5,76.5z"/>
			</g>
		</g>
		<g>
			<g>
				<path d="M18,128.3c11.4,4.2,22.7,8.9,34.4,12.3c11.2,3.3,23.3,4.6,34.8,6.4c4.2,0.6,8.3,1,12.4-0.6c5-2,9.4-5.6,14.1-8.2
					c10.5-6,21.5-11.1,32.9-15.3c2.9-1.1,1.6-5.7-1.3-4.6c-9.8,3.6-19.3,7.8-28.5,12.7c-4.8,2.6-9.4,5.3-14,8.2
					c-2.9,1.8-5.6,3.6-9.2,3.7c-2.9,0.1-5.8-0.6-8.7-1c-10.7-1.8-21.8-2.9-32.1-6c-11.3-3.5-22.4-8-33.5-12.1
					C16.4,122.6,15.2,127.3,18,128.3L18,128.3z"/>
			</g>
		</g>
		<g>
			<path class="st1" d="M42.4,130.6c-1-8.5-1.3-17.2-0.7-25.7c6.2,1,12.5,2,18.7,3c0.4,0.1,0.8,0.1,1.1,0.4c0.2,0.3,0.3,0.7,0.3,1
				c0.6,9.7-1.3,19.6,1.1,29"/>
			<g>
				<path d="M42.6,130.6c-0.7-6.1-1.1-12.2-1-18.4c0-1.4-0.3-3.3,0.1-4.6c0.7-2.2,1.4-2,3.6-2c3,0,6.4,1,9.3,1.5
					c1.2,0.2,2.6,0.2,3.7,0.6c1.6-0.3,2.4,0.3,2.5,1.8c0.7,1,0.9,2.2,0.7,3.4c0.2,2.7-0.1,5.5-0.2,8.2c-0.2,5.8-0.1,11.5,1.1,17.2
					c0.1,0.3,0.5,0.2,0.4-0.1c-1.2-5.4-1.3-10.7-1.2-16.2c0.1-2.4,0.2-4.9,0.2-7.3c0-1.3,0.5-4.4-0.1-5.5c-1.1-2.2-2.5-1.8-5.3-2.2
					c-5-0.8-10-1.6-14.9-2.4c-0.1,0-0.3,0.1-0.3,0.2c-0.5,8.6-0.3,17.2,0.7,25.7C42.2,130.9,42.6,130.9,42.6,130.6L42.6,130.6z"/>
			</g>
		</g>
	</g>
</g>
</svg>
