<?xml version="1.0" encoding="utf-8"?>
<!-- Generator: Adobe Illustrator 21.0.2, SVG Export Plug-In . SVG Version: 6.00 Build 0)  -->
<svg version="1.1" xmlns="http://www.w3.org/2000/svg" xmlns:xlink="http://www.w3.org/1999/xlink" x="0px" y="0px"
	 viewBox="0 0 166 166" style="enable-background:new 0 0 166 166;" xml:space="preserve">
<style type="text/css">
	.st0{fill:#FFFFFF;}
	.st1{fill:#FFFFFF;stroke:#000000;stroke-width:0.3662;stroke-miterlimit:10;}
	.st2{fill:#BA0000;}
	.st3{fill:#F2F2F2;}
</style>
<g id="Layer_2">
	<path class="st0" d="M161.5,68.9c0.5-1.1,0.7-2.2,0.7-3.4c0-0.8-0.1-1.7-0.4-2.5c0.9-2.6-0.4-6.2-4-6.2c-0.8,0-1.5,0.2-2,0.5
		c-0.1,0-0.2-0.1-0.3-0.1c-0.1,0-0.1,0-0.2-0.1c-3.9-1.1-8.1-1.7-12.2-1.6c-0.3,0-0.6,0-0.9,0.1c-1.8-0.8-3.8-1-5.9-0.6
		c-11.9,2-23.8,3.4-35.7,4.4c-0.5,0-1.1,0.2-1.5,0.3c0-0.1,0-0.3,0.1-0.4c0.3-2.4,0.4-4.8,0.2-7.2c0-0.3-0.1-0.6-0.1-0.9
		c0.4-1.7,0.9-3.4,0.9-5.3c0-0.3,0-0.5,0-0.7c1.8-2.6,0.7-7.2-3.5-7.2c-0.6,0-1.2,0.1-1.7,0.3c-1.6-0.6-3.4-0.7-5.1-0.3
		c-1.2-0.7-2.7-1.1-4.2-1.3c-6.1-0.5-12.4-2.3-18.5-1.7c-4.3,0.4-8,3.2-8.4,7.5c-0.1,0.1-0.2,0.2-0.3,0.3c-2.7-2.9-5.9-3.1-8.6-1.7
		c-1.6-2.3-4.1-4-6.9-3.6c-9.5,1.2-19,2.3-28.6,3.4c-0.5-0.1-1.1-0.1-1.6-0.1c-1,0-1.9,0.2-2.8,0.4c-0.5-0.2-1-0.3-1.6-0.3
		c-4,0-5.2,4.3-3.7,6.9c-0.3,2.3,0.1,4.8,1.4,6.7c0.9,6.2,0.7,12.6,0,18.8c-0.1,0.5,0,1,0,1.5c-0.1,0.6-0.2,1.2-0.2,1.8v5.5
		c0,1.2,0.3,2.4,0.8,3.4c-0.1,1,0,2,0.3,3c-0.5,3.2-0.4,6.2,0.6,9.6c0.1,0.3,0.2,0.6,0.3,0.9c0,2.3-0.1,4.7-0.2,7
		c-0.1,1.2,0.1,2.2,0.4,3.2c-0.1,5-0.3,10-0.7,15.1c-0.4,4.6,4.2,8.5,8.5,8.5c1,0,1.8-0.2,2.6-0.4c1.2,0.4,2.9,1.8,4,2.2
		c2.2,0.9,4.6,1.4,6.9,2c5.1,1.4,10.3,2.8,15.4,4.2c2.1,0.6,3.9,0.4,5.5-0.3c2.4,1,5.1,1.1,7.4,0.1c1.5,0.2,3.2-0.1,4.9-1.1
		c6.2-3.3,12.4-6.5,18.7-9.4c0.7-0.3,1.3-0.8,1.8-1.3c0.1,0,0.1,0,0.2,0c2.2-0.1,4.5-0.8,6-2.5c1.5-1.7,2.5-3.7,2.5-6v-2.2
		c0-0.2,0-0.4,0-0.6c0.1-0.4,0.3-0.7,0.4-1.1c0.4-1.9,0.8-3.8,1.2-5.7c0.2-0.8,0.2-1.5,0.2-2.3c3.5,0.4,7.1,3.4,10.5,4.3
		c4.5,1.3,9,2,13.5,3.6c1,0.4,2.1,0.5,3.2,0.3c0.3,0,0.5,0,0.8,0c1.1,0.5,2.3,0.8,3.7,1c1.9,0.3,3.9,0.3,5.8,0.2
		c1.2-0.1,2.4-0.4,3.6-0.9c2.7,0.3,5.6-0.5,7.4-2.5c0.2,0,0.3-0.1,0.4-0.1c1.6-0.3,3.1-0.9,4.6-1.7c1.4-0.7,2.5-1.6,3.7-2.5
		c0.1-0.1,0.3-0.2,0.4-0.3c2.9-0.7,5.4-2.8,6.1-5.9c0.2-1,0.3-2.1,0.1-3.2c0,0,0-0.1,0-0.1c0.6-4.5,1.2-8.9,1.9-13.4
		c0.7-4.4,2.4-8.9,2.2-13.4c0-0.8-0.2-1.5-0.4-2.2C161.4,70.5,161.5,69.7,161.5,68.9z"/>
</g>
<g id="Layer_3">
	<g>
		<g>
			<g>
				<g>
					<path d="M4.1,44.4c3.7,0.2,7.1,1.2,10.4,3c0.6,0.4,1.2-0.6,0.6-0.9c-3.4-1.9-7-3-10.9-3.2C3.4,43.3,3.4,44.4,4.1,44.4L4.1,44.4
						z"/>
				</g>
			</g>
			<g>
				<g>
					<path d="M14.6,47.5c8.2,2.5,16.7,4.3,25,6.4c8.1,2.1,17.1,3.5,24.9,6.7c0.7,0.3,0.9-0.8,0.3-1.1c-7.8-3.3-16.7-4.7-24.9-6.7
						c-8.3-2.1-16.8-3.9-25-6.4C14.2,46.2,13.9,47.3,14.6,47.5L14.6,47.5z"/>
				</g>
			</g>
			<g>
				<g>
					<path d="M65.6,60.6c5.9-4.7,11.7-9.5,18.4-13.1c5.3-2.9,10.8-5,15.5-8.8c0.4-0.3,0-0.9-0.4-0.9c-7.8-0.9-15.6-1.9-23.4-2.8
						c-7.6-0.9-13.9-1-21.5,0.4c-16,2.8-32.3,3.9-48.4,5.4c-0.7,0.1-0.7,1.2,0,1.1c11.2-1,22.4-2,33.6-3.3
						c11.3-1.3,22.1-4.2,33.5-2.8c5.3,0.6,10.6,1.3,15.9,1.9c0.5,0.1,8.3,0.6,8.4,1c0.3,1.2-5.3,3.7-6.2,4.1
						c-9.6,4.8-17.9,10.4-26.2,17.1C64.3,60.3,65,61,65.6,60.6L65.6,60.6z"/>
				</g>
			</g>
			<g>
				<g>
					<path d="M3,45.1c2.6,9.7,3.2,19.4,2,29.3c-0.1,0.7,1,0.7,1.1,0c1.3-10,0.6-19.8-2-29.6C3.9,44.2,2.8,44.4,3,45.1L3,45.1z"/>
				</g>
			</g>
			<g>
				<g>
					<path d="M5,74.4c0.8,17.8,2.3,35.7,1.9,53.5c0,0.7,1.1,0.7,1.1,0C8.4,110,6.9,92.2,6.1,74.4C6,73.7,5,73.7,5,74.4L5,74.4z"/>
				</g>
			</g>
			<g>
				<g>
					<path d="M65.5,61c-1.7,19.2-3.4,38.3-5.1,57.5c-0.1,0.7,1,0.7,1.1,0c1.7-19.2,3.4-38.3,5.1-57.5C66.7,60.3,65.6,60.3,65.5,61
						L65.5,61z"/>
				</g>
			</g>
			<g>
				<g>
					<path d="M100.6,38.4c-2.1,13.4-2.3,27-3.6,40.5c-1.4,14.9-3.5,29.6-6.2,44.3c-0.1,0.7,0.9,1,1.1,0.3
						c2.5-13.5,4.4-27.1,5.9-40.7c1.5-14.7,1.7-29.5,4-44.1C101.7,38,100.7,37.7,100.6,38.4L100.6,38.4z"/>
				</g>
			</g>
			<g>
				<g>
					<path d="M60.6,119.1c0,7.6-0.7,15.1-2.1,22.5c-0.1,0.5,0.4,0.8,0.8,0.6c5.6-2.4,10.3-6.5,16-9.1c6-2.7,12.1-4.9,17.7-8.5
						c0.6-0.4,0-1.3-0.6-0.9c-8.4,5.3-18.3,7.7-26.7,13.2c-1.3,0.8-3.4,3.2-5,3.4c-1.7,0.2-0.2-4.3,0-6c0.7-5.1,0.9-10.2,0.9-15.3
						C61.7,118.4,60.6,118.4,60.6,119.1L60.6,119.1z"/>
				</g>
			</g>
			<g>
				<g>
					<path d="M57.8,141.2c-9.2-0.2-18.1-2.1-27-4.4c-4.1-1-8.3-2-12.2-3.5c-3.4-1.3-6.4-3.4-9.9-4.3c-0.7-0.2-1,0.9-0.3,1.1
						c4.1,1,7.6,3.6,11.6,4.9c4,1.4,8.2,2.3,12.3,3.4c8.4,2.1,16.8,3.8,25.5,4C58.5,142.3,58.5,141.2,57.8,141.2L57.8,141.2z"/>
				</g>
			</g>
			<g>
				<g>
					<path d="M51.6,63.8c1.5,0.1,3,0.2,4.5,0.4c1.8,0.3,2.2,0.3,2.2,2.1c0,2.3-0.6,4.8-0.7,7.1c-0.1,0.7-0.1,1.4-0.2,2
						c-0.6,0.9-1.3,1.1-2.1,0.6c-0.8,0-1.8-0.5-2.6-0.6c-0.7-0.1-2.1-0.1-2.7-0.4c-2.3-1.1-1.4-2.8-1-4.6c0-0.2-0.2-0.2-0.3-0.1
						c-0.3,1.2-1.4,3.9-0.2,4.8c0.2,0.1,1.5,0.2,1.5,0.1c1.2,0.1,2.4,0.3,3.5,0.5c1.2,0.3,2.7,1,3.9,1c0.1,0,0.1,0,0.1-0.1
						c0.5-1.6,0.3-3.7,0.5-5.4c0.1-1.4,0.3-2.7,0.4-4.1c0.1-0.6,0.6-2.1,0.2-2.6c-1-1.4-5.6-1.1-7.1-1.1
						C51.4,63.5,51.4,63.8,51.6,63.8L51.6,63.8z"/>
				</g>
			</g>
			<g>
				<g>
					<path d="M46.9,81.6c1.2,0.2,2.4,0.4,3.7,0.6c1.1,0.1,3.7-0.1,4.6,0.5c1.2,0.8,0.4,3.5,0.2,4.7c-0.1,1,0,3.9-0.6,4.7
						c-1.1,1.5-2.8,0.9-4.2,0.8c-0.6-0.1-1.1-0.1-1.7-0.1c-1.3,0-1.5,0.3-2.3-0.9c-0.8-1.1-0.4-1.5-0.2-2.7c0.2-0.8,0.3-1.5,0.5-2.3
						c0.4-1.7,0.8-3.4,1.1-5c0-0.2-0.2-0.2-0.3-0.1c-0.5,2-0.9,4-1.4,6c-0.2,1.1-1.2,3.3-1,4.4c0.3,1.6,2.9,0.8,4.2,0.9
						c1.1,0.1,2.2,0.2,3.3,0.4c-0.1,0,1.2,0.3,1.3,0.2c0.2-0.1,0.4-0.2,0.5-0.3c0.7-0.7,0.5-3.2,0.6-4.1c0.3-2.2,0.5-4.4,0.8-6.6
						c0-0.1-0.1-0.1-0.1-0.1c-3-0.2-6-0.6-9-1.1C46.8,81.3,46.8,81.6,46.9,81.6L46.9,81.6z"/>
				</g>
			</g>
			<g>
				<g>
					<path d="M30.8,79c1.2,0.2,2.4,0.4,3.7,0.6c1.1,0.1,3.7-0.1,4.6,0.5c1.2,0.8,0.4,3.5,0.2,4.7c-0.1,1,0,3.9-0.6,4.7
						c-1.1,1.5-2.8,0.9-4.2,0.8c-0.6-0.1-1.1-0.1-1.7-0.1c-1.3,0-1.5,0.3-2.3-0.9c-0.8-1.1-0.4-1.5-0.2-2.7c0.2-0.8,0.3-1.5,0.5-2.3
						c0.4-1.7,0.8-3.4,1.1-5c0-0.2-0.2-0.2-0.3-0.1c-0.5,2-0.9,4-1.4,6c-0.2,1.1-1.2,3.3-1,4.4c0.3,1.6,2.9,0.8,4.2,0.9
						c1.1,0.1,2.2,0.2,3.3,0.4c-0.1,0,1.2,0.3,1.3,0.2c0.2-0.1,0.4-0.2,0.5-0.3c0.7-0.7,0.5-3.2,0.6-4.1c0.3-2.2,0.5-4.4,0.8-6.6
						c0-0.1-0.1-0.1-0.1-0.1c-3-0.2-6-0.6-9-1.1C30.7,78.7,30.6,79,30.8,79L30.8,79z"/>
				</g>
			</g>
			<g>
				<g>
					<path d="M14.9,73.8c1.2,0.2,2.4,0.4,3.7,0.6c1.1,0.1,3.7-0.1,4.6,0.5c1.2,0.8,0.4,3.5,0.2,4.7c-0.1,1,0,3.9-0.6,4.7
						c-1.1,1.5-2.8,0.9-4.2,0.8c-0.6-0.1-1.1-0.1-1.7-0.1c-1.3,0-1.5,0.3-2.3-0.9c-0.8-1.1-0.4-1.5-0.2-2.7c0.2-0.8,0.3-1.5,0.5-2.3
						c0.4-1.7,0.8-3.4,1.1-5c0-0.2-0.2-0.2-0.3-0.1c-0.5,2-0.9,4-1.4,6c-0.2,1.1-1.2,3.3-1,4.4c0.3,1.6,2.9,0.8,4.2,0.9
						c1.1,0.1,2.2,0.2,3.3,0.4c-0.1,0,1.2,0.3,1.3,0.2c0.2-0.1,0.4-0.2,0.5-0.3c0.7-0.7,0.5-3.2,0.6-4.1c0.3-2.2,0.5-4.4,0.8-6.6
						c0-0.1-0.1-0.1-0.1-0.1c-3-0.2-6-0.6-9-1.1C14.8,73.5,14.7,73.7,14.9,73.8L14.9,73.8z"/>
				</g>
			</g>
			<g>
				<g>
					<path d="M32.8,62.4c1.5,0.1,3,0.2,4.6,0.2c1.1,0,3.9-0.6,4.4,0.7c0.5,1.1-0.1,3.6-0.1,4.8c0,1.2,0.4,4.5-0.9,5.3
						c-0.4,0.2-1.6-0.1-2.1-0.1c-0.7,0-1.4,0-2.1,0c-0.8,0-1.7,0.2-2.5,0.2c-1.3-0.1-1.3-0.1-1.4-1.5c-0.1-1.3,0.4-3,0.5-4.3
						c0.2-1.7,0.4-3.4,0.6-5.1c0-0.2-0.3-0.2-0.3,0c-0.2,1.9-0.5,3.7-0.7,5.6c-0.1,1-0.2,2-0.4,3c-0.1,0.6-0.5,1.7-0.2,2.2
						c0.7,1.3,3.5,0.3,4.7,0.2c1.4,0,4.1,0.9,4.8-0.5c0.5-1,0.1-3.2,0.1-4.4c0-2,0.1-4.1,0.1-6.1c0-0.1-0.1-0.1-0.1-0.1
						c-3.1,0.1-6.1,0-9.1-0.2C32.7,62.1,32.7,62.4,32.8,62.4L32.8,62.4z"/>
				</g>
			</g>
			<g>
				<g>
					<path d="M13.9,56.5c1.5,0.1,3,0.2,4.6,0.2c1.1,0,3.9-0.6,4.4,0.7c0.5,1.1-0.1,3.6-0.1,4.8c0,1.2,0.4,4.5-0.9,5.3
						c-0.4,0.2-1.6-0.1-2.1-0.1c-0.7,0-1.4,0-2.1,0c-0.8,0-1.7,0.2-2.5,0.2c-1.3-0.1-1.3-0.1-1.4-1.5c-0.1-1.3,0.4-3,0.5-4.3
						c0.2-1.7,0.4-3.4,0.6-5.1c0-0.2-0.3-0.2-0.3,0c-0.2,1.9-0.5,3.7-0.7,5.6c-0.1,1-0.2,2-0.4,3c-0.1,0.6-0.5,1.7-0.2,2.2
						c0.7,1.3,3.5,0.3,4.7,0.2c1.4,0,4.1,0.9,4.8-0.5c0.5-1,0.1-3.2,0.1-4.4c0-2,0.1-4.1,0.1-6.1c0-0.1-0.1-0.1-0.1-0.1
						c-3.1,0.1-6.1,0-9.1-0.2C13.7,56.3,13.7,56.5,13.9,56.5L13.9,56.5z"/>
				</g>
			</g>
			<g>
				<g>
					<path d="M45.9,98.7c1.2,0.2,2.4,0.4,3.7,0.6c1.1,0.1,3.7-0.1,4.6,0.5c1.2,0.8,0.4,3.5,0.2,4.7c-0.1,1,0,3.9-0.6,4.7
						c-1.1,1.5-2.8,0.9-4.2,0.8c-0.6-0.1-1.1-0.1-1.7-0.1c-1.3,0-1.5,0.3-2.3-0.9c-0.8-1.1-0.4-1.5-0.2-2.7c0.2-0.8,0.3-1.5,0.5-2.3
						c0.4-1.7,0.8-3.4,1.1-5c0-0.2-0.2-0.2-0.3-0.1c-0.5,2-0.9,4-1.4,6c-0.2,1.1-1.2,3.3-1,4.4c0.3,1.6,2.9,0.8,4.2,0.9
						c1.1,0.1,2.2,0.2,3.3,0.4c-0.1,0,1.2,0.3,1.3,0.2c0.2-0.1,0.4-0.2,0.5-0.3c0.7-0.7,0.5-3.2,0.6-4.1c0.3-2.2,0.5-4.4,0.8-6.6
						c0-0.1-0.1-0.1-0.1-0.1c-3-0.2-6-0.6-9-1.1C45.8,98.4,45.7,98.6,45.9,98.7L45.9,98.7z"/>
				</g>
			</g>
			<g>
				<g>
					<path d="M29.7,96.1c1.2,0.2,2.4,0.4,3.7,0.6c1.1,0.1,3.7-0.1,4.6,0.5c1.2,0.8,0.4,3.5,0.2,4.7c-0.1,1,0,3.9-0.6,4.7
						c-1.1,1.5-2.8,0.9-4.2,0.8c-0.6-0.1-1.1-0.1-1.7-0.1c-1.3,0-1.5,0.3-2.3-0.9c-0.8-1.1-0.4-1.5-0.2-2.7c0.2-0.8,0.3-1.5,0.5-2.3
						c0.4-1.7,0.8-3.4,1.1-5c0-0.2-0.2-0.2-0.3-0.1c-0.5,2-0.9,4-1.4,6c-0.2,1.1-1.2,3.3-1,4.4c0.3,1.6,2.9,0.8,4.2,0.9
						c1.1,0.1,2.2,0.2,3.3,0.4c-0.1,0,1.2,0.3,1.3,0.2c0.2-0.1,0.4-0.2,0.5-0.3c0.7-0.7,0.5-3.2,0.6-4.1c0.3-2.2,0.5-4.4,0.8-6.6
						c0-0.1-0.1-0.1-0.1-0.1c-3-0.2-6-0.6-9-1.1C29.6,95.8,29.5,96.1,29.7,96.1L29.7,96.1z"/>
				</g>
			</g>
			<g>
				<g>
					<path d="M14.4,93.3c1.2,0.2,2.4,0.4,3.7,0.6c1.1,0.1,3.7-0.1,4.6,0.5c1.2,0.8,0.4,3.5,0.2,4.7c-0.1,1,0,3.9-0.6,4.7
						c-1.1,1.5-2.8,0.9-4.2,0.8c-0.6-0.1-1.1-0.1-1.7-0.1c-1.3,0-1.5,0.3-2.3-0.9c-0.8-1.1-0.4-1.5-0.2-2.7c0.2-0.8,0.3-1.5,0.5-2.3
						c0.4-1.7,0.8-3.4,1.1-5c0-0.2-0.2-0.2-0.3-0.1c-0.5,2-0.9,4-1.4,6c-0.2,1.1-1.2,3.3-1,4.4c0.3,1.6,2.9,0.8,4.2,0.9
						c1.1,0.1,2.2,0.2,3.3,0.4c-0.1,0,1.2,0.3,1.3,0.2c0.2-0.1,0.4-0.2,0.5-0.3c0.7-0.7,0.5-3.2,0.6-4.1c0.3-2.2,0.5-4.4,0.8-6.6
						c0-0.1-0.1-0.1-0.1-0.1c-3-0.2-6-0.6-9-1.1C14.3,93,14.2,93.3,14.4,93.3L14.4,93.3z"/>
				</g>
			</g>
			<g>
				<g>
					<path d="M43.4,115.2c1.2,0.2,2.4,0.4,3.7,0.6c1.1,0.1,3.7-0.1,4.6,0.5c1.2,0.8,0.4,3.5,0.2,4.7c-0.1,1,0,3.9-0.6,4.7
						c-1.1,1.5-2.8,0.9-4.2,0.8c-0.6-0.1-1.1-0.1-1.7-0.1c-1.3,0-1.5,0.3-2.3-0.9c-0.8-1.1-0.4-1.5-0.2-2.7c0.2-0.8,0.3-1.5,0.5-2.3
						c0.4-1.7,0.8-3.4,1.1-5c0-0.2-0.2-0.2-0.3-0.1c-0.5,2-0.9,4-1.4,6c-0.2,1.1-1.2,3.3-1,4.4c0.3,1.6,2.9,0.8,4.2,0.9
						c1.1,0.1,2.2,0.2,3.3,0.4c-0.1,0,1.2,0.3,1.3,0.2c0.2-0.1,0.4-0.2,0.5-0.3c0.7-0.7,0.5-3.2,0.6-4.1c0.3-2.2,0.5-4.4,0.8-6.6
						c0-0.1-0.1-0.1-0.1-0.1c-3-0.2-6-0.6-9-1.1C43.3,114.9,43.2,115.2,43.4,115.2L43.4,115.2z"/>
				</g>
			</g>
			<g>
				<g>
					<path d="M27.2,112.7c1.2,0.2,2.4,0.4,3.7,0.6c1.1,0.1,3.7-0.1,4.6,0.5c1.2,0.8,0.4,3.5,0.2,4.7c-0.1,1,0,3.9-0.6,4.7
						c-1.1,1.5-2.8,0.9-4.2,0.8c-0.6-0.1-1.1-0.1-1.7-0.1c-1.3,0-1.5,0.3-2.3-0.9c-0.8-1.1-0.4-1.5-0.2-2.7c0.2-0.8,0.3-1.5,0.5-2.3
						c0.4-1.7,0.8-3.4,1.1-5c0-0.2-0.2-0.2-0.3-0.1c-0.5,2-0.9,4-1.4,6c-0.2,1.1-1.2,3.3-1,4.4c0.3,1.6,2.9,0.8,4.2,0.9
						c1.1,0.1,2.2,0.2,3.3,0.4c-0.1,0,1.2,0.3,1.3,0.2c0.2-0.1,0.4-0.2,0.5-0.3c0.7-0.7,0.5-3.2,0.6-4.1c0.3-2.2,0.5-4.4,0.8-6.6
						c0-0.1-0.1-0.1-0.1-0.1c-3-0.2-6-0.6-9-1.1C27.1,112.4,27,112.6,27.2,112.7L27.2,112.7z"/>
				</g>
			</g>
			<g>
				<g>
					<path d="M12.6,111.1c1.2,0.2,2.4,0.4,3.7,0.6c1.1,0.1,3.7-0.1,4.6,0.5c1.2,0.8,0.4,3.5,0.2,4.7c-0.1,1,0,3.9-0.6,4.7
						c-1.1,1.5-2.8,0.9-4.2,0.8c-0.6-0.1-1.1-0.1-1.7-0.1c-1.3,0-1.5,0.3-2.3-0.9c-0.8-1.1-0.4-1.5-0.2-2.7c0.2-0.8,0.3-1.5,0.5-2.3
						c0.4-1.7,0.8-3.4,1.1-5c0-0.2-0.2-0.2-0.3-0.1c-0.5,2-0.9,4-1.4,6c-0.2,1.1-1.2,3.3-1,4.4c0.3,1.6,2.9,0.8,4.2,0.9
						c1.1,0.1,2.2,0.2,3.3,0.4c-0.1,0,1.2,0.3,1.3,0.2c0.2-0.1,0.4-0.2,0.5-0.3c0.7-0.7,0.5-3.2,0.6-4.1c0.3-2.2,0.5-4.4,0.8-6.6
						c0-0.1-0.1-0.1-0.1-0.1c-3-0.2-6-0.6-9-1.1C12.5,110.8,12.4,111.1,12.6,111.1L12.6,111.1z"/>
				</g>
			</g>
			<g>
				<g>
					<path d="M69.1,63.3c0.2,4.8-0.1,9.5-0.9,14.2c0,0.1,0.1,0.2,0.2,0.2c2-1.4,5.8-2.1,6.6-4.5c0.6-1.7,0.4-4,0.5-5.8
						c0.2-2.7,0.5-5.5,0.7-8.2c0-0.1-0.2-0.2-0.2-0.1c-2,1.9-4,3.2-6.6,4.2c-0.2,0.1-0.1,0.3,0.1,0.3c1.1-0.4,2.1-0.8,3.2-1.4
						c0.2-0.1,2.5-2.1,2.8-2c1,0.2-0.2,9.6-0.4,10.7c-0.3,1.5-0.9,3.2-2.1,4.1c-0.6,0.4-1.5,0.7-2.1,1c-1.8,1-1.9,0.9-1.9-1.1
						c0.1-3.8,0.6-7.6,0.5-11.5C69.4,63.2,69.1,63.2,69.1,63.3L69.1,63.3z"/>
				</g>
			</g>
			<g>
				<g>
					<path d="M85.6,55c0.2,4.8-0.1,9.5-0.9,14.2c0,0.1,0.1,0.2,0.2,0.2c2-1.4,5.8-2.1,6.6-4.5c0.6-1.7,0.4-4,0.5-5.8
						c0.2-2.7,0.5-5.5,0.7-8.2c0-0.1-0.2-0.2-0.2-0.1c-2,1.9-4,3.2-6.6,4.2c-0.2,0.1-0.1,0.3,0.1,0.3c1.1-0.4,2.1-0.8,3.2-1.4
						c0.2-0.1,2.5-2.1,2.8-2c1,0.2-0.2,9.6-0.4,10.7c-0.3,1.5-0.9,3.2-2.1,4.1c-0.6,0.4-1.5,0.7-2.1,1c-1.8,1-1.9,0.9-1.9-1.1
						c0.1-3.8,0.6-7.6,0.5-11.5C85.9,54.8,85.6,54.8,85.6,55L85.6,55z"/>
				</g>
			</g>
			<g>
				<g>
					<path d="M67.7,89c0.2,4.8-0.1,9.5-0.9,14.2c0,0.1,0.1,0.2,0.2,0.2c2-1.4,5.8-2.1,6.6-4.5c0.6-1.7,0.4-4,0.5-5.8
						c0.2-2.7,0.5-5.5,0.7-8.2c0-0.1-0.2-0.2-0.2-0.1c-2,1.9-4,3.2-6.6,4.2c-0.2,0.1-0.1,0.3,0.1,0.3c1.1-0.4,2.1-0.8,3.2-1.4
						c0.2-0.1,2.5-2.1,2.8-2c1,0.2-0.2,9.6-0.4,10.7c-0.3,1.5-0.9,3.2-2.1,4.1c-0.6,0.4-1.5,0.7-2.1,1c-1.8,1-1.9,0.9-1.9-1.1
						c0.1-3.8,0.6-7.6,0.5-11.5C68,88.9,67.7,88.9,67.7,89L67.7,89z"/>
				</g>
			</g>
			<g>
				<g>
					<path d="M91.2,76.5c-1.9,1.9-4.1,3.3-6.6,4.2c-0.2,0.1-0.1,0.3,0.1,0.3c2.6-0.9,4.8-2.3,6.8-4.2C91.5,76.5,91.3,76.3,91.2,76.5
						L91.2,76.5z"/>
				</g>
			</g>
			<g>
				<g>
					<path d="M84.3,80.7c0.2,4.8-0.1,9.5-0.9,14.2c0,0.1,0.1,0.2,0.2,0.2c2-1.4,5.8-2.1,6.6-4.5c0.6-1.7,0.4-4,0.5-5.8
						c0.2-2.7,0.5-5.5,0.7-8.2c0-0.2-0.3-0.2-0.3,0c-0.2,2.7-0.5,5.5-0.7,8.2c-0.1,1.3,0,2.8-0.4,4.1c-0.9,3.4-1.8,3.1-4.1,4.4
						c-1.4,0.8-1.7,1.3-2-0.4c-0.1-0.9,0.3-2,0.3-2.9c0.3-3.1,0.3-6.2,0.2-9.3C84.5,80.5,84.2,80.5,84.3,80.7L84.3,80.7z"/>
				</g>
			</g>
			<g>
				<g>
					<path d="M66.8,111.6c0.2,4.8-0.1,9.5-0.9,14.2c0,0.1,0.1,0.2,0.2,0.2c2-1.4,5.8-2.1,6.6-4.5c0.6-1.7,0.4-4,0.5-5.8
						c0.2-2.7,0.5-5.5,0.7-8.2c0-0.1-0.2-0.2-0.2-0.1c-2,1.9-4,3.2-6.6,4.2c-0.2,0.1-0.1,0.3,0.1,0.3c1.1-0.4,2.1-0.8,3.2-1.4
						c0.2-0.1,2.5-2.1,2.8-2c1,0.2-0.2,9.6-0.4,10.7c-0.3,1.5-0.9,3.2-2.1,4.1c-0.6,0.4-1.5,0.7-2.1,1c-1.8,1-1.9,0.9-1.9-1.1
						c0.1-3.8,0.6-7.6,0.5-11.5C67.1,111.5,66.8,111.5,66.8,111.6L66.8,111.6z"/>
				</g>
			</g>
			<g>
				<g>
					<path d="M83.3,103.3c0.2,4.8-0.1,9.5-0.9,14.2c0,0.1,0.1,0.2,0.2,0.2c2-1.4,5.8-2.1,6.6-4.5c0.6-1.7,0.4-4,0.5-5.8
						c0.2-2.7,0.5-5.5,0.7-8.2c0-0.1-0.2-0.2-0.2-0.1c-2,1.9-4,3.2-6.6,4.2c-0.2,0.1-0.1,0.3,0.1,0.3c1.1-0.4,2.1-0.8,3.2-1.4
						c0.2-0.1,2.5-2.1,2.8-2c1,0.2-0.2,9.6-0.4,10.7c-0.3,1.5-0.9,3.2-2.1,4.1c-0.6,0.4-1.5,0.7-2.1,1c-1.8,1-1.9,0.9-1.9-1.1
						c0.1-3.8,0.6-7.6,0.5-11.5C83.6,103.1,83.3,103.1,83.3,103.3L83.3,103.3z"/>
				</g>
			</g>
			<g>
				<g>
					<path d="M8.3,130.7c7.8,2.8,15.6,6.2,23.6,8.4c7.1,1.9,14.6,2.8,21.8,3.9c6.7,1,10.5-2,16.1-5.3c7.2-4.2,14.6-7.6,22.4-10.5
						c1.9-0.7,1.1-3.7-0.8-3c-6.3,2.3-12.5,5-18.4,8.2c-2.9,1.6-5.8,3.2-8.6,5c-4.9,3-7.9,3-13.4,2c-6.6-1.1-13.5-1.8-19.9-3.8
						c-7.4-2.3-14.6-5.2-21.9-7.9C7.2,127,6.4,130,8.3,130.7L8.3,130.7z"/>
				</g>
			</g>
			<polyline class="st1" points="36.3,15.8 38.5,15 67.6,17.4 66,18.4 67.6,17.4 65.8,45.4 64.7,46.9 37.3,42.5 36.3,15.8 66,18.4 
				64.7,45.4 			"/>
			<g>
				<path class="st2" d="M49.6,29.7c0.1-1.2,0.2-2.4,0.3-3.6c0-0.2,0-0.4,0.1-0.5c0.3-0.4,0.9-0.4,1.4-0.3c0.3,0.1,0.5,0.1,0.7,0.3
					c0.1,0.2,0.1,0.4,0.1,0.7c-0.1,1.2-0.2,2.4-0.3,3.6c1.4,0,2.9,0.1,4.3,0.4c0.1,0,0.3,0.1,0.4,0.2c0.1,0.1,0.1,0.2,0.1,0.3
					c0,0.3,0,0.7,0,1c0,0.1,0,0.3-0.1,0.4c-0.1,0.2-0.4,0.2-0.6,0.2c-1-0.1-2-0.2-3-0.3c-0.3,0-0.6-0.1-0.8,0.1
					c-0.5,0.2-0.6,0.9-0.7,1.5c0,0.6-0.1,1.2-0.1,1.7c0,0.4-0.1,0.8-0.4,1c-0.4,0.3-0.9,0.2-1.3-0.2s-0.4-0.8-0.4-1.3
					c0-0.5,0-1.1,0.1-1.6c0.1-0.3,0.1-0.5,0-0.8c-0.1-0.4-0.7-0.6-1.1-0.7c-0.6-0.1-1.2,0-1.7-0.1c-0.6-0.1-1.2-0.3-1.5-0.8
					s-0.4-1.2,0-1.6c0.4-0.4,1.1-0.4,1.8-0.3c0.9,0.1,1.8,0.3,2.7,0.4"/>
			</g>
		</g>
		<g>
			<g>
				<g>
					<path d="M98.1,64.8c5.8,1.7,12.1,2.2,18,3.2c5.8,0.9,12.5,1.3,17.9,3.4c0.5,0.2,0.7-0.6,0.2-0.8c-5.5-2.2-12.2-2.5-17.9-3.4
						c-5.9-1-12.2-1.5-18-3.2C97.8,63.9,97.6,64.7,98.1,64.8L98.1,64.8z"/>
				</g>
			</g>
			<g>
				<g>
					<path d="M134.4,70.9c4.8-3.5,10.8-3.6,16.1-5.8c4.4-1.8,8.9-4.1,12.6-7.1c0.3-0.3,0-0.7-0.3-0.7c-11.7-1.4-23.2-3.8-34.8-1.8
						c-9.4,1.6-19,2.4-28.5,3.3c-0.5,0.1-0.5,0.9,0,0.8c5.8-0.5,11.7-1.1,17.5-1.7c3.7-0.4,7.5-1,11.2-1.6c5.6-1,10.4-1.1,16-0.4
						c4.6,0.6,9.1,1.1,13.7,1.7c3.2,0.4,3.5,0.6,0.7,2.5c-1.5,1.1-3.4,1.7-5.1,2.5c-6.3,3.1-13.9,3.4-19.6,7.5
						C133.6,70.5,134,71.2,134.4,70.9L134.4,70.9z"/>
				</g>
			</g>
			<g>
				<g>
					<path d="M100.4,110.7c0.5,0,0.5-0.8,0-0.8C99.8,109.9,99.8,110.7,100.4,110.7L100.4,110.7z"/>
				</g>
			</g>
			<g>
				<g>
					<path d="M98.2,64.8c0.5,0,0.5-0.8,0-0.8C97.7,64,97.7,64.8,98.2,64.8L98.2,64.8z"/>
				</g>
			</g>
			<g>
				<g>
					<path d="M133.8,70.6c-0.8,9.9,0.3,19.8-0.6,29.8c0,0.5,0.8,0.5,0.8,0c0.8-9.9-0.3-19.8,0.6-29.8C134.7,70,133.8,70,133.8,70.6
						L133.8,70.6z"/>
				</g>
			</g>
			<g>
				<g>
					<path d="M162.8,57.3c-0.8,0.3-0.6,2-0.7,2.6c-0.5,4.5-0.7,9.1-1.2,13.6c-1.1,10.3-2.6,20.6-4.5,30.8c-0.1,0.5,0.7,0.8,0.8,0.2
						c1.3-7.4,2.5-14.8,3.5-22.3c0.5-3.9,0.9-7.8,1.3-11.6c0.1-1.1,0.4-12.3,1-12.5C163.5,57.9,163.3,57.1,162.8,57.3L162.8,57.3z"
						/>
				</g>
			</g>
			<g>
				<g>
					<path d="M133.3,101.2c0,5.8-0.6,11.6-1.6,17.3c-0.1,0.4,0.3,0.6,0.6,0.5c4.2-1.9,7.9-5,12.1-6.9c4.6-2.1,9.3-3.8,13.6-6.5
						c0.5-0.3,0-1-0.4-0.7c-6.4,4-13.9,5.9-20.3,10c-0.6,0.4-3.7,3.1-4.2,2.8c-0.9-0.5,0.2-4.1,0.3-4.7c0.5-3.9,0.7-7.8,0.7-11.8
						C134.2,100.7,133.3,100.7,133.3,101.2L133.3,101.2z"/>
				</g>
			</g>
			<g>
				<g>
					<path d="M131.2,118.2c-7.4-0.2-14.5-1.8-21.6-3.6c-2.7-0.7-5.4-1.3-8-2.3c-2.8-1-5.2-2.7-8-3.5c-0.5-0.1-0.7,0.7-0.2,0.8
						c2.8,0.8,5.3,2.5,8,3.5c3.2,1.2,6.5,1.9,9.8,2.7c6.6,1.7,13.2,3,20.1,3.2C131.7,119,131.7,118.2,131.2,118.2L131.2,118.2z"/>
				</g>
			</g>
			<g>
				<g>
					<g>
						<path d="M121.7,75.2c0.9,0.2,1.9,0.3,2.8,0.4c0.8,0.1,2.8-0.1,3.5,0.4c0.9,0.6,0.3,2.7,0.2,3.6c-0.1,0.8,0,3-0.5,3.6
							c-0.8,1.2-2.1,0.7-3.3,0.6c-0.4,0-0.9-0.1-1.3-0.1c-1,0-1.1,0.2-1.7-0.7c-0.6-0.8-0.3-1.2-0.1-2.1c0.1-0.6,0.3-1.2,0.4-1.8
							c0.3-1.3,0.6-2.6,0.9-3.9c0-0.1-0.2-0.2-0.2-0.1c-0.3,1.5-0.7,3-1,4.6c-0.2,0.8-0.9,2.5-0.7,3.4c0.2,1.2,2.2,0.6,3.2,0.7
							c0.9,0.1,1.7,0.2,2.5,0.3c-0.1,0,0.9,0.2,1,0.2c0.1-0.1,0.3-0.1,0.4-0.2c0.5-0.5,0.4-2.5,0.4-3.2c0.2-1.7,0.4-3.4,0.6-5.1
							c0-0.1-0.1-0.1-0.1-0.1c-2.3-0.2-4.6-0.4-6.9-0.9C121.6,75,121.5,75.2,121.7,75.2L121.7,75.2z"/>
					</g>
				</g>
				<g>
					<g>
						<path d="M108.6,73.1c0.9,0.2,1.9,0.3,2.8,0.4c0.8,0.1,2.8-0.1,3.5,0.4c0.9,0.6,0.3,2.7,0.2,3.6c-0.1,0.8,0,3-0.5,3.6
							c-0.8,1.2-2.1,0.7-3.3,0.6c-0.4,0-0.9-0.1-1.3-0.1c-1,0-1.1,0.2-1.7-0.7c-0.6-0.8-0.3-1.2-0.1-2.1c0.1-0.6,0.3-1.2,0.4-1.8
							c0.3-1.3,0.6-2.6,0.9-3.9c0-0.1-0.2-0.2-0.2-0.1c-0.3,1.5-0.7,3-1,4.6c-0.2,0.8-0.9,2.5-0.7,3.4c0.2,1.2,2.2,0.6,3.2,0.7
							c0.9,0.1,1.7,0.2,2.5,0.3c-0.1,0,0.9,0.2,1,0.2c0.1-0.1,0.3-0.1,0.4-0.2c0.5-0.5,0.4-2.5,0.4-3.2c0.2-1.7,0.4-3.4,0.6-5.1
							c0-0.1-0.1-0.1-0.1-0.1c-2.3-0.2-4.6-0.4-6.9-0.9C108.6,72.9,108.5,73.1,108.6,73.1L108.6,73.1z"/>
					</g>
				</g>
				<g>
					<g>
						<path d="M98.2,70.7c1.2,0.2,2.4,0.5,3.6,0.6c1.2,0.1,1.4,0.2,1.5,1.4c0.1,0.7-0.2,1.6-0.3,2.3c-0.1,0.8-0.2,1.6-0.3,2.3
							c-0.2,1.4-0.4,2-2,2c-1.2,0-2.5-0.2-3.7-0.2c-0.1,0-0.1,0.2,0,0.2c0.7,0,1.5,0,2.2,0c0.8,0.1,1.8,0.4,2.6,0.4
							c0.4,0,0.5,0.1,0.8-0.2c0.4-0.4,0.4-2.4,0.4-3c0.2-1.8,0.4-3.6,0.6-5.3c0-0.1-0.1-0.1-0.1-0.1c-1.8-0.1-3.5-0.5-5.2-0.8
							C98.1,70.4,98.1,70.6,98.2,70.7L98.2,70.7z"/>
					</g>
				</g>
			</g>
			<g>
				<g>
					<g>
						<path d="M121.1,89.1c0.9,0.2,1.9,0.3,2.8,0.4c0.8,0.1,2.8-0.1,3.5,0.4c0.9,0.6,0.3,2.7,0.2,3.6c-0.1,0.8,0,3-0.5,3.6
							c-0.8,1.2-2.1,0.7-3.3,0.6c-0.4,0-0.9-0.1-1.3-0.1c-1,0-1.1,0.2-1.7-0.7c-0.6-0.8-0.3-1.2-0.1-2.1c0.1-0.6,0.3-1.2,0.4-1.8
							c0.3-1.3,0.6-2.6,0.9-3.9c0-0.1-0.2-0.2-0.2-0.1c-0.3,1.5-0.7,3-1,4.6c-0.2,0.8-0.9,2.5-0.7,3.4c0.2,1.2,2.2,0.6,3.2,0.7
							c0.9,0.1,1.7,0.2,2.5,0.3c-0.1,0,0.9,0.2,1,0.2c0.1-0.1,0.3-0.1,0.4-0.2c0.5-0.5,0.4-2.5,0.4-3.2c0.2-1.7,0.4-3.4,0.6-5.1
							c0-0.1-0.1-0.1-0.1-0.1c-2.3-0.2-4.6-0.4-6.9-0.9C121.1,88.9,121,89.1,121.1,89.1L121.1,89.1z"/>
					</g>
				</g>
				<g>
					<g>
						<path d="M108.1,86.9c0.9,0.2,1.9,0.3,2.8,0.4c0.8,0.1,2.8-0.1,3.5,0.4c0.9,0.6,0.3,2.7,0.2,3.6c-0.1,0.8,0,3-0.5,3.6
							c-0.8,1.2-2.1,0.7-3.3,0.6c-0.4,0-0.9-0.1-1.3-0.1c-1,0-1.1,0.2-1.7-0.7c-0.6-0.8-0.3-1.2-0.1-2.1c0.1-0.6,0.3-1.2,0.4-1.8
							c0.3-1.3,0.6-2.6,0.9-3.9c0-0.1-0.2-0.2-0.2-0.1c-0.3,1.5-0.7,3-1,4.6c-0.2,0.8-0.9,2.5-0.7,3.4c0.2,1.2,2.2,0.6,3.2,0.7
							c0.9,0.1,1.7,0.2,2.5,0.3c-0.1,0,0.9,0.2,1,0.2c0.1-0.1,0.3-0.1,0.4-0.2c0.5-0.5,0.4-2.5,0.4-3.2c0.2-1.7,0.4-3.4,0.6-5.1
							c0-0.1-0.1-0.1-0.1-0.1c-2.3-0.2-4.6-0.4-6.9-0.9C108,86.7,108,86.9,108.1,86.9L108.1,86.9z"/>
					</g>
				</g>
				<g>
					<g>
						<path d="M96.7,84.8c1.4,0.2,2.9,0.4,4.3,0.5c0.4,0,0.8,0,1.3,0.1c0.5,0.3,0.6,0.7,0.4,1.3c0.1,0.7-0.2,1.6-0.3,2.3
							c-0.1,0.8-0.2,1.6-0.3,2.3c-0.2,1.5-0.5,2-2.1,2c-1.5,0.1-3-0.3-4.5-0.2c0,0-0.1,0-0.1,0.1c0,0,0,0,0,0c0,0.1,0.2,0.2,0.2,0.1
							c0,0,0,0,0,0c0,0,0-0.1,0-0.1c-0.9-0.8,0.1-3.2,0.3-4.2c0.3-1.4,0.6-2.8,1-4.2c0-0.1-0.2-0.2-0.2-0.1c-0.5,2-0.9,4.1-1.4,6.1
							c-0.1,0.5-0.4,1.2-0.4,1.7c0,0.2,0.5,0.8,0.5,0.7c0,0.1,0.2,0.2,0.2,0.1c0.2-0.5,5.3,0.5,5.6,0.5c0.4,0,0.5,0.1,0.8-0.2
							c0.4-0.4,0.4-2.4,0.4-3c0.2-1.8,0.4-3.6,0.6-5.3c0-0.1-0.1-0.1-0.1-0.1c-2.1-0.1-4.1-0.2-6.2-0.6
							C96.6,84.5,96.6,84.7,96.7,84.8L96.7,84.8z"/>
					</g>
				</g>
			</g>
			<g>
				<g>
					<path d="M138.8,76.1c0.1,3.2-0.3,6.3-0.8,9.5c0,0.1,0.1,0.2,0.2,0.1c0.4-0.3,4.7-3.1,5-2.3c0,0.1,0.1,0.1,0.2,0.1
						c0.4-0.2,0.3-2.5,0.3-3c0.2-2.5,0.4-5.1,0.7-7.6c0-0.1-0.1-0.1-0.2-0.1c-1.5,1.5-3.1,2.5-5.1,3.2c-0.1,0-0.1,0.2,0.1,0.2
						c1.1-0.4,2.1-0.9,3.1-1.5c1.1-0.7,1.7-1.9,1.7,0.1c0,1.6-0.3,3.2-0.4,4.8c-0.1,0.9-0.1,2-0.2,2.9c-0.1,0.2,0.2,1.1-0.1,0.4
						c0,0-0.1,0-0.1-0.1c-1.4-0.1-4.2,3.3-4.6,1.4c-0.2-0.9,0.4-2.5,0.5-3.4c0.2-1.6,0.2-3.2,0.1-4.8C139,76,138.8,76,138.8,76.1
						L138.8,76.1z"/>
				</g>
			</g>
			<g>
				<g>
					<path d="M151.5,69.8c0.1,3.2-0.3,6.3-0.8,9.5c0,0.1,0.1,0.2,0.2,0.1c0.4-0.3,4.7-3.1,5-2.3c0,0.1,0.1,0.1,0.2,0.1
						c0.4-0.2,0.3-2.5,0.3-3c0.2-2.5,0.4-5.1,0.7-7.6c0-0.1-0.1-0.1-0.2-0.1c-1.5,1.5-3.1,2.5-5.1,3.2c-0.1,0-0.1,0.2,0.1,0.2
						c1.1-0.4,2.1-0.9,3.1-1.5c1.1-0.7,1.7-1.9,1.7,0.1c0,1.6-0.3,3.2-0.4,4.8c-0.1,0.9-0.1,2-0.2,2.9c-0.1,0.2,0.2,1.1-0.1,0.4
						c0,0-0.1,0-0.1-0.1c-1.4-0.1-4.2,3.3-4.6,1.4c-0.2-0.9,0.4-2.5,0.5-3.4c0.2-1.6,0.2-3.2,0.1-4.8
						C151.7,69.6,151.5,69.6,151.5,69.8L151.5,69.8z"/>
				</g>
			</g>
			<g>
				<g>
					<path d="M138.8,90.6c0.1,3.2-0.3,6.3-0.8,9.5c0,0.1,0.1,0.2,0.2,0.1c0.4-0.3,4.7-3.1,5-2.3c0,0.1,0.1,0.1,0.2,0.1
						c0.4-0.2,0.3-2.5,0.3-3c0.2-2.5,0.4-5.1,0.7-7.6c0-0.1-0.1-0.1-0.2-0.1c-1.5,1.5-3.1,2.5-5.1,3.2c-0.1,0-0.1,0.2,0.1,0.2
						c1.1-0.4,2.1-0.9,3.1-1.5c1.1-0.7,1.7-1.9,1.7,0.1c0,1.6-0.3,3.2-0.4,4.8c-0.1,0.9-0.1,2-0.2,2.9c-0.1,0.2,0.2,1.1-0.1,0.4
						c0,0-0.1,0-0.1-0.1c-1.4-0.1-4.2,3.3-4.6,1.4c-0.2-0.9,0.4-2.5,0.5-3.4c0.2-1.6,0.2-3.2,0.1-4.8
						C139,90.5,138.8,90.5,138.8,90.6L138.8,90.6z"/>
				</g>
			</g>
			<g>
				<g>
					<path d="M151.5,84.2c0.1,3.2-0.3,6.3-0.8,9.5c0,0.1,0.1,0.2,0.2,0.1c0.4-0.3,4.7-3.1,5-2.3c0,0.1,0.1,0.1,0.2,0.1
						c0.4-0.2,0.3-2.5,0.3-3c0.2-2.5,0.4-5.1,0.7-7.6c0-0.1-0.1-0.1-0.2-0.1c-1.5,1.5-3.1,2.5-5.1,3.2c-0.1,0-0.1,0.2,0.1,0.2
						c1.1-0.4,2.1-0.9,3.1-1.5c1.1-0.7,1.7-1.9,1.7,0.1c0,1.6-0.3,3.2-0.4,4.8c-0.1,0.9-0.1,2-0.2,2.9c-0.1,0.2,0.2,1.1-0.1,0.4
						c0,0-0.1,0-0.1-0.1c-1.4-0.1-4.2,3.3-4.6,1.4c-0.2-0.9,0.4-2.5,0.5-3.4c0.2-1.6,0.2-3.2,0.1-4.8
						C151.7,84.1,151.5,84.1,151.5,84.2L151.5,84.2z"/>
				</g>
			</g>
			<g>
				<g>
					<path d="M94.7,110.4c5.5,2.1,10.9,4.7,16.6,6.2c5.5,1.5,11.4,2.3,17,3c4.7,0.6,7-1,10.9-3.3c5.8-3.5,12-6.4,18.4-8.8
						c1.4-0.5,0.8-2.9-0.6-2.3c-4.6,1.7-9.1,3.7-13.5,5.9c-2.7,1.4-5.2,3.1-7.8,4.5c-3.5,1.9-6.2,1.8-10.1,1.1
						c-4.8-0.8-9.8-1.3-14.5-2.7c-5.4-1.6-10.5-4-15.8-6C93.9,107.5,93.2,109.8,94.7,110.4L94.7,110.4z"/>
				</g>
			</g>
			<g>
				<path class="st3" d="M105.4,111.3c-0.5-4.3-0.6-8.6-0.3-12.9c3.1,0.5,6.2,1,9.3,1.5c0.2,0,0.4,0.1,0.5,0.2
					c0.1,0.1,0.1,0.3,0.2,0.5c0.3,4.8-0.7,9.8,0.5,14.5"/>
				<g>
					<path d="M105.5,111.3c-0.4-3.2-1.1-7.1-0.5-10.3c0.4-1.9,0.4-2.1,2.3-2.1c1.5,0,3.2,0.5,4.7,0.7c0.8,0.1,1.6,0.2,2.3,0.4
						c0.6,1,0.8,2,0.7,3.1c0.1,1.2-0.1,2.5-0.1,3.7c-0.1,2.9,0,5.6,0.6,8.5c0,0.1,0.2,0.1,0.2-0.1c-0.7-3-0.6-5.9-0.6-9
						c0-1.3,0.8-4.9-0.1-6c-0.4-0.4-1.3-0.4-1.8-0.5c-2.7-0.6-5.5-0.9-8.2-1.3c-0.1,0-0.1,0-0.1,0.1c-0.2,4.3-0.1,8.6,0.3,12.9
						C105.3,111.4,105.5,111.4,105.5,111.3L105.5,111.3z"/>
				</g>
			</g>
		</g>
	</g>
</g>
</svg>
