<?xml version="1.0" encoding="utf-8"?>
<!-- Generator: Adobe Illustrator 21.0.2, SVG Export Plug-In . SVG Version: 6.00 Build 0)  -->
<svg version="1.1" xmlns="http://www.w3.org/2000/svg" xmlns:xlink="http://www.w3.org/1999/xlink" x="0px" y="0px"
	 viewBox="0 0 166 166" style="enable-background:new 0 0 166 166;" xml:space="preserve">
<style type="text/css">
	.st0{fill:#FFFFFF;}
	.st1{fill:#E6E6E6;}
	.st2{fill:#4D4D4D;}
	.st3{fill:#F7931E;}
	.st4{fill:none;stroke:#F7931E;stroke-width:0.7576;stroke-linecap:round;stroke-linejoin:round;stroke-miterlimit:10;}
	.st5{fill:none;stroke:#F7931E;stroke-width:0.7576;stroke-miterlimit:10;}
	.st6{fill:none;stroke:#F7931E;stroke-width:1.1364;stroke-miterlimit:10;}
</style>
<g id="Layer_3">
	<g>
		<path class="st0" d="M38.9,128c-0.1-0.2-0.2-0.3-0.2-0.4C38.8,127.7,38.8,127.9,38.9,128C38.9,128,38.9,128,38.9,128z"/>
		<path class="st0" d="M50.3,131.8c-0.7-2.5-3.1-3.6-5.5-3.1c-1.2,0.2-2.5,0.2-3.8-0.1c-0.6-0.1-1.5-0.6-2.1-0.6
			c0.1,0.2,0.2,0.4,0.3,0.8c-0.1-0.3-0.2-0.5-0.3-0.8c0,0-0.1,0-0.1,0c-0.5,0-0.4-0.7-0.1-0.3c-2.5-3.9-9.8-1.5-8.1,3.6
			c2.1,6.5,11,7.3,16.6,6.2C49.6,136.9,50.9,134,50.3,131.8z"/>
	</g>
</g>
<g id="Layer_2">
	<g>
		<g>
			<path class="st1" d="M85.9,59.5c5.6-1.2,22.3-6.2,27.9-7.4c1-0.2,2-0.4,3-0.3c1,0.2,1.8,0.6,2.7,1.1c7.3,4,16.2,5.5,24.8,7
				c4.9,0.8,9.9,1.7,14.8,2.5c-9.4,2.2-19,3.9-28.7,5.2c-2.8,0.4-5.7,0.7-8.5,1.4c-1,0.3-2.1,0.6-3.1,0.7c-0.9,0.1-1.8-0.1-2.6-0.2
				c-14.6-2-29.1-4.7-43.3-8.1l-0.3,0C77.1,61.4,81.6,60.7,85.9,59.5"/>
			<g>
				<path class="st2" d="M85.9,59.8c8.8-1.9,17.3-5.3,26.1-6.9c6.6-1.2,13.7,3.5,20.1,5c7,1.7,14.2,2.7,21.3,3.9
					c0.3,0,3.5,0.4,3.7,0.7c0-0.1-5.4,1.2-5.7,1.2c-3.8,0.8-7.6,1.5-11.5,2.1c-3.8,0.6-7.6,1.1-11.4,1.7c-3.6,0.5-7.5,1.9-11.1,1.8
					c-7.9-0.2-16.2-2.4-24-3.9c-4.1-0.8-8.1-1.6-12.2-2.5c-2.5-0.6-6.1-2.1-8.7-1.9c-0.4,0-0.4,0.7,0,0.7
					C77.1,61.6,81.5,61,85.9,59.8c0.4-0.1,0.2-0.7-0.2-0.6c-2.7,0.7-5.4,1.3-8.2,1.6c-1.2,0.1-4.1-0.4-3,1.4
					c0.4,0.8,5.5,1.3,6.5,1.5c2.2,0.5,4.4,0.9,6.5,1.4c8.5,1.7,17,3.2,25.5,4.4c6.6,1,12.6-0.8,19.2-1.8c9-1.3,17.9-2.9,26.8-5
					c0.3-0.1,0.3-0.6,0-0.6c-8.4-1.4-16.8-2.6-25.1-4.5c-4.4-1-8.8-2.3-12.9-4.2c-2.1-1-3.5-2-5.9-1.9c-4.9,0.3-10.2,2.5-14.8,3.8
					c-4.8,1.3-9.7,2.8-14.6,3.9C85.4,59.3,85.5,59.9,85.9,59.8L85.9,59.8z"/>
			</g>
		</g>
		<g>
			<g>
				<path class="st2" d="M71.9,62c2.8,21.5,5.2,43.1,7.3,64.7c0.1,0.9,1.5,0.9,1.4,0c-2-21.6-4.4-43.1-7.3-64.7
					C73.2,61.2,71.8,61.1,71.9,62L71.9,62z"/>
			</g>
		</g>
		<g>
			<g>
				<path class="st2" d="M157.4,63.1c0.5,10.3,1,20.7-0.1,31c-1.1,10-5,19.4-5.4,29.4c0,0.9,1.4,0.9,1.4,0c0.4-10,4.4-19.5,5.4-29.4
					c1.1-10.3,0.6-20.7,0.1-31C158.7,62.3,157.3,62.3,157.4,63.1L157.4,63.1z"/>
			</g>
		</g>
		<g>
			<g>
				<path class="st2" d="M78.3,128.9c6.7,2.9,13.6,5.4,20.6,7.4c3.8,1.1,7.7,2,11.5,2.7c2.7,0.5,6.1,1.7,8.9,1.4
					c5.7-0.6,12.1-4.6,17.2-6.9c6.5-3,13.6-4.4,20-7.5c1.6-0.8,0.2-3.2-1.4-2.4c-5.4,2.6-11.3,3.7-16.8,6.1
					c-3.2,1.4-6.4,2.9-9.6,4.3c-2.8,1.2-6.7,3.4-9.7,3.6c-5.8,0.4-12.9-2.2-18.5-3.7c-7.1-1.9-14.1-4.4-20.8-7.3
					C78.1,125.8,76.6,128.2,78.3,128.9L78.3,128.9z"/>
			</g>
		</g>
		<g>
			<path class="st1" d="M78.2,87.4c12.5-0.3,24.9-3.2,35.7-8.3c0.6-0.3,1.3-0.6,2.1-0.7c1-0.1,2,0.3,2.9,0.8
				c12.1,5.5,25.3,9.3,39,11.2c-13.1,3.4-26.5,6.1-40,8.1l0.8,0.7c-14-4.2-28.1-8.1-42.4-11.6"/>
			<g>
				<path class="st2" d="M78.2,87.7c9.2-0.3,18.3-1.8,27-4.7c1.9-0.7,3.9-1.4,5.7-2.2c0.9-0.4,2.1-1.2,3.1-1.4
					c2.4-0.4,5.6,0.7,7.8,1.4c4.2,1.5,8.2,3.2,12.4,4.5c4.5,1.4,9.1,2.6,13.7,3.6c1.9,0.4,5.3,0.3,7,1.3c1.3,0.8,0.4,0.3-1.1,0.7
					c-1.2,0.3-2.5,0.6-3.8,0.9c-10.7,2.5-21.6,4.6-32.5,6.3c-0.2,0-0.3,0.4-0.1,0.5c0.9,0.8-1.9-0.7-2.6-0.9
					c-1.8-0.6-3.7-1.1-5.5-1.6c-3.7-1.1-7.3-2.1-11-3.1c-7.4-2-14.8-3.9-22.2-5.8c-0.4-0.1-0.6,0.5-0.2,0.6
					c14.2,3.5,28.4,7.3,42.4,11.6c0.3,0.1,0.6-0.3,0.3-0.5c-0.8-0.7,2.4-0.7,2.9-0.8c1.6-0.2,3.2-0.5,4.8-0.8c3.5-0.6,7-1.3,10.5-2
					c7-1.4,13.9-3,20.8-4.8c0.3-0.1,0.3-0.6,0-0.6c-7.1-1-14.1-2.5-20.9-4.5c-3.4-1-6.7-2.1-10-3.3c-3-1.1-6.3-3.3-9.5-3.9
					c-1.9-0.4-2.8,0.1-4.5,0.9c-3.7,1.6-7.4,3.1-11.3,4.2C94,85.7,86.2,86.8,78.2,87C77.8,87.1,77.8,87.7,78.2,87.7L78.2,87.7z"/>
			</g>
		</g>
		<g>
			<g>
				<path class="st2" d="M115.2,78c0.6-3,0.8-6.1,0.7-9.2c0-0.4-0.7-0.4-0.7,0c0.1,3-0.1,6-0.7,9C114.5,78.3,115.1,78.4,115.2,78
					L115.2,78z"/>
			</g>
		</g>
		<g>
			<path class="st1" d="M79.6,114.7c11.4-3,22.7-6,34.1-9c0.9-0.2,1.8-0.5,2.7-0.5c0.9,0,1.9,0.2,2.8,0.4
				c11.3,2.7,22.8,4.9,34.5,6.6c-3.9,1.8-8.5,2-12.9,2.6c-8.4,1.2-16.4,4-23.1,8.3c-0.6,0.4-1.2,0.8-1.9,0.9c-0.7,0.1-1.5,0-2.2-0.1
				c-11.7-2.1-23.3-4.6-34.7-7.6"/>
			<g>
				<path class="st2" d="M79.7,115c6.3-1.7,12.6-3.3,19-5c6.1-1.6,14.1-5.3,20.4-4.1c6.4,1.2,12.7,2.8,19,4c3.2,0.6,6.4,1.2,9.6,1.7
					c0.2,0,4.1,0.3,4.3,0.9c0,0.1-3.7,1-4,1c-5.6,1-11.1,1.3-16.5,3c-4.9,1.5-8.9,3.9-13.5,6c-5.8,2.6-14.1-0.6-20.1-1.9
					c-6.4-1.4-12.7-2.9-19-4.5c-0.4-0.1-0.6,0.5-0.2,0.6c7.2,1.9,14.5,3.6,21.8,5.1c3.7,0.8,7.3,1.5,11,2.2c1.9,0.3,3.4,0.8,5.2,0.1
					c2.2-0.8,4.5-2.6,6.6-3.7c3.5-1.6,7.1-2.9,10.8-3.9c6.4-1.6,13.4-1.4,19.5-3.9c0.3-0.1,0.4-0.6,0-0.6c-6.8-1-13.5-2.2-20.2-3.5
					c-5.3-1.1-11.6-3.6-17.1-3.5c-5.2,0.1-11,2.7-16,4c-6.9,1.8-13.9,3.7-20.8,5.5C79.1,114.5,79.3,115.1,79.7,115L79.7,115z"/>
			</g>
		</g>
		<g>
			<g>
				<path class="st2" d="M117.2,70.6c0.6,11.4,0.7,22.9,0.2,34.3c-0.4,10.8-1.9,21.6,0.1,32.4c0.2,0.9,1.5,0.5,1.3-0.4
					c-2.1-11.2-0.3-22.6,0-33.9c0.4-10.8,0.2-21.6-0.3-32.4C118.5,69.8,117.1,69.7,117.2,70.6L117.2,70.6z"/>
			</g>
		</g>
		<g>
			<g>
				<path class="st2" d="M71.9,62c2.8,21.5,5.2,43.1,7.3,64.7c0.1,0.9,1.5,0.9,1.4,0c-2-21.6-4.4-43.1-7.3-64.7
					C73.2,61.2,71.8,61.1,71.9,62L71.9,62z"/>
			</g>
		</g>
		<g>
			<g>
				<path class="st2" d="M157.4,63.1c0.5,10.3,1,20.7-0.1,31c-1.1,10-5,19.4-5.4,29.4c0,0.9,1.4,0.9,1.4,0c0.4-10,4.4-19.5,5.4-29.4
					c1.1-10.3,0.6-20.7,0.1-31C158.7,62.3,157.3,62.3,157.4,63.1L157.4,63.1z"/>
			</g>
		</g>
		<g>
			<g>
				<path class="st2" d="M78.3,128.9c6.7,2.9,13.6,5.4,20.6,7.4c3.8,1.1,7.7,2,11.5,2.7c2.7,0.5,6.1,1.7,8.9,1.4
					c5.7-0.6,12.1-4.6,17.2-6.9c6.5-3,13.6-4.4,20-7.5c1.6-0.8,0.2-3.2-1.4-2.4c-5.4,2.6-11.3,3.7-16.8,6.1
					c-3.2,1.4-6.4,2.9-9.6,4.3c-2.8,1.2-6.7,3.4-9.7,3.6c-5.8,0.4-12.9-2.2-18.5-3.7c-7.1-1.9-14.1-4.4-20.8-7.3
					C78.1,125.8,76.6,128.2,78.3,128.9L78.3,128.9z"/>
			</g>
		</g>
		<g>
			<path class="st1" d="M78.2,87.4c12.5-0.3,24.9-3.2,35.7-8.3c0.6-0.3,1.3-0.6,2.1-0.7c1-0.1,2,0.3,2.9,0.8
				c12.1,5.5,25.3,9.3,39,11.2c-13.1,3.4-26.5,6.1-40,8.1l0.8,0.7c-14-4.2-28.1-8.1-42.4-11.6"/>
			<g>
				<path class="st2" d="M78.2,87.7c9.2-0.3,18.3-1.8,27-4.7c1.9-0.7,3.9-1.4,5.7-2.2c0.9-0.4,2.1-1.2,3.1-1.4
					c2.4-0.4,5.6,0.7,7.8,1.4c4.2,1.5,8.2,3.2,12.4,4.5c4.5,1.4,9.1,2.6,13.7,3.6c1.9,0.4,5.3,0.3,7,1.3c1.3,0.8,0.4,0.3-1.1,0.7
					c-1.2,0.3-2.5,0.6-3.8,0.9c-10.7,2.5-21.6,4.6-32.5,6.3c-0.2,0-0.3,0.4-0.1,0.5c0.9,0.8-1.9-0.7-2.6-0.9
					c-1.8-0.6-3.7-1.1-5.5-1.6c-3.7-1.1-7.3-2.1-11-3.1c-7.4-2-14.8-3.9-22.2-5.8c-0.4-0.1-0.6,0.5-0.2,0.6
					c14.2,3.5,28.4,7.3,42.4,11.6c0.3,0.1,0.6-0.3,0.3-0.5c-0.8-0.7,2.4-0.7,2.9-0.8c1.6-0.2,3.2-0.5,4.8-0.8c3.5-0.6,7-1.3,10.5-2
					c7-1.4,13.9-3,20.8-4.8c0.3-0.1,0.3-0.6,0-0.6c-7.1-1-14.1-2.5-20.9-4.5c-3.4-1-6.7-2.1-10-3.3c-3-1.1-6.3-3.3-9.5-3.9
					c-1.9-0.4-2.8,0.1-4.5,0.9c-3.7,1.6-7.4,3.1-11.3,4.2C94,85.7,86.2,86.8,78.2,87C77.8,87.1,77.8,87.7,78.2,87.7L78.2,87.7z"/>
			</g>
		</g>
		<g>
			<g>
				<path class="st2" d="M115.2,78c0.6-3,0.8-6.1,0.7-9.2c0-0.4-0.7-0.4-0.7,0c0.1,3-0.1,6-0.7,9C114.5,78.3,115.1,78.4,115.2,78
					L115.2,78z"/>
			</g>
		</g>
		<g>
			<path class="st1" d="M79.6,114.7c11.4-3,22.7-6,34.1-9c0.9-0.2,1.8-0.5,2.7-0.5c0.9,0,1.9,0.2,2.8,0.4
				c11.3,2.7,22.8,4.9,34.5,6.6c-3.9,1.8-8.5,2-12.9,2.6c-8.4,1.2-16.4,4-23.1,8.3c-0.6,0.4-1.2,0.8-1.9,0.9c-0.7,0.1-1.5,0-2.2-0.1
				c-11.7-2.1-23.3-4.6-34.7-7.6"/>
			<g>
				<path class="st2" d="M79.7,115c6.3-1.7,12.6-3.3,19-5c6.1-1.6,14.1-5.3,20.4-4.1c6.4,1.2,12.7,2.8,19,4c3.2,0.6,6.4,1.2,9.6,1.7
					c0.2,0,4.1,0.3,4.3,0.9c0,0.1-3.7,1-4,1c-5.6,1-11.1,1.3-16.5,3c-4.9,1.5-8.9,3.9-13.5,6c-5.8,2.6-14.1-0.6-20.1-1.9
					c-6.4-1.4-12.7-2.9-19-4.5c-0.4-0.1-0.6,0.5-0.2,0.6c7.2,1.9,14.5,3.6,21.8,5.1c3.7,0.8,7.3,1.5,11,2.2c1.9,0.3,3.4,0.8,5.2,0.1
					c2.2-0.8,4.5-2.6,6.6-3.7c3.5-1.6,7.1-2.9,10.8-3.9c6.4-1.6,13.4-1.4,19.5-3.9c0.3-0.1,0.4-0.6,0-0.6c-6.8-1-13.5-2.2-20.2-3.5
					c-5.3-1.1-11.6-3.6-17.1-3.5c-5.2,0.1-11,2.7-16,4c-6.9,1.8-13.9,3.7-20.8,5.5C79.1,114.5,79.3,115.1,79.7,115L79.7,115z"/>
			</g>
		</g>
		<g>
			<g>
				<path class="st2" d="M117.2,70.6c0.6,11.4,0.7,22.9,0.2,34.3c-0.4,10.8-1.9,21.6,0.1,32.4c0.2,0.9,1.5,0.5,1.3-0.4
					c-2.1-11.2-0.3-22.6,0-33.9c0.4-10.8,0.2-21.6-0.3-32.4C118.5,69.8,117.1,69.7,117.2,70.6L117.2,70.6z"/>
			</g>
		</g>
	</g>
	<g>
		<g>
			<path class="st0" d="M32.6,125.8c2.5-0.1,4.9-0.1,7.4-0.2c1.1,0,2.1-0.1,3.1,0.3c0.9,0.3,1.6,0.8,2.4,1.2
				c1.8,1.1,3.7,2.1,5.7,2.9c-3.5,0.2-7.1,0.3-10.6,0.5c-0.8,0-1.6,0.1-2.3-0.1c-0.6-0.2-1.1-0.5-1.7-0.8c-1.9-1-3.7-2-5.6-3.1"/>
			<g>
				<path class="st2" d="M32.6,126.1c2.7-0.1,5.7-0.5,8.5-0.2c0.5,0.1,8.8,3,8.7,3.9c0,0.1-7.9,0.4-8.4,0.4c-3.9,0.1-7-2.1-10.3-3.9
					c-0.3-0.2-0.6,0.3-0.3,0.5c2.5,1.4,5.2,3.5,8,3.9c3.9,0.6,8.4-0.2,12.3-0.4c0.3,0,0.4-0.4,0.1-0.5c-2.8-1.2-5.6-3.6-8.6-4.3
					c-3.1-0.7-6.9,0-10.1,0.1C32.2,125.5,32.2,126.1,32.6,126.1L32.6,126.1z"/>
			</g>
		</g>
		<g>
			<g>
				<path class="st2" d="M29.8,127.1c0.4,2.4,0.6,4.7,0.6,7.2c0,0.3,0.2,0.5,0.4,0.5c2.9,0.9,5.6,2.7,8.6,3.3
					c2.5,0.5,5.2,0.2,7.6-0.2c1-0.2,3.2-0.2,3.9-1.2c1.1-1.3,0.4-5.2,0.3-6.7c0-0.7-1.1-0.7-1.1,0c0,1.1,0.3,3.3,0,4.3
					c-0.7,2-2.7,2.4-4.5,2.6c-2.9,0.3-5.6,0.3-8.3-0.8c-1.5-0.6-4.4-1.4-5.3-2.8c-1-1.4-0.7-4.8-1-6.6
					C30.8,126,29.7,126.3,29.8,127.1L29.8,127.1z"/>
			</g>
		</g>
		<g>
			<g>
				<path class="st2" d="M38.3,131c0.6,2.1,0.9,4.1,0.9,6.3c0,0.4,0.6,0.4,0.6,0c0-2.2-0.4-4.3-1-6.4
					C38.8,130.5,38.2,130.6,38.3,131L38.3,131z"/>
			</g>
		</g>
		<g>
			<g>
				<g>
					<g>
						<path class="st3" d="M34.1,27.7c1,0.4,2,0.7,3,1.1c0.7,0.3,1.4,1,2.2,1c0.9,0,2.1-1,2.9-1.3c1.1-0.5,2.2-0.9,3.2-1.5
							c0.4-0.2,0.4-0.8,0-1c-1.7-1-3.6-2.7-5.7-2.5c-2.3,0.1-4.6,0.7-6.7,1.8c-0.6,0.3-0.1,1.3,0.6,1c1.7-0.9,3.9-1.5,5.8-1.6
							c2,0,3.8,1.4,5.5,2.3c0-0.3,0-0.7,0-1c-1.3,0.7-3.7,2.1-5.2,2.3c-0.9,0.1-1.1-0.2-2-0.6c-0.9-0.4-1.9-0.6-2.8-1
							C34,26.4,33.4,27.4,34.1,27.7L34.1,27.7z"/>
					</g>
				</g>
				<g>
					<g>
						<path class="st3" d="M43.7,27.5c-0.4,18.1-0.8,36.2-1.1,54.2c-0.1,8.1,1.3,16,1.1,24.1c-0.2,7.2-3.1,15.2-0.4,22.1
							c0.2,0.5,1.1,0.3,0.9-0.2c-2.8-7.2,0.5-16.3,0.5-23.8c0-8-1.3-15.9-1.1-23.9c0.3-17.5,0.7-35,1-52.5
							C44.6,26.9,43.7,26.9,43.7,27.5L43.7,27.5z"/>
					</g>
				</g>
				<g>
					<g>
						<path class="st3" d="M38.7,29.9c-1.5,33-1.1,66.1,0.4,99.1c0,0.6,0.9,0.6,0.9,0c-1.5-33-1.9-66-0.4-99.1
							C39.6,29.3,38.7,29.3,38.7,29.9L38.7,29.9z"/>
					</g>
				</g>
				<g>
					<g>
						<path class="st3" d="M32.2,27.2c3.4,33.7-0.1,67.8,4.3,101.5c0.1,0.6,1,0.6,0.9,0C33,95,36.5,60.9,33.1,27.2
							C33.1,26.6,32.1,26.6,32.2,27.2L32.2,27.2z"/>
					</g>
				</g>
			</g>
			<g>
				<g>
					<path class="st3" d="M39.7,129.7c1.3-0.1,2.6-0.4,3.8-0.7c0.3-0.1,0.2-0.6-0.1-0.5c-1.2,0.3-2.4,0.6-3.7,0.7
						C39.4,129.2,39.4,129.7,39.7,129.7L39.7,129.7z"/>
				</g>
			</g>
			<g>
				<g>
					<path class="st3" d="M39.3,129.5c-0.7-0.3-1.4-0.7-2-1.2c-0.3-0.2-0.6,0.2-0.4,0.4c0.6,0.5,1.3,1,2.1,1.3
						C39.3,130.1,39.6,129.6,39.3,129.5L39.3,129.5z"/>
				</g>
			</g>
			<g>
				<g>
					<path class="st3" d="M39,44.5c1.5-1.2,3.1-2.3,4.7-3.3c0.3-0.2,0-0.6-0.3-0.5c-1.7,1.1-3.3,2.2-4.8,3.4
						C38.3,44.3,38.7,44.7,39,44.5L39,44.5z"/>
				</g>
			</g>
			<g>
				<g>
					<path class="st3" d="M38.6,51.8c2-1.1,3.8-2.4,5.4-4c0.2-0.2-0.1-0.6-0.4-0.4c-1.6,1.5-3.4,2.8-5.3,3.9
						C38,51.5,38.3,51.9,38.6,51.8L38.6,51.8z"/>
				</g>
			</g>
			<g>
				<g>
					<path class="st3" d="M38.3,60.4c2.3-1.2,3.3-3.7,5.2-5.2c0.3-0.2-0.1-0.6-0.4-0.4c-1.9,1.5-2.9,4-5.1,5.1
						C37.7,60.1,38,60.6,38.3,60.4L38.3,60.4z"/>
				</g>
			</g>
			<g>
				<g>
					<path class="st3" d="M38.4,66.4c1.6-1.3,3.1-2.6,4.6-4.1c0.2-0.2-0.1-0.6-0.4-0.4c-1.4,1.5-3,2.8-4.6,4.1
						C37.8,66.3,38.2,66.6,38.4,66.4L38.4,66.4z"/>
				</g>
			</g>
			<g>
				<g>
					<path class="st3" d="M38.4,72.6c1.6-1,3.2-2,4.6-3.2c0.3-0.2-0.1-0.6-0.4-0.4c-1.4,1.2-2.9,2.2-4.5,3.1
						C37.8,72.3,38.1,72.8,38.4,72.6L38.4,72.6z"/>
				</g>
			</g>
			<g>
				<g>
					<path class="st3" d="M38.6,80.9c1.4-1.2,2.9-2.3,4.4-3.4c0.3-0.2,0-0.7-0.3-0.5c-1.5,1.1-3,2.3-4.5,3.5
						C38,80.7,38.3,81.1,38.6,80.9L38.6,80.9z"/>
				</g>
			</g>
			<g>
				<g>
					<path class="st3" d="M38.6,86.3c1.5-0.9,2.9-1.8,4.4-2.7c0.3-0.2,0-0.6-0.3-0.5c-1.5,0.9-2.9,1.8-4.4,2.7
						C38.1,86,38.3,86.5,38.6,86.3L38.6,86.3z"/>
				</g>
			</g>
			<g>
				<g>
					<path class="st3" d="M38.8,92.2c1.4-0.8,2.8-1.7,4.2-2.7c0.3-0.2,0-0.7-0.3-0.5c-1.3,1-2.7,1.9-4.2,2.7
						C38.3,91.9,38.5,92.4,38.8,92.2L38.8,92.2z"/>
				</g>
			</g>
			<g>
				<g>
					<path class="st3" d="M39,98.4c1.6-0.9,3.1-1.9,4.7-2.8c0.3-0.2,0-0.6-0.3-0.5c-1.6,0.9-3.1,1.9-4.7,2.8
						C38.4,98.2,38.7,98.6,39,98.4L39,98.4z"/>
				</g>
			</g>
			<g>
				<g>
					<path class="st3" d="M38.9,105.1c1.7-1.2,3.4-2.4,5.1-3.5c0.3-0.2,0-0.7-0.3-0.5c-1.7,1.2-3.4,2.4-5.1,3.5
						C38.4,104.9,38.6,105.3,38.9,105.1L38.9,105.1z"/>
				</g>
			</g>
			<g>
				<g>
					<path class="st3" d="M39.2,110.1c1.5-1.5,3-3,5-3.7c0.3-0.1,0.2-0.6-0.1-0.5c-2.1,0.8-3.7,2.3-5.3,3.9
						C38.6,109.9,38.9,110.3,39.2,110.1L39.2,110.1z"/>
				</g>
			</g>
			<g>
				<g>
					<path class="st3" d="M38.9,112.8c1.7-0.7,3.2-1.9,4.7-3c0.3-0.2,0-0.7-0.3-0.5c-1.5,1-2.9,2.3-4.6,2.9
						C38.4,112.5,38.6,113,38.9,112.8L38.9,112.8z"/>
				</g>
			</g>
			<g>
				<g>
					<path class="st3" d="M39.4,117.7c1.4-0.9,2.8-1.8,4.2-2.5c0.3-0.2,0-0.6-0.3-0.5c-1.5,0.8-2.9,1.6-4.2,2.5
						C38.9,117.5,39.1,117.9,39.4,117.7L39.4,117.7z"/>
				</g>
			</g>
			<g>
				<g>
					<path class="st3" d="M39.5,122.2c1.1-0.6,2.1-1.3,3-2.1c0.3-0.2-0.1-0.6-0.4-0.4c-0.9,0.7-1.9,1.4-2.9,2
						C39,121.9,39.2,122.4,39.5,122.2L39.5,122.2z"/>
				</g>
			</g>
			<g>
				<g>
					<path class="st3" d="M39.8,125.8c1-0.4,1.9-0.9,2.7-1.5c0.3-0.2,0-0.7-0.3-0.5c-0.8,0.6-1.6,1.1-2.6,1.5
						C39.4,125.4,39.5,125.9,39.8,125.8L39.8,125.8z"/>
				</g>
			</g>
			<g>
				<g>
					<path class="st3" d="M40.2,128.4c0.9-0.7,1.8-1.3,2.7-2c0.3-0.2,0-0.7-0.3-0.5c-0.9,0.7-1.8,1.3-2.7,2
						C39.7,128.2,39.9,128.6,40.2,128.4L40.2,128.4z"/>
				</g>
			</g>
			<g>
				<g>
					<path class="st3" d="M38,43.6c-1.2-1.5-2.6-2.8-4.1-3.8c-0.3-0.2-0.5,0.3-0.3,0.5c1.5,1,2.9,2.3,4,3.7
						C37.8,44.2,38.2,43.9,38,43.6L38,43.6z"/>
				</g>
			</g>
			<g>
				<g>
					<path class="st3" d="M38,51.1c-1.3-0.8-2.5-1.7-3.7-2.6c-0.3-0.2-0.6,0.2-0.4,0.4c1.2,1,2.5,1.9,3.8,2.7
						C38,51.8,38.3,51.3,38,51.1L38,51.1z"/>
				</g>
			</g>
			<g>
				<g>
					<path class="st3" d="M37.9,59.7c-1.1-0.9-2-1.9-2.8-3c-0.2-0.3-0.6,0-0.5,0.3c0.8,1.2,1.7,2.3,2.9,3.1
						C37.8,60.3,38.1,59.9,37.9,59.7L37.9,59.7z"/>
				</g>
			</g>
			<g>
				<g>
					<path class="st3" d="M38.2,65.9c-1.1-1.5-2.4-2.8-4-3.9c-0.3-0.2-0.5,0.3-0.3,0.5c1.5,1,2.7,2.3,3.8,3.7
						C38,66.4,38.4,66.1,38.2,65.9L38.2,65.9z"/>
				</g>
			</g>
			<g>
				<g>
					<path class="st3" d="M38.2,72c-1.2-0.9-2.4-1.7-3.6-2.6c-0.3-0.2-0.5,0.3-0.3,0.5c1.2,0.9,2.4,1.7,3.6,2.6
						C38.2,72.7,38.4,72.2,38.2,72L38.2,72z"/>
				</g>
			</g>
			<g>
				<g>
					<path class="st3" d="M38.1,80.3c-1.6-0.4-2-2.6-3.7-2.9c-0.3,0-0.3,0.5,0,0.5c1.6,0.2,2,2.5,3.6,2.9
						C38.3,80.9,38.4,80.4,38.1,80.3L38.1,80.3z"/>
				</g>
			</g>
			<g>
				<g>
					<path class="st3" d="M38.4,86c-1.2-1.1-2.4-2.1-3.6-3.2c-0.3-0.2-0.6,0.1-0.4,0.4c1.2,1.1,2.4,2.1,3.6,3.2
						C38.3,86.6,38.6,86.2,38.4,86L38.4,86z"/>
				</g>
			</g>
			<g>
				<g>
					<path class="st3" d="M38.1,91.3c-1.2-0.7-2.3-1.5-3.5-2.2c-0.3-0.2-0.6,0.3-0.3,0.5c1.2,0.7,2.3,1.5,3.5,2.2
						C38.2,92,38.4,91.5,38.1,91.3L38.1,91.3z"/>
				</g>
			</g>
			<g>
				<g>
					<path class="st3" d="M38.4,98c-1-1.4-2.3-2.4-3.9-3c-0.3-0.1-0.5,0.4-0.1,0.5c1.5,0.5,2.7,1.5,3.6,2.8
						C38.1,98.6,38.6,98.3,38.4,98L38.4,98z"/>
				</g>
			</g>
			<g>
				<g>
					<path class="st3" d="M38.4,104.7c-1.2-0.5-2.3-1.1-3.4-1.8c-0.3-0.2-0.6,0.3-0.3,0.5c1.1,0.6,2.3,1.2,3.4,1.8
						C38.5,105.3,38.7,104.9,38.4,104.7L38.4,104.7z"/>
				</g>
			</g>
			<g>
				<g>
					<path class="st3" d="M38.5,109.6c-0.9-0.9-1.9-1.5-3.1-1.8c-0.3-0.1-0.5,0.4-0.1,0.5c1.1,0.3,2.1,0.9,2.9,1.7
						C38.4,110.2,38.8,109.8,38.5,109.6L38.5,109.6z"/>
				</g>
			</g>
			<g>
				<g>
					<path class="st3" d="M38.5,112.7c-1-0.7-2-1.3-3.1-1.8c-0.3-0.1-0.6,0.3-0.3,0.5c1.1,0.5,2.1,1.1,3.1,1.8
						C38.5,113.3,38.7,112.9,38.5,112.7L38.5,112.7z"/>
				</g>
			</g>
			<g>
				<g>
					<path class="st3" d="M38.5,117.2c-0.8-0.8-1.8-1.5-2.9-2c-0.3-0.1-0.6,0.3-0.3,0.5c1,0.5,1.9,1.1,2.7,1.9
						C38.4,117.9,38.8,117.5,38.5,117.2L38.5,117.2z"/>
				</g>
			</g>
			<g>
				<g>
					<path class="st3" d="M39.1,121.4c-0.9-1.1-2-1.9-3.2-2.6c-0.2-0.1-0.5,0.1-0.4,0.4c0.2,0.4,0.4,0.7,0.5,1.1
						c0.2,0.3,0.6,0,0.5-0.3c-0.2-0.4-0.4-0.7-0.5-1.1c-0.1,0.1-0.2,0.2-0.4,0.4c1.2,0.6,2.2,1.5,3.1,2.5
						C38.9,122,39.3,121.7,39.1,121.4L39.1,121.4z"/>
				</g>
			</g>
			<g>
				<g>
					<path class="st3" d="M38.9,124.6c-0.6-0.5-1.2-1-1.9-1.4c-0.3-0.2-0.5,0.3-0.3,0.5c0.6,0.5,1.2,1,1.9,1.4
						C38.9,125.3,39.2,124.8,38.9,124.6L38.9,124.6z"/>
				</g>
			</g>
			<g>
				<g>
					<path class="st3" d="M39.1,127.9c-0.5-0.8-1.2-1.5-2.1-2c-0.3-0.2-0.6,0.3-0.3,0.5c0.8,0.5,1.4,1.1,1.9,1.8
						C38.9,128.4,39.3,128.2,39.1,127.9L39.1,127.9z"/>
				</g>
			</g>
			<g>
				<g>
					<path class="st3" d="M39,44.6c1.5,0.6,2.9,1.4,4.2,2.4c0.3,0.2,0.5-0.3,0.3-0.5c-1.4-1-2.8-1.8-4.4-2.4
						C38.8,44,38.7,44.5,39,44.6L39,44.6z"/>
				</g>
			</g>
			<g>
				<g>
					<path class="st3" d="M38.5,51.9c1.7,0.8,3.3,1.8,4.7,3.1c0.3,0.2,0.6-0.1,0.4-0.4c-1.4-1.3-3-2.3-4.8-3.2
						C38.5,51.3,38.2,51.8,38.5,51.9L38.5,51.9z"/>
				</g>
			</g>
			<g>
				<g>
					<path class="st3" d="M38.5,59.9c1.3,0.8,2.7,1.5,4,2.1c0.3,0.1,0.6-0.3,0.3-0.5c-1.4-0.7-2.7-1.4-4-2.1
						C38.5,59.3,38.2,59.8,38.5,59.9L38.5,59.9z"/>
				</g>
			</g>
			<g>
				<g>
					<path class="st3" d="M38.4,66.1c1.5,0.7,2.8,1.6,4.1,2.6c0.3,0.2,0.6-0.2,0.4-0.4c-1.3-1.1-2.7-2-4.2-2.7
						C38.3,65.5,38.1,66,38.4,66.1L38.4,66.1z"/>
				</g>
			</g>
			<g>
				<g>
					<path class="st3" d="M38.1,72.4c1.4,1.8,3.1,3.5,5,4.9c0.3,0.2,0.5-0.3,0.3-0.5c-1.8-1.4-3.4-3-4.9-4.8
						C38.3,71.8,37.9,72.2,38.1,72.4L38.1,72.4z"/>
				</g>
			</g>
			<g>
				<g>
					<path class="st3" d="M38.4,80.9c1.5,0.8,2.9,1.6,4.3,2.5c0.3,0.2,0.6-0.3,0.3-0.5c-1.4-0.9-2.8-1.7-4.3-2.5
						C38.3,80.3,38.1,80.8,38.4,80.9L38.4,80.9z"/>
				</g>
			</g>
			<g>
				<g>
					<path class="st3" d="M38.9,86.2c1.2,0.4,2.3,1,3.2,1.9c0.2,0.2,0.6-0.1,0.4-0.4c-1-0.9-2.2-1.6-3.5-2
						C38.7,85.6,38.5,86.1,38.9,86.2L38.9,86.2z"/>
				</g>
			</g>
			<g>
				<g>
					<path class="st3" d="M38.4,92.2c1.4,1,2.7,2.1,3.9,3.4c0.2,0.3,0.6-0.1,0.4-0.4c-1.2-1.3-2.5-2.5-4-3.5
						C38.4,91.6,38.2,92,38.4,92.2L38.4,92.2z"/>
				</g>
			</g>
			<g>
				<g>
					<path class="st3" d="M39.1,98.4c0.7,0.3,1.4,0.7,2.1,1.1c0.6,0.3,1.4,1.2,2.1,1.2c-0.3,0-0.3,0.5,0,0.5c0.7,0,0.4-0.7,0.1-0.9
						c-1.1-1-2.7-1.7-4.1-2.3C39.1,97.8,38.8,98.3,39.1,98.4L39.1,98.4z"/>
				</g>
			</g>
			<g>
				<g>
					<path class="st3" d="M39,105c1.2,0.5,2.4,1.1,3.6,1.6c0.3,0.1,0.6-0.3,0.3-0.5c-1.2-0.5-2.4-1.1-3.6-1.6
						C38.9,104.4,38.7,104.8,39,105L39,105z"/>
				</g>
			</g>
			<g>
				<g>
					<path class="st3" d="M38.9,109.8c1.2,0.3,2.4,0.6,3.6,0.9c0.3,0.1,0.5-0.4,0.1-0.5c-1.2-0.3-2.4-0.6-3.6-0.9
						C38.7,109.2,38.5,109.7,38.9,109.8L38.9,109.8z"/>
				</g>
			</g>
			<g>
				<g>
					<path class="st3" d="M39.3,112.7c1.2,0.9,2.3,1.7,3.5,2.6c0.3,0.2,0.5-0.3,0.3-0.5c-1.2-0.9-2.3-1.7-3.5-2.6
						C39.3,112.1,39,112.5,39.3,112.7L39.3,112.7z"/>
				</g>
			</g>
			<g>
				<g>
					<path class="st3" d="M39,117.8c1,0.7,2,1.4,2.9,2.2c0.3,0.2,0.6-0.2,0.4-0.4c-1-0.8-2-1.6-3-2.3C39,117.2,38.7,117.6,39,117.8
						L39,117.8z"/>
				</g>
			</g>
			<g>
				<g>
					<path class="st3" d="M39.3,122.1c0.9,0.7,1.8,1.3,2.7,2c0.3,0.2,0.5-0.3,0.3-0.5c-0.9-0.7-1.8-1.3-2.7-2
						C39.3,121.4,39,121.9,39.3,122.1L39.3,122.1z"/>
				</g>
			</g>
			<g>
				<g>
					<path class="st3" d="M39.6,125.4c0.8,0.5,1.6,0.9,2.4,1.4c0.3,0.2,0.6-0.3,0.3-0.5c-0.8-0.5-1.6-0.9-2.4-1.4
						C39.6,124.8,39.3,125.2,39.6,125.4L39.6,125.4z"/>
				</g>
			</g>
			<g>
				<g>
					<path class="st3" d="M40.3,127.7c0.8,0.3,1.7,0.7,2.5,1c0.3,0.1,0.5-0.4,0.1-0.5c-0.8-0.3-1.7-0.7-2.5-1
						C40.1,127,40,127.6,40.3,127.7L40.3,127.7z"/>
				</g>
			</g>
			<g>
				<g>
					<path class="st3" d="M34.3,48.9c1.3-0.8,2.5-1.8,3.6-3c0.2-0.3-0.1-0.6-0.4-0.4c-1,1.1-2.2,2.1-3.5,2.9
						C33.8,48.6,34.1,49.1,34.3,48.9L34.3,48.9z"/>
				</g>
			</g>
			<g>
				<g>
					<path class="st3" d="M34.3,56.5c1.1-1.5,2.2-3,3.3-4.6c0.2-0.3-0.3-0.5-0.5-0.3c-1.1,1.5-2.2,3-3.3,4.6
						C33.6,56.5,34.1,56.8,34.3,56.5L34.3,56.5z"/>
				</g>
			</g>
			<g>
				<g>
					<path class="st3" d="M34.3,62.9c1.3-0.8,2.6-1.7,3.9-2.6c0.3-0.2,0-0.7-0.3-0.5c-1.2,0.9-2.5,1.8-3.9,2.6
						C33.7,62.6,34,63,34.3,62.9L34.3,62.9z"/>
				</g>
			</g>
			<g>
				<g>
					<path class="st3" d="M34.8,70c1.3-0.4,2.3-1.4,2.9-2.7c0.1-0.3-0.4-0.5-0.5-0.1c-0.4,1.1-1.3,2-2.5,2.4
						C34.3,69.6,34.5,70.1,34.8,70L34.8,70z"/>
				</g>
			</g>
			<g>
				<g>
					<path class="st3" d="M34.4,77c0.7,0.5,1.3-0.2,1.8-0.7c0.7-0.7,1.3-1.6,1.7-2.6c0.1-0.3-0.3-0.6-0.5-0.3
						c-0.3,0.6-0.6,1.2-1,1.7c-0.2,0.3-1.3,1.7-1.7,1.4C34.5,76.4,34.1,76.8,34.4,77L34.4,77z"/>
				</g>
			</g>
			<g>
				<g>
					<path class="st3" d="M34.9,83.4c1-0.7,2.1-1.4,3.1-2.1c0.3-0.2,0-0.7-0.3-0.5c-1,0.7-2.1,1.4-3.1,2.1
						C34.3,83.1,34.6,83.6,34.9,83.4L34.9,83.4z"/>
				</g>
			</g>
			<g>
				<g>
					<path class="st3" d="M34.7,89.9c1.4-0.6,2.7-1.4,3.8-2.4c0.3-0.2-0.1-0.6-0.4-0.4c-1.1,1-2.3,1.8-3.7,2.4
						C34.1,89.6,34.4,90.1,34.7,89.9L34.7,89.9z"/>
				</g>
			</g>
			<g>
				<g>
					<path class="st3" d="M34.8,95.4c1.3-0.7,2.4-1.7,3.2-2.9c0.2-0.3-0.3-0.5-0.5-0.3c-0.8,1.2-1.8,2.1-3,2.7
						C34.3,95.1,34.5,95.6,34.8,95.4L34.8,95.4z"/>
				</g>
			</g>
			<g>
				<g>
					<path class="st3" d="M35.6,103.2c0.9-1.5,1.9-3,3-4.4c0.2-0.3-0.3-0.5-0.5-0.3c-1.1,1.4-2.1,2.9-3,4.4
						C34.9,103.2,35.4,103.4,35.6,103.2L35.6,103.2z"/>
				</g>
			</g>
			<g>
				<g>
					<path class="st3" d="M35.4,108.1c1-0.9,2-1.8,2.9-2.8c0.2-0.2-0.1-0.6-0.4-0.4c-0.9,1-1.9,1.9-2.9,2.8
						C34.8,108,35.1,108.3,35.4,108.1L35.4,108.1z"/>
				</g>
			</g>
			<g>
				<g>
					<path class="st3" d="M35.7,111.5c0.9-0.2,1.7-0.6,2.5-1.2c0.3-0.2-0.1-0.6-0.4-0.4c-0.7,0.5-1.4,0.9-2.2,1
						C35.3,111,35.4,111.5,35.7,111.5L35.7,111.5z"/>
				</g>
			</g>
			<g>
				<g>
					<path class="st3" d="M36.1,115.4c1.1-0.6,2-1.3,2.9-2.2c0.2-0.2-0.1-0.6-0.4-0.4c-0.9,0.8-1.8,1.5-2.8,2.1
						C35.5,115.2,35.8,115.6,36.1,115.4L36.1,115.4z"/>
				</g>
			</g>
			<g>
				<g>
					<path class="st3" d="M36,119.5c0.9-0.2,1.8-0.7,2.5-1.3c0.3-0.2-0.1-0.6-0.4-0.4c-0.7,0.6-1.4,1-2.3,1.2
						C35.6,119,35.7,119.5,36,119.5L36,119.5z"/>
				</g>
			</g>
			<g>
				<g>
					<path class="st3" d="M36.7,123.1c0.9-0.4,1.6-0.8,2.4-1.3c0.3-0.2,0-0.7-0.3-0.5c-0.7,0.5-1.5,0.9-2.3,1.3
						C36.2,122.7,36.4,123.2,36.7,123.1L36.7,123.1z"/>
				</g>
			</g>
			<g>
				<g>
					<path class="st3" d="M37.3,126.2c0.3-0.4,0.7-0.8,1.2-1.1c0.3-0.2,0-0.7-0.3-0.5c-0.5,0.4-0.9,0.7-1.3,1.2
						C36.7,126,37.1,126.4,37.3,126.2L37.3,126.2z"/>
				</g>
			</g>
		</g>
		<path class="st4" d="M39.1,34.7c-14.4-1-28.3-1.9-30.7-1.6c-6.7,0.7,10.5-2.5,10.5-2.5l14.3,0.5"/>
		<path class="st4" d="M43.9,31.5l2.5,0.1c2,0.1,18.7-0.3,57.6,6.4l-3.8,1.7c0,0-34.7-2.9-61.1-4.9"/>
		<polyline class="st5" points="104,37.9 103.4,41.9 99.9,43.8 100.2,39.6 		"/>
		<path class="st6" d="M99.9,43.8c0,0-91.8-5.5-91.8-6.3c0-0.7-1.3-4.4-1.3-4.4"/>
		<g>
			<g>
				<path class="st3" d="M7.5,33.7c1.1,1.3,2.2,2.5,3.5,3.6c0.4,0.4,1.1-0.2,0.6-0.6c-1.2-1.1-2.4-2.3-3.5-3.6
					C7.8,32.7,7.2,33.3,7.5,33.7L7.5,33.7z"/>
			</g>
		</g>
		<g>
			<g>
				<path class="st3" d="M12.5,33.4c1.2,1.6,2.3,3.2,3.4,4.8c0.3,0.5,1.1,0,0.8-0.5c-1.1-1.7-2.2-3.3-3.4-4.8
					C12.9,32.5,12.1,33,12.5,33.4L12.5,33.4z"/>
			</g>
		</g>
		<g>
			<g>
				<path class="st3" d="M18,33.7c1.3,1.7,2.7,3.4,4,5.1c0.4,0.5,1-0.2,0.6-0.6c-1.3-1.7-2.7-3.4-4-5.1C18.3,32.6,17.7,33.3,18,33.7
					L18,33.7z"/>
			</g>
		</g>
		<g>
			<g>
				<path class="st3" d="M23.3,34.1c1,1.6,2.1,3.2,3.4,4.6c0.4,0.5,1-0.2,0.6-0.6c-1.2-1.4-2.2-2.9-3.2-4.5
					C23.8,33.1,23,33.6,23.3,34.1L23.3,34.1z"/>
			</g>
		</g>
		<g>
			<g>
				<path class="st3" d="M28.1,34.5c1.5,1.6,3.1,3.2,4.6,4.7c0.4,0.4,1.1-0.2,0.6-0.6c-1.5-1.6-3.1-3.2-4.6-4.7
					C28.4,33.4,27.7,34.1,28.1,34.5L28.1,34.5z"/>
			</g>
		</g>
		<g>
			<g>
				<path class="st3" d="M45.4,35.9c1.8,1.6,3.7,3,5.7,4.3c0.5,0.3,1-0.5,0.5-0.8c-2-1.3-3.8-2.6-5.5-4.2
					C45.6,34.9,45,35.5,45.4,35.9L45.4,35.9z"/>
			</g>
		</g>
		<g>
			<g>
				<path class="st3" d="M53.5,36.4c1.7,1.6,3.5,3.1,5.3,4.5c0.5,0.4,0.9-0.4,0.5-0.8c-1.8-1.4-3.5-2.8-5.1-4.3
					C53.7,35.3,53.1,36,53.5,36.4L53.5,36.4z"/>
			</g>
		</g>
		<g>
			<g>
				<path class="st3" d="M60.3,36.9c1.3,1.6,2.9,3,4.6,4.2c0.5,0.3,0.9-0.5,0.5-0.8c-1.6-1.1-3.1-2.5-4.4-4
					C60.6,35.8,60,36.4,60.3,36.9L60.3,36.9z"/>
			</g>
		</g>
		<g>
			<g>
				<path class="st3" d="M66.3,37.2c1,1.6,2.3,3,3.7,4.1c0.5,0.4,1.1-0.3,0.6-0.6c-1.4-1.1-2.6-2.4-3.6-3.9
					C66.8,36.2,66,36.7,66.3,37.2L66.3,37.2z"/>
			</g>
		</g>
		<g>
			<g>
				<path class="st3" d="M71.6,37.8c1.5,1.4,3,2.7,4.6,3.9c0.5,0.3,0.9-0.4,0.5-0.8c-1.6-1.1-3-2.4-4.4-3.7
					C71.9,36.8,71.2,37.4,71.6,37.8L71.6,37.8z"/>
			</g>
		</g>
		<g>
			<g>
				<path class="st3" d="M77.8,38.7c1.7,1.3,3.4,2.5,5.3,3.6c0.5,0.3,1-0.5,0.5-0.8c-1.8-1-3.5-2.2-5.1-3.4
					C78,37.7,77.4,38.3,77.8,38.7L77.8,38.7z"/>
			</g>
		</g>
		<g>
			<g>
				<path class="st3" d="M85.7,39c0.9,1.1,1.9,2.1,3.1,3c0.4,0.4,1.1-0.3,0.6-0.6c-1.1-0.9-2.1-1.9-3.1-3C86,37.9,85.4,38.6,85.7,39
					L85.7,39z"/>
			</g>
		</g>
		<g>
			<g>
				<path class="st3" d="M91.8,39.7c1.4,1.1,2.7,2.2,3.9,3.4c0.4,0.4,1.1-0.2,0.6-0.6c-1.3-1.3-2.7-2.4-4.1-3.5
					C91.8,38.6,91.4,39.4,91.8,39.7L91.8,39.7z"/>
			</g>
		</g>
		<g>
			<g>
				<path class="st3" d="M13.7,33c1.5-0.4,2.9-0.8,4.4-0.9c0.6-0.1,0.6-1,0-0.9c-1.6,0.2-3.1,0.5-4.7,1C12.9,32.3,13.2,33.1,13.7,33
					L13.7,33z"/>
			</g>
		</g>
		<g>
			<g>
				<path class="st3" d="M19,33.7c1.5-0.8,3.1-1.3,4.8-1.5c0.6-0.1,0.6-1,0-0.9c-1.9,0.2-3.6,0.8-5.3,1.6C18,33.2,18.5,34,19,33.7
					L19,33.7z"/>
			</g>
		</g>
		<g>
			<g>
				<path class="st3" d="M24.6,34c1.4-0.4,2.9-0.7,4.3-1.1c0.6-0.1,0.3-1-0.2-0.9c-1.4,0.4-2.9,0.7-4.3,1.1
					C23.8,33.2,24,34.1,24.6,34L24.6,34z"/>
			</g>
		</g>
		<g>
			<g>
				<path class="st3" d="M30,34.2c1.1-0.9,1.9-1.7,3.3-1.9c0.6-0.1,0.3-1-0.2-0.9c-1.6,0.3-2.5,1.2-3.7,2.1
					C28.9,33.9,29.5,34.6,30,34.2L30,34.2z"/>
			</g>
		</g>
		<g>
			<g>
				<path class="st3" d="M45.8,35.6c1.7-1.4,3.6-2.3,5.7-2.6c0.6-0.1,0.3-1-0.2-0.9c-2.3,0.4-4.4,1.3-6.1,2.8
					C44.7,35.3,45.3,35.9,45.8,35.6L45.8,35.6z"/>
			</g>
		</g>
		<g>
			<g>
				<path class="st3" d="M54.2,35.9c1.3-1.3,3-1.8,4.7-2.3c0.6-0.2,0.3-1-0.2-0.9c-1.8,0.6-3.7,1.2-5.1,2.6
					C53.1,35.7,53.8,36.3,54.2,35.9L54.2,35.9z"/>
			</g>
		</g>
		<g>
			<g>
				<path class="st3" d="M61.1,36.6c1-1.1,2.3-2,3.7-2.5c0.5-0.2,0.3-1.1-0.2-0.9c-1.6,0.6-2.9,1.5-4.1,2.8
					C60,36.4,60.7,37,61.1,36.6L61.1,36.6z"/>
			</g>
		</g>
		<g>
			<g>
				<path class="st3" d="M67.1,37.3c0.4-1.3,1.4-1.7,2.6-1.8c0.8-0.1,1.5-0.1,2-0.8c0.4-0.5-0.3-1.1-0.6-0.6
					c-0.6,0.8-2.2,0.4-3.1,0.8c-0.9,0.4-1.5,1.2-1.8,2.2C66.1,37.6,67,37.8,67.1,37.3L67.1,37.3z"/>
			</g>
		</g>
		<g>
			<g>
				<path class="st3" d="M72.8,37.6c1.3-1.1,2.7-2,4.2-2.6c0.5-0.2,0.1-1-0.5-0.8c-1.6,0.7-3.1,1.6-4.4,2.8
					C71.7,37.3,72.3,37.9,72.8,37.6L72.8,37.6z"/>
			</g>
		</g>
		<g>
			<g>
				<path class="st3" d="M78.5,38.8c1.6-1.1,3.3-2,5.1-2.9c0.5-0.3,0.1-1-0.5-0.8c-1.7,0.9-3.4,1.8-5.1,2.9
					C77.5,38.3,78,39.1,78.5,38.8L78.5,38.8z"/>
			</g>
		</g>
		<g>
			<g>
				<path class="st3" d="M86,39c1.4-0.7,2.9-1.4,4.4-2c0.5-0.2,0.3-1.1-0.2-0.9c-1.6,0.6-3.1,1.3-4.6,2.1C85.1,38.5,85.5,39.3,86,39
					L86,39z"/>
			</g>
		</g>
		<g>
			<g>
				<path class="st3" d="M92.6,39.5c1.3-0.5,2.6-0.9,4-1.4c0.5-0.2,0.3-1.1-0.2-0.9c-1.3,0.5-2.6,0.9-4,1.4
					C91.8,38.8,92.1,39.7,92.6,39.5L92.6,39.5z"/>
			</g>
		</g>
		<g>
			<g>
				<path class="st0" d="M18,24c0.5,2.5,0.8,5.1,0.7,7.7"/>
				<g>
					<path class="st2" d="M17.7,24.1c0.5,2.5,0.7,5,0.7,7.6c0,0.5,0.7,0.5,0.7,0c0.1-2.6-0.2-5.2-0.7-7.8
						C18.3,23.4,17.6,23.6,17.7,24.1L17.7,24.1z"/>
				</g>
			</g>
			<g>
				<path class="st0" d="M17.8,24.4c-1,0.4-1.8,1-2.5,1.9c-0.2,0.2-0.3,0.5-0.6,0.6c-0.4,0.2-0.9-0.2-1.3-0.5
					c-1.5-1.1-3.2-1.7-5-1.8c0.7-1.2,1.5-2.4,2.7-2.8c0.9-0.3,1.8-0.1,2.7,0.1c2.3,0.5,2,1,4.2,1.5"/>
				<g>
					<path class="st2" d="M17.6,24.1c-0.7,0.3-1.3,0.7-1.8,1.2c-0.9,0.9-1.1,1.5-2.4,0.7c-1.5-1-3.1-1.5-5-1.6
						c0.1,0.2,0.2,0.4,0.3,0.5c0.5-0.9,1.1-1.9,2.1-2.4c1.2-0.7,2.8-0.3,4,0.1c1.1,0.4,2,0.9,3.1,1.2c0.5,0.1,0.7-0.6,0.2-0.7
						c-2-0.5-3.6-1.6-5.7-1.7c-2.2-0.1-3.3,1.5-4.4,3.1c-0.2,0.2,0,0.5,0.3,0.5c1.5,0.1,2.8,0.4,4.1,1.2c0.5,0.3,1.2,1,1.8,1.1
						c0.5,0,0.7-0.1,1-0.4c1-0.7,1.5-1.6,2.7-2.2C18.4,24.5,18,23.9,17.6,24.1L17.6,24.1z"/>
				</g>
			</g>
			<g>
				<path class="st0" d="M8.3,25.8c0.2,1.7,0.5,3.5,0.7,5.2c0.1,0.5,0.1,1,0.4,1.3c0.3,0.3,0.7,0.4,1,0.5c1.2,0.3,2.3,0.5,3.5,0.8
					l2,0.2l-0.7-7.2c0,0-0.1,1-0.5,0.3c-0.4-0.7-6.3-1.9-6.3-1.9"/>
				<g>
					<path class="st2" d="M7.9,25.9c0.2,1.8,0.4,3.7,0.7,5.5c0.2,0.9,0.5,1.4,1.3,1.7c1.8,0.7,4,0.9,6,1.1c0.2,0,0.4-0.2,0.4-0.4
						c-0.2-2.4-0.4-4.8-0.7-7.2c0-0.4-0.6-0.5-0.7-0.1c0,0.3,0.2,0-0.1,0c-0.2,0-0.5-0.3-0.7-0.4c-0.6-0.3-1.3-0.4-1.9-0.6
						c-1.2-0.3-2.5-0.6-3.7-0.9c-0.5-0.1-0.7,0.6-0.2,0.7c1,0.2,1.9,0.4,2.8,0.7c1.1,0.3,2.7,0.5,3.6,1.4c0.1,0.1,0.2,0.1,0.4,0.1
						c0.4-0.1,0.5-0.4,0.6-0.8c-0.2,0-0.5-0.1-0.7-0.1c0.2,2.4,0.4,4.8,0.7,7.2c0.1-0.1,0.2-0.2,0.4-0.4c-1.6-0.1-3-0.4-4.5-0.7
						c-1.6-0.4-2-1.1-2.2-2.7c-0.2-1.4-0.4-2.8-0.6-4.3C8.5,25.3,7.8,25.4,7.9,25.9L7.9,25.9z"/>
				</g>
			</g>
			<g>
				<path class="st0" d="M15.4,26.1c0.1,2.6,0.2,5.2,0.5,7.7c1.1-0.2,2.2-0.9,3-1.8L18,24.5"/>
				<g>
					<path class="st2" d="M15,26.1c0.1,2.6,0.2,5.2,0.5,7.7c0,0.2,0.2,0.4,0.5,0.4c1-0.3,2.9-1,3.3-2.1c0.1-0.5-0.1-1.3-0.2-1.8
						c-0.2-1.9-0.5-3.8-0.7-5.7c-0.1-0.5-0.8-0.5-0.7,0c0.2,1.5,0.4,2.9,0.5,4.4c0.1,0.8,0.4,1.7,0.3,2.5c0,0.1,0.1,0.4,0.1,0.5
						c-0.3,0.7-2.1,1.3-2.7,1.5c0.2,0.1,0.3,0.2,0.5,0.4c-0.3-2.6-0.5-5.1-0.5-7.7C15.8,25.6,15,25.6,15,26.1L15,26.1z"/>
				</g>
			</g>
		</g>
	</g>
</g>
</svg>
